<svg width="28" height="27" viewBox="0 0 28 27" fill="none" xmlns="http://www.w3.org/2000/svg">
<path d="M18.0956 2.85708H15.88C15.8778 2.32749 15.6702 1.82556 15.2942 1.43965L15.2942 1.43964L15.2929 1.43835C14.919 1.06384 14.3992 0.850542 13.8655 0.850542C12.757 0.850542 11.8551 1.74962 11.8505 2.85654H9.64023C9.638 2.32951 9.42835 1.82771 9.04892 1.43901L9.04893 1.439L9.04765 1.43772C8.66917 1.05925 8.16363 0.85 7.62521 0.85C6.51447 0.85 5.60938 1.74866 5.60477 2.856H2.43673C1.5623 2.856 0.85 3.5651 0.85 4.4373V5.73958C0.85 6.12233 1.16014 6.43174 1.54216 6.43174C1.92418 6.43174 2.23432 6.12233 2.23432 5.73958V4.4373C2.23432 4.33102 2.3232 4.24032 2.43673 4.24032H5.60476V5.94451C5.60476 7.05572 6.51106 7.95901 7.62521 7.95901C8.73651 7.95901 9.64025 7.05532 9.64025 5.94451V4.24032H11.8505V5.94451C11.8505 7.05532 12.7542 7.95901 13.8655 7.95901C14.9768 7.95901 15.8805 7.05532 15.8805 5.94451V4.24032H18.0962V5.94451C18.0962 7.05532 18.9999 7.95901 20.1112 7.95901C21.2225 7.95901 22.1262 7.05532 22.1262 5.94451V4.24032H25.2997C25.4082 4.24032 25.4967 4.32876 25.4967 4.4373V9.55169H2.23432V7.68323C2.23432 7.30047 1.92418 6.99106 1.54216 6.99106C1.16014 6.99106 0.85 7.30047 0.85 7.68323V10.2439V24.532C0.85 25.6726 1.77814 26.6007 2.91925 26.6007H24.8117C25.9529 26.6007 26.881 25.6726 26.881 24.532V12.0818C26.881 11.699 26.5708 11.3896 26.1888 11.3896C25.8068 11.3896 25.4967 11.699 25.4967 12.0818V24.532C25.4967 24.9093 25.1893 25.2164 24.8117 25.2164H2.91925C2.54167 25.2164 2.23432 24.9093 2.23432 24.532V10.9376H26.1888C26.5704 10.9376 26.8804 10.6281 26.8804 10.2455V4.43893C26.8804 3.56724 26.1708 2.85762 25.2991 2.85762H22.1257C22.1235 2.32803 21.9159 1.82611 21.5399 1.44019L21.5399 1.44018L21.5386 1.43889C21.1647 1.06437 20.6448 0.851084 20.1107 0.851084C19.0022 0.851084 18.1002 1.75016 18.0956 2.85708ZM8.25538 5.94614C8.25538 6.29364 7.97244 6.57631 7.62467 6.57631C7.27325 6.57631 6.98854 6.29215 6.98854 5.94614V3.54979V2.86612C6.98854 2.51957 7.2727 2.23595 7.62467 2.23595C7.79445 2.23595 7.95038 2.30094 8.06295 2.41323C8.15415 2.50644 8.25538 2.65663 8.25538 2.86612V3.54979V5.94614ZM14.4957 5.94614C14.4957 6.29364 14.2127 6.57631 13.865 6.57631C13.5173 6.57631 13.2342 6.29316 13.2342 5.94614V3.54979V2.86612C13.2342 2.51862 13.5172 2.23595 13.865 2.23595C14.0355 2.23595 14.1987 2.30363 14.3086 2.4132C14.3958 2.50233 14.4957 2.65087 14.4957 2.86612V3.54979V5.94614ZM20.7414 5.94614C20.7414 6.29364 20.4584 6.57631 20.1107 6.57631C19.763 6.57631 19.4799 6.29316 19.4799 5.94614V3.54979V2.86612C19.4799 2.51862 19.7629 2.23595 20.1107 2.23595C20.2812 2.23595 20.4444 2.30363 20.5543 2.4132C20.6415 2.50233 20.7414 2.65087 20.7414 2.86612V3.54979V5.94614Z" fill="#C2857D" stroke="#C2857D" stroke-width="0.3"/>
</svg>
