<svg width="48" height="32" viewBox="0 0 48 32" fill="none" xmlns="http://www.w3.org/2000/svg">
<path d="M42 0H6C2.68651 0 0 2.38801 0 5.33333V26.6667C0 29.612 2.68651 32 6 32H42C45.3135 32 48 29.612 48 26.6667V5.33333C48 2.38801 45.3135 0 42 0ZM43.5 2.66667L24 16L4.5 2.66667H43.5ZM3 26.6667V5.33333L16.5 14.6667L3.14251 27.4374C3.05851 27.192 3 26.9374 3 26.6667ZM5.33247 29.2626L18.87 16.4413L24 19.8866L28.9095 16.4186L42.6675 29.2613C42.4515 29.3054 5.54847 29.3054 5.33247 29.2626ZM44.8576 27.4386L31.5 14.6667L45 5.33333V26.6667C45 26.9374 44.9415 27.192 44.8576 27.4386Z" fill="white"/>
</svg>
