<svg width="40" height="32" viewBox="0 0 40 32" fill="none" xmlns="http://www.w3.org/2000/svg">
<path d="M20 0C14.2067 0 9.08654 0.625 5.96154 1.1C3.3774 1.49375 1.29207 3.51875 0.817308 6.2C0.414663 8.48125 0 11.8188 0 16C0 20.1812 0.414663 23.5188 0.817308 25.8C1.29207 28.4813 3.3774 30.5125 5.96154 30.9C9.09856 31.375 14.2368 32 20 32C25.7632 32 30.9014 31.375 34.0385 30.9C36.6226 30.5125 38.7079 28.4813 39.1827 25.8C39.5853 23.5125 40 20.1688 40 16C40 11.8313 39.5913 8.4875 39.1827 6.2C38.7079 3.51875 36.6226 1.49375 34.0385 1.1C30.9135 0.625 25.7933 0 20 0ZM20 3.2C25.5889 3.2 30.5829 3.79375 33.6058 4.25C34.9038 4.45 35.9195 5.46875 36.1538 6.8C36.5264 8.9125 36.9231 12.0438 36.9231 16C36.9231 19.95 36.5264 23.0875 36.1538 25.2C35.9195 26.5312 34.9099 27.5562 33.6058 27.75C30.5709 28.2062 25.5529 28.8 20 28.8C14.4471 28.8 9.42308 28.2062 6.39423 27.75C5.09615 27.5562 4.08053 26.5312 3.84615 25.2C3.47356 23.0875 3.07692 19.9625 3.07692 16C3.07692 12.0312 3.47356 8.9125 3.84615 6.8C4.08053 5.46875 5.09014 4.45 6.39423 4.25C9.41106 3.79375 14.4111 3.2 20 3.2ZM15.3846 6.85V25.15L17.6923 23.8L28.4615 17.4L30.7692 16L28.4615 14.6L17.6923 8.2L15.3846 6.85ZM18.4615 12.35L24.5673 16L18.4615 19.65V12.35Z" fill="white"/>
</svg>
