<svg width="85" height="75" viewBox="0 0 85 75" fill="none" xmlns="http://www.w3.org/2000/svg">
<g clip-path="url(#clip0_322_1012)">
<path d="M15.6429 51.8568C15.6929 51.8606 15.7375 51.8798 15.7765 51.9142C15.8156 51.9495 15.8765 52.0644 15.9586 52.2606C16.0406 52.4568 16.0812 52.6192 16.0812 52.748C16.0812 52.8775 16.0656 53.0139 16.0328 53.1571C16.0008 53.3004 15.9492 53.3725 15.8781 53.3725C15.757 53.3725 15.657 53.2345 15.5789 52.9579C15.5 52.6821 15.4437 52.5089 15.4078 52.4391C15.2086 52.0269 14.9945 51.7257 14.7664 51.5372C14.5593 51.3487 14.3492 51.2545 14.1359 51.2545C14.0429 51.2545 13.9508 51.2721 13.8578 51.3066C13.4015 51.4951 13.1734 51.9357 13.1734 52.6276C13.1734 52.8514 13.2164 53.115 13.3015 53.4192C13.3875 53.7234 13.5187 53.9909 13.6968 54.2215C13.7328 54.2637 13.9211 54.2981 14.2633 54.3265C14.4414 54.3472 14.5445 54.4085 14.5734 54.5096C14.6015 54.6108 14.5593 54.6897 14.4453 54.7457C14.3812 54.8231 14.1351 54.8016 13.7078 54.6828C13.5937 54.6552 13.5187 54.6376 13.4836 54.6299C13.0984 54.6368 12.664 54.7211 12.1797 54.8821C11.6953 55.043 11.25 55.2897 10.8437 55.6215C10.4375 55.9533 10.2344 56.3188 10.2344 56.7173C10.2344 57.0177 10.3594 57.2606 10.6086 57.446C10.8578 57.6315 11.2586 57.7242 11.8109 57.7242C12.3633 57.7242 12.9797 57.6399 13.6601 57.4721C14.3406 57.3043 14.875 57.1227 15.264 56.9265C15.6523 56.7311 16.0351 56.4545 16.4133 56.0981C16.7906 55.7418 16.9797 55.4345 16.9797 55.1755C16.9797 55.1334 16.9781 55.0989 16.9742 55.0706C16.9703 55.043 16.9758 55.0254 16.9906 55.0185C17.0336 54.9978 17.0687 55.0008 17.0976 55.0292C17.1898 55.2039 17.2367 55.3403 17.2367 55.4384C17.2367 55.725 17.1406 55.984 16.9484 56.2146C16.6133 56.6131 16.2359 56.928 15.8156 57.1587C15.3953 57.3893 14.8195 57.5847 14.089 57.7457C13.3586 57.9066 12.7508 57.987 12.2664 57.987C11.7812 57.987 11.3703 57.9449 11.032 57.8614C10.6937 57.7778 10.3992 57.61 10.15 57.3579C9.90076 57.1066 9.77576 56.797 9.77576 56.4299C9.77576 56.0629 9.86638 55.7518 10.0484 55.4966C10.2304 55.2414 10.4476 55.0445 10.7008 54.9043C10.9539 54.7648 11.2586 54.6491 11.6148 54.5579C12.1422 54.4185 12.7304 54.3311 13.3789 54.2958C12.9156 53.7786 12.6414 53.1809 12.5554 52.5027C12.5484 52.4261 12.5445 52.3526 12.5445 52.2828C12.5445 52.0307 12.607 51.7985 12.7312 51.5855C12.8562 51.3725 13.064 51.22 13.357 51.1296C13.6492 51.0391 13.8664 50.9932 14.0093 50.9932C14.1515 50.9932 14.257 51.0024 14.325 51.0192C14.3929 51.0368 14.4515 51.0545 14.5015 51.0713C14.5515 51.089 14.6015 51.1135 14.6515 51.1449C14.7015 51.1763 14.7437 51.2024 14.7797 51.2238C14.8156 51.2445 14.8578 51.2782 14.9078 51.3234C14.9578 51.3686 14.9929 51.4001 15.0148 51.4177C15.0359 51.4353 15.075 51.4706 15.1328 51.5227C15.1898 51.5748 15.225 51.6047 15.2398 51.6116C15.3468 51.7372 15.45 51.8108 15.55 51.8315C15.5609 51.8445 15.5929 51.8529 15.6429 51.8568Z" fill="white"/>
<path d="M18.1656 54.8591C18.1656 54.5235 18.0656 54.3557 17.8664 54.3557C17.8234 54.3557 17.7789 54.3611 17.7328 54.3718C17.6867 54.3825 17.6633 54.3733 17.6633 54.3457C17.6633 54.3181 17.6844 54.2829 17.7273 54.2408C17.7703 54.2055 17.9164 54.1779 18.1656 54.1572C18.4648 54.1572 18.6523 54.1994 18.7265 54.2829C18.8015 54.3664 18.839 54.4507 18.839 54.5342C18.839 54.6178 18.7734 54.8262 18.6414 55.158C18.5094 55.4898 18.4398 55.663 18.4328 55.6768C18.2187 56.3059 18.1226 56.7005 18.1445 56.8614C18.7859 56.0155 19.2062 55.4883 19.4062 55.2783C19.8265 54.8239 20.1258 54.5128 20.3039 54.345C20.7172 53.9672 21.0804 53.712 21.3945 53.5795C21.4867 53.5442 21.5687 53.5273 21.6406 53.5273C21.8758 53.5273 22.0359 53.5971 22.1219 53.7373C22.15 53.7726 22.1648 53.8055 22.1648 53.8369C22.1648 53.8683 22.1539 53.9051 22.1328 53.9473C22.1117 53.9894 22.0719 53.9871 22.0148 53.9419C21.9578 53.8967 21.8297 53.8737 21.6297 53.8737C21.3015 53.8737 20.7531 54.2515 19.9836 55.0063C19.5203 55.4745 19.0945 55.9641 18.7062 56.4745C18.3179 56.9848 18.1094 57.348 18.0812 57.5649C18.0812 57.6208 18.0281 57.6484 17.9211 57.6484C17.814 57.6484 17.7344 57.6047 17.6804 57.5174C17.6273 57.43 17.6 57.3565 17.6 57.2975C17.6 57.2377 17.6039 57.1856 17.6109 57.1404C17.6179 57.0952 17.689 56.8377 17.825 56.3695C17.9601 55.9013 18.0461 55.5902 18.0812 55.4362C17.9953 55.5764 17.8781 55.7473 17.7281 55.9503C17.6781 56.0063 17.6375 56.0224 17.6054 55.9978C17.5734 55.9733 17.557 55.9503 17.557 55.9296C17.557 55.909 17.564 55.8844 17.5781 55.8561C17.8773 55.4568 18.0734 55.125 18.1656 54.8591Z" fill="white"/>
<path d="M23.4468 54.1465C23.832 54.1465 24.0242 54.3281 24.0242 54.6921C24.0242 54.8806 23.9711 55.0346 23.864 55.1534C23.6859 55.4124 23.3968 55.6377 22.9984 55.83C22.5992 56.0223 22.2609 56.1289 21.9828 56.1495C21.8828 56.1564 21.8296 56.1289 21.8226 56.066C21.8156 56.0384 21.8242 56.0208 21.8492 56.0131C21.8742 56.0063 21.8937 56.0024 21.9078 56.0024C22.0718 55.9886 22.282 55.912 22.5382 55.7718C23.0156 55.5204 23.3648 55.2614 23.5859 54.9955C23.6781 54.8699 23.725 54.7495 23.725 54.6338C23.725 54.5181 23.6679 54.4607 23.5539 54.4607C23.4609 54.4607 23.3367 54.499 23.1797 54.5764C22.8445 54.7304 22.4921 54.9978 22.1211 55.3787C21.7507 55.7595 21.5078 56.1319 21.3945 56.4951C21.3586 56.607 21.3414 56.7174 21.3414 56.8254C21.3414 56.9342 21.3875 57.0369 21.4804 57.135C21.5726 57.2331 21.7156 57.2821 21.9078 57.2821C22.1218 57.2821 22.3671 57.2262 22.6453 57.1143C23.4507 56.7932 24.0703 56.3066 24.5054 55.6568C24.5484 55.6009 24.5875 55.5902 24.6234 55.6254C24.6515 55.6392 24.6664 55.6568 24.6664 55.6783C24.6664 55.699 24.6554 55.7235 24.6343 55.7518C24.4203 56.1013 24.15 56.4124 23.8218 56.6852C23.1875 57.2162 22.5711 57.4821 21.9726 57.4821C21.4593 57.4821 21.0992 57.3319 20.8929 57.0315C20.8148 56.9128 20.775 56.7695 20.775 56.6017C20.775 56.4338 20.8211 56.2346 20.914 56.004C21.0922 55.6055 21.4734 55.1963 22.0578 54.7771C22.6414 54.3557 23.1046 54.1465 23.4468 54.1465Z" fill="white"/>
<path d="M27.3695 54.2197C27.5335 54.2197 27.6156 54.3056 27.6156 54.4764C27.6156 54.6473 27.5335 54.8833 27.3695 55.1845C27.2054 55.4849 27.0843 55.7301 27.0062 55.9186C26.871 56.2404 26.8031 56.4971 26.8031 56.6895C26.8031 56.8818 26.8312 57.009 26.889 57.0718C26.996 57.1837 27.1421 57.1891 27.3273 57.0872C27.5125 56.986 27.771 56.7898 28.1023 56.5002C28.4335 56.2105 28.6992 55.9255 28.8984 55.6458C28.9265 55.6105 28.9609 55.6021 29 55.6197C29.039 55.6374 29.0585 55.655 29.0585 55.6718C29.0585 55.6895 29.0515 55.7086 29.0375 55.7293C28.9304 55.9178 28.7382 56.1592 28.4601 56.4527C28.182 56.7462 27.9148 56.9822 27.6585 57.1607C27.4023 57.3393 27.1492 57.4282 26.8992 57.4282C26.657 57.4213 26.4859 57.3669 26.3859 57.2657C26.2859 57.1646 26.2359 57.0366 26.2359 56.8833C26.2359 56.7293 26.25 56.5814 26.2789 56.4374C26.307 56.2941 26.3609 56.1278 26.439 55.9393C26.5671 55.6389 26.6796 55.4044 26.7757 55.2366C26.8718 55.0688 26.9203 54.9584 26.9203 54.9063C26.9203 54.8534 26.8921 54.8274 26.8351 54.8274C26.721 54.8274 26.5039 54.9638 26.1828 55.2366C25.9617 55.4397 25.6359 55.822 25.2046 56.3845C24.7734 56.9469 24.5296 57.2458 24.4726 57.281C24.2164 57.4067 24.0554 57.4695 23.9914 57.4695C23.9273 57.4695 23.8953 57.4588 23.8953 57.4381C23.8953 57.4174 23.9023 57.3875 23.9164 57.3492C23.9304 57.3109 24 57.1201 24.125 56.7776C24.25 56.4351 24.3851 56.0596 24.5312 55.6504C24.6773 55.2412 24.7664 54.9952 24.7984 54.9109C24.8304 54.8274 24.8515 54.7554 24.8625 54.6956C24.8734 54.6366 24.8851 54.5852 24.9 54.5439C24.914 54.5017 24.9406 54.455 24.9804 54.4021C25.0195 54.3492 25.071 54.3216 25.1351 54.3178C25.1992 54.3147 25.2812 54.3216 25.3812 54.3385C25.4812 54.3561 25.5312 54.3998 25.5312 54.4695C25.5312 54.5186 25.4921 54.6251 25.4132 54.7891C25.3343 54.9531 25.1101 55.5178 24.7398 56.4826C24.996 56.1753 25.3203 55.8205 25.7125 55.4182C26.1046 55.0159 26.4359 54.7102 26.707 54.501C26.9781 54.314 27.1992 54.2197 27.3695 54.2197Z" fill="white"/>
<path d="M30.4703 54.261C31.0187 54.212 31.3523 54.1875 31.4695 54.1875C31.5867 54.1875 31.6461 54.2051 31.6461 54.2396C31.6461 54.2817 31.5625 54.3254 31.3953 54.3706C31.2281 54.4158 30.8195 54.474 30.1711 54.5438C30.1351 54.6066 30.093 54.6802 30.043 54.7637C29.9359 54.9315 29.8789 55.0327 29.8719 55.0679C29.4656 55.8648 29.2515 56.3714 29.2305 56.5882C29.2234 56.6511 29.2195 56.7315 29.2195 56.8296C29.2195 56.9277 29.2476 57.0081 29.3047 57.071C29.4047 57.1829 29.5469 57.1898 29.732 57.0917C29.9172 56.9936 30.1758 56.7982 30.507 56.5047C30.8383 56.2112 31.107 55.9246 31.3141 55.6449C31.3422 55.6097 31.3781 55.6028 31.4211 55.6242C31.5281 55.6733 31.3422 55.9491 30.8648 56.4526C30.4086 56.9346 30.0273 57.2319 29.7211 57.3438C29.543 57.4066 29.393 57.438 29.2719 57.438C28.9867 57.438 28.7976 57.3055 28.7055 57.0396C28.6914 56.9905 28.6844 56.9315 28.6844 56.861C28.6844 56.6166 28.7984 56.2457 29.0265 55.7499C28.9906 55.8265 28.8516 56.0012 28.6094 56.274C28.5453 56.3438 28.4953 56.3438 28.4594 56.274C28.4523 56.2602 28.4484 56.2411 28.4484 56.2166C28.4484 56.192 28.4625 56.1622 28.4914 56.1277C28.8406 55.7016 29.1148 55.3415 29.3148 55.048C29.3148 55.0411 29.393 54.8947 29.55 54.6074C29.4789 54.6212 29.4055 54.6281 29.3312 54.6281C29.257 54.6281 29.2008 54.6058 29.1656 54.5599C29.1297 54.5147 29.1265 54.4602 29.1547 54.3974C29.2047 54.2855 29.3937 54.2227 29.7211 54.2089C29.7281 54.1951 29.7422 54.1882 29.7641 54.1882L30.2984 53.2127C30.3266 53.1568 30.3586 53.0993 30.3945 53.0396C30.4305 52.9806 30.457 52.9346 30.475 52.9032C30.493 52.8717 30.5125 52.8388 30.5336 52.8035C30.5547 52.7683 30.5726 52.7445 30.5867 52.73C30.6008 52.7162 30.6148 52.7024 30.6297 52.6878C30.6578 52.6457 30.7422 52.625 30.8812 52.625C31.0203 52.625 31.1148 52.6633 31.1648 52.7407C31.1859 52.7683 31.1969 52.8158 31.1969 52.8825C31.1969 52.9491 31.1719 53.0227 31.1219 53.1024C31.0719 53.1829 31.0187 53.2403 30.9617 53.2756C30.9047 53.3108 30.8656 53.3491 30.8437 53.3913L30.3305 54.2717L30.4703 54.261Z" fill="white"/>
<path d="M34.9492 57.0193C34.9492 57.1105 34.9953 57.1557 35.0882 57.1557C35.1804 57.1557 35.3054 57.0599 35.4625 56.8676C35.6195 56.6752 35.7257 56.5825 35.7828 56.5894C35.8257 56.6316 35.7789 56.722 35.6437 56.8622C35.6296 56.876 35.6046 56.9128 35.5687 56.9726C35.5328 57.0323 35.5031 57.0791 35.4781 57.1143C35.4531 57.1496 35.4195 57.1948 35.3765 57.2507C35.3336 57.3067 35.2945 57.3519 35.2586 57.3871C35.2226 57.4224 35.1836 57.4568 35.1406 57.4921C35.0554 57.5618 34.9804 57.5971 34.9164 57.5971C34.8523 57.5971 34.7648 57.5848 34.6546 57.5603C34.5437 57.5358 34.4875 57.5097 34.4836 57.4814C34.4797 57.4538 34.4781 57.4293 34.4781 57.4078C34.4781 57.0446 34.7812 56.2998 35.3867 55.1749C35.2937 55.1749 35.2211 55.171 35.1679 55.1641C35.1148 55.1572 35.082 55.1289 35.0718 55.0806C35.0609 55.0316 35.0757 55.004 35.1148 54.9971C35.1539 54.9902 35.1953 54.9902 35.2375 54.9971C35.2804 55.004 35.3554 55.0078 35.4617 55.0078C35.825 54.3649 36.0422 53.9718 36.114 53.8285C36.1851 53.6852 36.2211 53.5818 36.2211 53.5189C36.2211 53.4561 36.2171 53.407 36.2101 53.3718C36.2382 53.1764 36.4117 52.9197 36.7289 52.6009C37.0461 52.2829 37.3328 52.1235 37.5898 52.1235C37.675 52.1235 37.7914 52.1549 37.9375 52.2178C38.0836 52.2806 38.1672 52.3526 38.189 52.4331C38.2101 52.5136 38.2156 52.5588 38.2054 52.5695C38.1945 52.5802 38.1718 52.5787 38.1359 52.5641C38.1 52.5503 38.0789 52.5434 38.0718 52.5434C37.5586 52.5434 36.8281 53.3649 35.8804 55.0078C36.657 54.9726 37.4539 54.8208 38.2695 54.5519C39.0851 54.2829 39.7109 53.9281 40.1453 53.4875C40.3945 53.25 40.5195 52.9986 40.5195 52.7327C40.5195 51.9496 39.7031 51.5588 38.0718 51.5588C37.1382 51.5588 36.2476 51.699 35.3992 51.9779C34.957 52.1319 34.5812 52.3381 34.2711 52.5963C33.9609 52.8553 33.7773 53.1488 33.7203 53.4768C33.7132 53.512 33.7093 53.5572 33.7093 53.6132C33.7093 53.6691 33.7328 53.7373 33.7789 53.8178C33.825 53.8982 33.8804 53.9595 33.9445 54.0017C34.0086 54.0438 34.0992 54.0929 34.2172 54.1488C34.3351 54.2047 34.4132 54.2469 34.4523 54.2745C34.4914 54.3028 34.5007 54.3319 34.4789 54.3634C34.4578 54.3948 34.4109 54.404 34.3398 54.3894C34.1187 54.3542 33.9125 54.2461 33.7195 54.0645C33.5273 53.8829 33.4312 53.6867 33.4312 53.4775C33.4312 53.4147 33.4382 53.3519 33.4523 53.289C33.4382 53.1986 33.4312 53.1419 33.4312 53.1212C33.5312 52.5971 34.0546 52.0975 35.0023 51.6216C35.7507 51.2791 36.6343 51.1074 37.6539 51.1074C38.2812 51.1074 38.9007 51.1909 39.514 51.3595C39.9273 51.4998 40.2406 51.699 40.4546 51.9572C40.6687 52.2162 40.775 52.4783 40.775 52.7434C40.775 53.1488 40.6109 53.5074 40.2836 53.8178C39.9554 54.1289 39.589 54.3687 39.1828 54.5358C38.2203 54.9411 37.0875 55.158 35.7836 55.1856C35.5054 55.689 35.2968 56.0975 35.1578 56.4124C35.0187 56.7258 34.9492 56.9289 34.9492 57.0193Z" fill="white"/>
<path d="M39.8023 55.8554C39.7171 56.0929 39.6703 56.2523 39.6632 56.3328C39.6562 56.4132 39.6523 56.5213 39.6523 56.6577C39.6523 56.7941 39.6875 56.9182 39.7593 57.0301C39.8804 57.2186 40.0835 57.2324 40.3687 57.0722C40.5828 56.9603 40.8531 56.7557 41.1812 56.4584C41.5085 56.1611 41.7617 55.8906 41.9406 55.6462C41.9546 55.6255 41.9765 55.6148 42.0046 55.6148C42.0687 55.6148 42.0867 55.6607 42.0578 55.7512C41.9507 55.9397 41.7531 56.181 41.4648 56.4745C41.1765 56.768 40.914 57.001 40.6789 57.1718C40.4437 57.3427 40.2085 57.4285 39.9734 57.4285C39.432 57.4285 39.1609 57.1703 39.1609 56.6523C39.1609 56.6316 39.1609 56.6102 39.1609 56.5895C39.189 56.1006 39.4421 55.3611 39.9195 54.3718C40.3968 53.3826 40.8281 52.6362 41.2132 52.1335L41.5445 51.7243C41.6226 51.6339 41.7367 51.522 41.8867 51.3887C42.1718 51.1228 42.4656 50.9902 42.7687 50.9902C43.0718 50.9902 43.2765 51.0814 43.3835 51.263C43.4187 51.3259 43.4367 51.4171 43.4367 51.5358C43.4367 51.6546 43.3835 51.8224 43.2765 52.0393C42.5421 53.2899 41.3843 54.5626 39.8023 55.8554ZM42.9882 51.85C43.0734 51.696 43.1164 51.5772 43.1164 51.4937C43.1164 51.3466 43.0554 51.2738 42.9351 51.2738C42.8351 51.2738 42.7109 51.3297 42.5609 51.4416C41.9906 51.8753 41.4382 52.5603 40.9039 53.4967C40.4765 54.2515 40.1625 54.8983 39.9632 55.4362C40.4546 55.1075 41.0054 54.5734 41.6148 53.8324C42.2234 53.0914 42.6812 52.4301 42.9882 51.85Z" fill="white"/>
<path d="M42.325 57.3128C42.2109 57.3128 42.0883 57.2798 41.9562 57.2131C41.8242 57.1465 41.7117 57.0522 41.6195 56.9304C41.5266 56.8078 41.4805 56.6775 41.4805 56.5373C41.4805 56.3978 41.5125 56.2645 41.5766 56.1388C41.7187 55.8453 41.9484 55.5603 42.2664 55.2844C42.5836 55.0085 42.9133 54.7725 43.2555 54.5764C43.5977 54.381 43.868 54.2583 44.068 54.2093C44.2672 54.1603 44.4617 54.1357 44.6508 54.1357C44.8398 54.1357 45.0016 54.1832 45.1375 54.2775C45.2727 54.3718 45.3406 54.4714 45.3406 54.5764C45.3406 54.6116 45.3367 54.6323 45.3297 54.6392C45.3227 54.6461 45.3047 54.643 45.2758 54.6285C45.1906 54.4959 45.0141 54.4292 44.7469 54.4292C44.4797 54.4292 44.1766 54.5151 43.8383 54.6859C43.5 54.8576 43.1805 55.0721 42.8812 55.3311C42.632 55.5618 42.4125 55.8223 42.2234 56.112C42.0344 56.4024 41.9398 56.6139 41.9398 56.7465C41.9398 57.0055 42.0148 57.1342 42.1641 57.1342C42.3141 57.1342 42.5414 57.0154 42.8484 56.7779C43.3547 56.3587 43.7 56.0507 43.8852 55.8553C44.5406 55.1633 44.8938 54.817 44.9438 54.817C45.0289 54.817 45.1328 54.8415 45.2539 54.8905C45.375 54.9396 45.4141 54.9986 45.3719 55.0691C45.0086 55.5725 44.7945 56.079 44.7305 56.5894C44.7234 56.6522 44.7195 56.7327 44.7195 56.8308C44.7195 56.9288 44.7477 57.0093 44.8047 57.0721C44.9117 57.184 45.0578 57.1909 45.243 57.0928C45.4281 56.9947 45.6867 56.7993 46.018 56.5059C46.3492 56.2124 46.6148 55.9258 46.8141 55.6461C46.8422 55.6108 46.875 55.6024 46.9102 55.62C46.9453 55.6377 46.9633 55.653 46.9633 55.6675C46.9633 55.7725 46.7937 56.0016 46.4555 56.3541C46.1172 56.7074 45.8586 56.9465 45.6805 57.0721C45.3453 57.3166 45.0352 57.4392 44.75 57.4392C44.4789 57.4392 44.2977 57.3066 44.2047 57.0407C44.1836 56.9572 44.1727 56.8622 44.1727 56.758C44.1727 56.443 44.2406 56.1112 44.3758 55.7618C44.3469 55.7756 44.2156 55.9158 43.9805 56.181C43.7453 56.4469 43.4727 56.702 43.1625 56.9465C42.8539 57.1909 42.5742 57.3128 42.325 57.3128Z" fill="white"/>
<path d="M49.6585 54.2197C49.8226 54.2197 49.9046 54.3056 49.9046 54.4764C49.9046 54.6473 49.8226 54.8833 49.6585 55.1845C49.4945 55.4849 49.3734 55.7301 49.2953 55.9186C49.1601 56.2404 49.0921 56.4971 49.0921 56.6895C49.0921 56.8818 49.1203 57.009 49.1773 57.0718C49.2843 57.1837 49.4304 57.1891 49.6156 57.0872C49.8007 56.986 50.0593 56.7898 50.3906 56.5002C50.7218 56.2105 50.9875 55.9255 51.1867 55.6458C51.2148 55.6105 51.2492 55.6021 51.2882 55.6197C51.3273 55.6374 51.3468 55.655 51.3468 55.6718C51.3468 55.6895 51.3398 55.7086 51.3257 55.7293C51.2187 55.9178 51.0265 56.1592 50.7484 56.4527C50.4703 56.7462 50.2031 56.9822 49.9468 57.1607C49.6906 57.3393 49.4375 57.4282 49.1882 57.4282C48.946 57.4213 48.775 57.3669 48.675 57.2657C48.575 57.1646 48.525 57.0366 48.525 56.8833C48.525 56.7293 48.539 56.5814 48.5679 56.4374C48.596 56.2941 48.65 56.1278 48.7281 55.9393C48.8562 55.6389 48.9687 55.4044 49.0648 55.2366C49.1609 55.0688 49.2093 54.9584 49.2093 54.9063C49.2093 54.8534 49.1812 54.8274 49.1242 54.8274C49.0101 54.8274 48.7929 54.9638 48.4718 55.2366C48.2507 55.4397 47.925 55.822 47.4937 56.3845C47.0625 56.9469 46.8187 57.2458 46.7617 57.281C46.5054 57.4067 46.3445 57.4695 46.2804 57.4695C46.2164 57.4695 46.1843 57.4588 46.1843 57.4381C46.1843 57.4174 46.1914 57.3875 46.2054 57.3492C46.2195 57.3109 46.289 57.1201 46.414 56.7776C46.539 56.4351 46.6742 56.0596 46.8203 55.6504C46.9664 55.2412 47.0554 54.9952 47.0875 54.9109C47.1195 54.8274 47.1414 54.7554 47.1515 54.6956C47.1625 54.6366 47.1742 54.5852 47.189 54.5439C47.2031 54.5017 47.2296 54.455 47.2695 54.4021C47.3085 54.3492 47.3601 54.3216 47.4242 54.3178C47.4882 54.3147 47.5703 54.3216 47.6703 54.3385C47.7703 54.3561 47.8203 54.3998 47.8203 54.4695C47.8203 54.5186 47.7812 54.6251 47.7023 54.7891C47.6242 54.9531 47.3992 55.5178 47.0289 56.4826C47.2851 56.1753 47.6093 55.8205 48.0015 55.4182C48.3929 55.0159 48.725 54.7102 48.996 54.501C49.2664 54.314 49.4875 54.2197 49.6585 54.2197Z" fill="white"/>
<path d="M54.0304 54.2197C54.1945 54.2197 54.2765 54.3056 54.2765 54.4764C54.2765 54.6473 54.1945 54.8833 54.0304 55.1845C53.8664 55.4849 53.7453 55.7301 53.6672 55.9186C53.532 56.2404 53.464 56.4971 53.464 56.6895C53.464 56.8818 53.4922 57.009 53.5492 57.0718C53.6562 57.1837 53.8023 57.1891 53.9875 57.0872C54.1726 56.986 54.4312 56.7898 54.7625 56.5002C55.0937 56.2105 55.3593 55.9255 55.5586 55.6458C55.5867 55.6105 55.6211 55.6021 55.6601 55.6197C55.6992 55.6374 55.7187 55.655 55.7187 55.6718C55.7187 55.6895 55.7117 55.7086 55.6976 55.7293C55.5906 55.9178 55.3984 56.1592 55.1203 56.4527C54.8421 56.7462 54.575 56.9822 54.3187 57.1607C54.0617 57.3393 53.8093 57.4282 53.5601 57.4282C53.3179 57.4213 53.1468 57.3669 53.0468 57.2657C52.9468 57.1646 52.8968 57.0366 52.8968 56.8833C52.8968 56.7293 52.9109 56.5814 52.9398 56.4374C52.9679 56.2941 53.0218 56.1278 53.1 55.9393C53.2281 55.6389 53.3406 55.4044 53.4367 55.2366C53.5328 55.0688 53.5812 54.9584 53.5812 54.9063C53.5812 54.8534 53.5531 54.8274 53.4961 54.8274C53.382 54.8274 53.1648 54.9638 52.8437 55.2366C52.6226 55.4397 52.2968 55.822 51.8656 56.3845C51.4343 56.9469 51.1906 57.2458 51.1336 57.281C50.8773 57.4067 50.7164 57.4695 50.6523 57.4695C50.5882 57.4695 50.5562 57.4588 50.5562 57.4381C50.5562 57.4174 50.5632 57.3875 50.5773 57.3492C50.5914 57.3109 50.6609 57.1201 50.7859 56.7776C50.9109 56.4351 51.0461 56.0596 51.1922 55.6504C51.3382 55.2412 51.4273 54.9952 51.4593 54.9109C51.4914 54.8274 51.5132 54.7554 51.5234 54.6956C51.5343 54.6366 51.5461 54.5852 51.5609 54.5439C51.575 54.5017 51.6015 54.455 51.6414 54.4021C51.6804 54.3492 51.732 54.3216 51.7961 54.3178C51.8601 54.3147 51.9422 54.3216 52.0422 54.3385C52.1422 54.3561 52.1922 54.3998 52.1922 54.4695C52.1922 54.5186 52.1531 54.6251 52.0742 54.7891C51.9961 54.9531 51.7711 55.5178 51.4007 56.4826C51.657 56.1753 51.9812 55.8205 52.3734 55.4182C52.7648 55.0159 53.0968 54.7102 53.3679 54.501C53.6382 54.314 53.8593 54.2197 54.0304 54.2197Z" fill="white"/>
<path d="M57.8898 54.1465C58.2741 54.1465 58.4671 54.3281 58.4671 54.6921C58.4671 54.8806 58.414 55.0346 58.307 55.1534C58.1288 55.4124 57.8406 55.6377 57.4413 55.83C57.0421 56.0223 56.7038 56.1289 56.4257 56.1495C56.3257 56.1564 56.2726 56.1289 56.2656 56.066C56.2585 56.0384 56.2671 56.0208 56.2921 56.0131C56.3171 56.0063 56.3366 56.0024 56.3507 56.0024C56.5148 55.9886 56.7249 55.912 56.982 55.7718C57.4593 55.5204 57.8085 55.2614 58.0296 54.9955C58.1218 54.8699 58.1687 54.7495 58.1687 54.6338C58.1687 54.5181 58.1116 54.4607 57.9976 54.4607C57.9046 54.4607 57.7804 54.499 57.6234 54.5764C57.2882 54.7304 56.9359 54.9978 56.5648 55.3787C56.1945 55.7595 55.9515 56.1319 55.8374 56.4951C55.8015 56.607 55.7843 56.7174 55.7843 56.8254C55.7843 56.9342 55.8304 57.0369 55.9234 57.135C56.0156 57.2331 56.1585 57.2821 56.3507 57.2821C56.5648 57.2821 56.8101 57.2262 57.0882 57.1143C57.8937 56.7932 58.5132 56.3066 58.9484 55.6568C58.9913 55.6009 59.0304 55.5902 59.0663 55.6254C59.0945 55.6392 59.1093 55.6568 59.1093 55.6783C59.1093 55.699 59.0984 55.7235 59.0773 55.7518C58.8632 56.1013 58.5921 56.4124 58.2648 56.6852C57.6304 57.2162 57.014 57.4821 56.4156 57.4821C55.9023 57.4821 55.5421 57.3319 55.3359 57.0315C55.257 56.9128 55.2179 56.7695 55.2179 56.6017C55.2179 56.4338 55.264 56.2346 55.357 56.004C55.5351 55.6055 55.9163 55.1963 56.5007 54.7771C57.0843 54.3557 57.5476 54.1465 57.8898 54.1465Z" fill="white"/>
<path d="M60.2414 57.46C59.8781 57.46 59.6961 57.2447 59.6961 56.8148C59.6961 56.3849 60.0094 55.8554 60.6367 55.2263C60.6867 55.1772 60.7219 55.1389 60.7437 55.1106L60.8187 55.0056C60.9187 54.873 60.9648 54.7887 60.9578 54.7542L60.9258 54.66C60.8976 54.5765 60.7797 54.5152 60.5726 54.4768C60.3656 54.4385 60.1984 54.4194 60.0703 54.4194C59.4289 55.3075 59.0586 55.814 58.9586 55.9397C58.8586 56.0653 58.7914 56.1182 58.7555 56.0968C58.7195 56.0761 58.7023 56.0516 58.7023 56.0232C58.7023 55.9956 58.7234 55.9535 58.7664 55.8975C59.1516 55.4362 59.4828 54.9435 59.7609 54.4194C59.6758 54.4056 59.6117 54.3757 59.5687 54.3305C59.5258 54.2853 59.5219 54.2079 59.5578 54.0998C59.5937 53.9918 59.7023 53.8462 59.8836 53.6646C60.0648 53.483 60.2242 53.3604 60.3594 53.2975C60.4945 53.2347 60.5805 53.1964 60.6156 53.1818C60.6515 53.168 60.6906 53.1611 60.7336 53.1611C60.8187 53.1611 60.7906 53.2868 60.6484 53.5389L60.2312 54.1887C60.5523 54.2094 60.8265 54.2201 61.0547 54.2201L61.4289 54.2094C61.55 54.2094 61.6391 54.2247 61.6961 54.2569C61.7531 54.2883 61.7672 54.3427 61.739 54.4194C61.689 54.5519 61.564 54.7305 61.3648 54.9542C60.9375 55.4439 60.6164 55.9642 60.4031 56.5167C60.3531 56.6493 60.3281 56.765 60.3281 56.863C60.3281 57.0661 60.4031 57.1673 60.5523 57.1673C60.6023 57.1673 60.6969 57.1289 60.8359 57.0516C60.975 56.9749 61.2086 56.791 61.5359 56.5014C61.8633 56.2117 62.1273 55.9266 62.3273 55.647C62.3555 55.6117 62.3898 55.6033 62.4289 55.6209C62.468 55.6385 62.4875 55.6562 62.4875 55.673C62.4875 55.6906 62.4805 55.7098 62.4664 55.7305C62.3594 55.919 62.1672 56.1604 61.889 56.4539C61.6109 56.7473 61.3398 56.9849 61.0766 57.1665C60.8187 57.3619 60.5406 57.46 60.2414 57.46Z" fill="white"/>
<path d="M10.561 46.5101V45.6573H15.8672V31.4557L4.98518 7.49252H0.189087V6.63965H15.8672V7.49252H11.4906L21.3235 28.927L29.2375 11.3439C29.4774 10.8144 29.6422 10.3883 29.7321 10.0649C29.8219 9.74156 29.8672 9.44271 29.8672 9.16838C29.8672 8.56072 29.6024 8.13007 29.0727 7.8749C28.543 7.62049 27.6383 7.49252 26.3594 7.49252H25.7899V6.63965H36.2516V7.49252H35.3219C34.1024 7.49252 33.1883 7.68869 32.5789 8.08026C31.9688 8.4726 31.3446 9.35459 30.7055 10.7262L21.8625 30.3086V45.6565H27.0789V46.5094H10.561V46.5101Z" fill="white"/>
<path d="M60.7172 32.2494H61.4969V45.716H60.7172C60.5571 44.7949 60.3125 44.0946 59.9828 43.6141C59.6531 43.1336 59.2383 42.8938 58.7391 42.8938C58.2391 42.8938 57.35 43.3252 56.0711 44.1873C55.6914 44.4425 55.4016 44.6287 55.2016 44.7459L55.1414 44.8049C52.5633 46.5107 50.0555 47.3628 47.6172 47.3628C45.3391 47.3628 43.0953 46.8087 40.8875 45.7015C38.6789 44.5942 36.6656 43.021 34.8469 40.9819C33.1086 39.0026 31.8242 36.9099 30.9945 34.7045C30.1649 32.4992 29.7508 30.0739 29.7508 27.4271C29.7508 24.4087 30.2203 21.5566 31.1594 18.8708C32.0985 16.1858 33.4375 13.8532 35.1766 11.8731C36.8953 9.93211 38.8485 8.43786 41.0367 7.38959C43.225 6.34131 45.5078 5.81641 47.8867 5.81641C50.2852 5.81641 52.893 6.6302 55.711 8.25702C55.8906 8.3551 56.0406 8.44323 56.161 8.52139C56.3602 8.63863 56.6406 8.80568 57 9.021C57.9391 9.60874 58.6188 9.903 59.0383 9.903C59.5578 9.903 59.9571 9.69687 60.2375 9.28537C60.5172 8.87388 60.6766 8.27618 60.7172 7.4915H61.4969V19.3995H60.7172C60.3172 15.6946 58.9383 12.6417 56.5805 10.2409C54.2219 7.84016 51.4641 6.63939 48.3071 6.63939C44.3695 6.63939 41.432 8.34054 39.4938 11.7405C37.5547 15.1413 36.586 20.2923 36.586 27.1919C36.586 30.211 36.7805 32.8861 37.1703 35.2187C37.5602 37.5513 38.1242 39.3842 38.8641 40.7168C39.8235 42.4808 41.107 43.8777 42.7164 44.9068C44.325 45.9359 45.9789 46.4501 47.6774 46.4501C49.7156 46.4501 51.7094 45.8769 53.6578 44.7298C55.6063 43.5827 57.2594 41.9903 58.6188 39.952C59.218 39.07 59.6828 38.031 60.0125 36.8356C60.343 35.6409 60.5774 34.1114 60.7172 32.2494Z" fill="white"/>
<path d="M84.186 43.1719C75.1508 58.9014 57.786 68.5305 39.7547 70.5121C38.0024 70.7152 36.1516 70.824 34.3922 70.9014C33.7821 70.9113 32.6532 70.9259 32.0399 70.9328C31.136 70.9098 29.9211 70.8968 29.018 70.8393C28.3782 70.7941 27.6454 70.7635 27.0079 70.7121C26.2586 70.6309 25.0829 70.5443 24.3375 70.4347C24.0024 70.3864 22.6938 70.2117 22.3438 70.1604C21.6016 70.0255 20.4422 69.8462 19.704 69.6914C15.9875 68.9351 12.3266 67.8884 8.81958 66.4868C16.2032 68.9336 23.9469 70.1941 31.704 70.1259C52.4329 69.9749 72.8586 60.5458 84.186 43.1719Z" fill="white"/>
<path d="M73.4562 51.9756C58.8617 68.4124 34.7219 75.4576 13.0867 71.6928C34.818 74.0254 57.8945 67.3472 73.4562 51.9756Z" fill="white"/>
</g>
<defs>
<clipPath id="clip0_322_1012">
<rect width="84.375" height="75" fill="white"/>
</clipPath>
</defs>
</svg>
