<svg width="64" height="64" viewBox="0 0 64 64" fill="none" xmlns="http://www.w3.org/2000/svg">
<path d="M48.8829 22.5865L50.6555 20.8402C51.0908 20.4112 51.0908 19.7543 50.6555 19.3254L48.3035 17.0081C47.8701 16.5812 47.2099 16.5812 46.7765 17.0081L45.002 18.7564C42.7883 17.0237 40.1951 15.8266 37.374 15.089V13.2155H37.964C38.2717 13.2155 38.548 13.1135 38.7485 12.916C38.9492 12.7182 39.054 12.4441 39.054 12.1379V8.82759C39.054 8.52137 38.9492 8.24728 38.7485 8.0495C38.548 7.85204 38.2717 7.75 37.964 7.75H26.12C25.8123 7.75 25.536 7.85204 25.3355 8.0495C25.1348 8.24728 25.03 8.52137 25.03 8.82759V12.1379C25.03 12.4441 25.1348 12.7182 25.3355 12.916C25.536 13.1135 25.8123 13.2155 26.12 13.2155H26.71V15.0046C17.5432 17.3318 10.75 25.5749 10.75 35.3103C10.75 46.8726 20.2735 56.25 32 56.25C43.7265 56.25 53.25 46.8726 53.25 35.3103C53.25 30.5328 51.6058 26.0792 48.8829 22.5865ZM48.2758 20.0828L47.4582 20.8883C47.3822 20.8098 47.3083 20.7317 47.2343 20.6535C47.1728 20.5884 47.1112 20.5233 47.0482 20.4578C46.9206 20.3251 46.7899 20.1937 46.6506 20.0686L47.456 19.2751L48.2758 20.0828ZM27.21 9.90517H36.79V11.0603H36.2H27.8H27.21V9.90517ZM28.89 13.2155H35.11V14.5801C34.1005 14.4405 33.0852 14.3707 32 14.3707C30.9148 14.3707 29.8995 14.4405 28.89 14.5801V13.2155ZM32 54.0948C21.4665 54.0948 12.93 45.6791 12.93 35.3103C12.93 24.9416 21.4665 16.5259 32 16.5259C42.5334 16.5259 51.07 24.9416 51.07 35.3103C51.07 45.6791 42.5334 54.0948 32 54.0948Z" fill="#996058" stroke="#996058" stroke-width="0.5"/>
<path d="M32 18.5085C22.6255 18.5085 14.95 26.0653 14.95 35.3103C14.95 44.5553 22.6255 52.112 32 52.112C41.3746 52.112 49.05 44.5553 49.05 35.3103C49.05 26.0653 41.3746 18.5085 32 18.5085ZM32 49.9568C23.8186 49.9568 17.13 43.3618 17.13 35.3103C17.13 27.2587 23.8186 20.6637 32 20.6637C40.1815 20.6637 46.87 27.2587 46.87 35.3103C46.87 43.3618 40.1815 49.9568 32 49.9568Z" fill="#996058" stroke="#996058" stroke-width="0.5"/>
<path d="M35.61 35.3104C35.61 33.6801 34.5223 32.39 33.09 31.8997V26.207C33.09 25.9008 32.9852 25.6267 32.7844 25.4289C32.584 25.2314 32.3077 25.1294 32 25.1294C31.6923 25.1294 31.416 25.2314 31.2155 25.4289C31.0148 25.6267 30.91 25.9008 30.91 26.207V31.8984C29.7994 32.2718 28.9212 33.1359 28.5412 34.2328H24.44C24.1323 34.2328 23.856 34.3349 23.6555 34.5323C23.4548 34.7301 23.35 35.0042 23.35 35.3104C23.35 35.6166 23.4548 35.8907 23.6555 36.0885C23.856 36.286 24.1323 36.388 24.44 36.388H28.533C28.9682 37.8159 30.3658 38.8708 32 38.8708C33.9825 38.8708 35.61 37.2727 35.61 35.3104ZM32 36.7156C31.2105 36.7156 30.57 36.0792 30.57 35.3104C30.57 34.5417 31.2105 33.9053 32 33.9053C32.7894 33.9053 33.43 34.5417 33.43 35.3104C33.43 36.0792 32.7894 36.7156 32 36.7156Z" fill="#996058" stroke="#996058" stroke-width="0.5"/>
<path d="M32 23.9742C32.3077 23.9742 32.584 23.8722 32.7845 23.6747C32.9852 23.4769 33.09 23.2028 33.09 22.8966V22.069C33.09 21.7628 32.9852 21.4887 32.7845 21.291C32.584 21.0935 32.3077 20.9915 32 20.9915C31.6923 20.9915 31.416 21.0935 31.2155 21.291C31.0148 21.4887 30.91 21.7628 30.91 22.069V22.8966C30.91 23.2028 31.0148 23.4769 31.2155 23.6747C31.416 23.8722 31.6923 23.9742 32 23.9742Z" fill="#996058" stroke="#996058" stroke-width="0.5"/>
<path d="M32 46.6465C31.6923 46.6465 31.416 46.7485 31.2155 46.946C31.0148 47.1438 30.91 47.4179 30.91 47.7241V48.5517C30.91 48.8579 31.0148 49.132 31.2155 49.3297C31.416 49.5272 31.6923 49.6292 32 49.6292C32.3077 49.6292 32.584 49.5272 32.7845 49.3297C32.9852 49.132 33.09 48.8579 33.09 48.5517V47.7241C33.09 47.4179 32.9852 47.1438 32.7845 46.946C32.584 46.7485 32.3077 46.6465 32 46.6465Z" fill="#996058" stroke="#996058" stroke-width="0.5"/>
<path d="M45.44 34.2327H44.6C44.2923 34.2327 44.016 34.3347 43.8156 34.5322C43.6148 34.7299 43.51 35.004 43.51 35.3103C43.51 35.6165 43.6148 35.8906 43.8156 36.0883C44.016 36.2858 44.2923 36.3878 44.6 36.3878H45.44C45.7477 36.3878 46.024 36.2858 46.2245 36.0883C46.4252 35.8906 46.53 35.6165 46.53 35.3103C46.53 35.004 46.4252 34.7299 46.2245 34.5322C46.024 34.3347 45.7477 34.2327 45.44 34.2327Z" fill="#996058" stroke="#996058" stroke-width="0.5"/>
<path d="M19.4 34.2327H18.56C18.2523 34.2327 17.976 34.3347 17.7755 34.5322C17.5748 34.7299 17.47 35.004 17.47 35.3103C17.47 35.6165 17.5748 35.8906 17.7755 36.0883C17.976 36.2858 18.2523 36.3878 18.56 36.3878H19.4C19.7077 36.3878 19.984 36.2858 20.1845 36.0883C20.3852 35.8906 20.49 35.6165 20.49 35.3103C20.49 35.004 20.3852 34.7299 20.1845 34.5322C19.984 34.3347 19.7077 34.2327 19.4 34.2327Z" fill="#996058" stroke="#996058" stroke-width="0.5"/>
</svg>
