<svg width="56" height="56" viewBox="0 0 56 56" fill="none" xmlns="http://www.w3.org/2000/svg">
<path d="M27.9315 49C27.2984 49.0016 26.6713 48.874 26.0861 48.6246C25.501 48.3751 24.9695 48.0088 24.5221 47.5466L8.035 30.5355C6.73258 29.1771 5.70518 27.5648 5.01266 25.7926C4.32013 24.0205 3.97632 22.1238 4.00127 20.2132C4.01382 18.4623 4.36103 16.7311 5.02304 15.1189C5.68504 13.5066 6.64881 12.0449 7.85916 10.8176C9.0695 9.59027 10.5026 8.62137 12.0765 7.96639C13.6503 7.31142 15.3339 6.98325 17.0309 7.00068C18.7582 6.98272 20.4714 7.32286 22.0689 8.0009C23.6665 8.67895 25.1157 9.6811 26.3308 10.9479L27.9315 12.5995L29.2441 11.2452C31.5105 8.84476 34.5433 7.37312 37.7807 7.10286C41.0181 6.83261 44.2407 7.78204 46.8517 9.7753C48.3379 10.9563 49.5633 12.4504 50.4461 14.1582C51.329 15.866 51.8491 17.7482 51.9717 19.6796C52.0944 21.611 51.8169 23.5472 51.1576 25.3593C50.4983 27.1713 49.4724 28.8177 48.1482 30.1887L31.341 47.5466C30.8936 48.0088 30.3621 48.3751 29.7769 48.6246C29.1918 48.874 28.5646 49.0016 27.9315 49ZM16.9668 10.2873C14.4226 10.2846 11.9771 11.3034 10.1479 13.128C9.21534 14.0538 8.47373 15.1644 7.9676 16.3933C7.46148 17.6222 7.20128 18.944 7.20264 20.2793C7.18861 21.748 7.45728 23.205 7.99309 24.5659C8.52889 25.9267 9.32116 27.1642 10.324 28.2068L26.8111 45.2179C26.9599 45.3727 27.1369 45.4956 27.332 45.5794C27.527 45.6633 27.7362 45.7064 27.9475 45.7064C28.1589 45.7064 28.3681 45.6633 28.5631 45.5794C28.7582 45.4956 28.9352 45.3727 29.084 45.2179L45.9072 27.8434C46.8947 26.803 47.6577 25.5588 48.146 24.1925C48.6343 22.8262 48.8369 21.3687 48.7405 19.9159C48.655 18.4482 48.2632 17.0169 47.5918 15.7199C46.9205 14.4229 45.9855 13.2909 44.8508 12.4013C42.8597 10.8866 40.4029 10.1705 37.938 10.3862C35.4732 10.6019 33.1684 11.7349 31.453 13.5739L29.068 16.1008C28.9192 16.2556 28.7422 16.3785 28.5471 16.4623C28.3521 16.5462 28.1428 16.5893 27.9315 16.5893C27.7202 16.5893 27.511 16.5462 27.3159 16.4623C27.1209 16.3785 26.9439 16.2556 26.795 16.1008L24.0739 13.2931C22.1996 11.3761 19.6699 10.2965 17.0309 10.2873H16.9668Z" fill="#996058"/>
</svg>
