<svg width="56" height="56" viewBox="0 0 56 56" fill="none" xmlns="http://www.w3.org/2000/svg">
<path fill-rule="evenodd" clip-rule="evenodd" d="M29.1568 4.66772C30.8646 4.66772 32.5248 5.34877 33.7151 6.5325C34.9029 7.72318 35.5589 9.3563 35.5088 11.0126C35.5136 11.3855 35.64 11.8164 35.869 12.194C36.2482 12.8195 36.8469 13.2596 37.5577 13.4403C38.2685 13.6117 39.0128 13.519 39.6449 13.1553C42.698 11.462 46.5836 12.4766 48.3273 15.4186L49.8133 17.9181C49.8515 17.9852 49.8848 18.0501 49.9135 18.1173C51.4925 21.0152 50.4382 24.6637 47.5043 26.3292C47.0774 26.5678 46.7315 26.9014 46.493 27.3045C46.1233 27.9276 46.0207 28.6689 46.2067 29.3499C46.3976 30.0449 46.8532 30.6217 47.4948 30.9784C48.9427 31.7869 50.0232 33.149 50.4549 34.7219C50.8867 36.2925 50.6505 37.9974 49.8085 39.4035L48.2247 41.9655C46.4811 44.875 42.5954 45.8827 39.5733 44.187C39.1702 43.9624 38.7051 43.8396 38.2423 43.828H38.228C37.5387 43.828 36.8302 44.1129 36.315 44.611C35.7926 45.1183 35.5064 45.7947 35.5112 46.5128C35.4945 49.9157 32.6441 52.6677 29.1568 52.6677H26.168C22.6641 52.6677 19.8137 49.9018 19.8137 46.4989C19.8089 46.0796 19.6849 45.6441 19.4535 45.2665C19.079 44.6318 18.4731 44.1778 17.7742 43.9971C17.0801 43.8164 16.3192 43.916 15.6943 44.2681C14.1963 45.0789 12.4336 45.2758 10.8212 44.8357C9.2111 44.3932 7.82048 43.3184 7.00472 41.8937L5.51392 39.3989C3.77028 36.4616 4.80788 32.6973 7.82764 31.0016C8.68395 30.5221 9.21587 29.6279 9.21587 28.6689C9.21587 27.7099 8.68395 26.8134 7.82764 26.3339C4.80549 24.6289 3.77028 20.8554 5.51153 17.9181L7.12875 15.3398C8.84854 12.4349 12.7365 11.411 15.7682 13.1021C16.1809 13.3407 16.6293 13.4611 17.0849 13.4658C18.5709 13.4658 19.8137 12.2751 19.8375 10.8111C19.828 9.19646 20.4839 7.64673 21.6789 6.4769C22.8787 5.30939 24.4721 4.66772 26.168 4.66772H29.1568ZM29.1568 8.14246H26.168C25.4286 8.14246 24.7369 8.42276 24.2145 8.92775C23.6945 9.43506 23.4107 10.1092 23.4154 10.8273C23.3653 14.214 20.5149 16.9405 17.0634 16.9405C15.9567 16.9289 14.8904 16.6393 13.965 16.1019C12.665 15.3838 10.9667 15.8263 10.2058 17.1119L8.59093 19.6902C7.85149 20.9364 8.30469 22.5835 9.62137 23.3271C11.5749 24.4251 12.7938 26.4728 12.7938 28.6689C12.7938 30.8649 11.5749 32.9104 9.61659 34.0107C8.30708 34.7474 7.85388 36.3851 8.61239 37.6592L10.1175 40.1795C10.4896 40.8305 11.0979 41.3007 11.8015 41.493C12.5028 41.6829 13.2756 41.6018 13.9196 41.2544C14.8666 40.7146 15.9686 40.4343 17.0754 40.4343C17.6216 40.4343 18.1678 40.5015 18.7021 40.6405C20.3146 41.0621 21.7147 42.1092 22.5448 43.5153C23.0839 44.3979 23.382 45.4287 23.3916 46.4804C23.3916 47.9861 24.6367 49.193 26.168 49.193H29.1568C30.681 49.193 31.9261 47.993 31.9333 46.5128C31.9237 44.8774 32.582 43.323 33.7866 42.1532C34.9745 40.9996 36.6346 40.3069 38.2948 40.3533C39.3825 40.3787 40.4296 40.6637 41.3527 41.1733C42.6813 41.9123 44.3772 41.4721 45.1453 40.1981L46.7291 37.6337C47.0821 37.043 47.1847 36.3017 46.9963 35.6184C46.8102 34.935 46.3427 34.342 45.713 33.9922C44.2389 33.1675 43.187 31.8378 42.7505 30.2441C42.3187 28.6805 42.5549 26.9732 43.3969 25.5671C43.9455 24.6405 44.7493 23.8598 45.713 23.3224C47.0058 22.5881 47.459 20.9457 46.7077 19.667C46.6766 19.616 46.648 19.5628 46.6242 19.5072L45.2264 17.1536C44.4655 15.868 42.7719 15.4255 41.4433 16.1598C40.0074 16.9845 38.2996 17.2208 36.6585 16.8015C35.0198 16.3892 33.6459 15.3815 32.7896 13.9592C32.241 13.0696 31.9428 12.0342 31.9333 10.9802C31.9547 10.1879 31.6685 9.47676 31.1485 8.95555C30.6309 8.43665 29.9034 8.14246 29.1568 8.14246ZM27.6729 20.8232C32.1262 20.8232 35.7495 24.3442 35.7495 28.6691C35.7495 32.994 32.1262 36.5104 27.6729 36.5104C23.2196 36.5104 19.5964 32.994 19.5964 28.6691C19.5964 24.3442 23.2196 20.8232 27.6729 20.8232ZM27.6729 24.2979C25.1922 24.2979 23.1743 26.26 23.1743 28.6691C23.1743 31.0783 25.1922 33.0357 27.6729 33.0357C30.1536 33.0357 32.1715 31.0783 32.1715 28.6691C32.1715 26.26 30.1536 24.2979 27.6729 24.2979Z" fill="#996058"/>
</svg>
