<svg width="56" height="56" viewBox="0 0 56 56" fill="none" xmlns="http://www.w3.org/2000/svg">
<path d="M19.6525 26.9L20.7787 29.6919C20.7788 29.6921 20.7789 29.6924 20.7789 29.6926C21.0401 30.3704 21.7954 30.68 22.4679 30.4213C23.1462 30.1604 23.4561 29.4048 23.1973 28.7321L23.1968 28.7309L18.3968 16.7309L18.3967 16.7305C17.955 15.6392 16.421 15.6392 15.9793 16.7305L15.9792 16.7309L11.1791 28.7309L11.1787 28.7321C10.9199 29.4048 11.2298 30.1604 11.9081 30.4213C12.5806 30.68 13.3359 30.3704 13.5971 29.6926C13.5971 29.6924 13.5972 29.6921 13.5973 29.6919L14.7235 26.9H14.7238H14.7241H14.7245H14.7249H14.7253H14.7256H14.726H14.7264H14.7268H14.7271H14.7275H14.7279H14.7282H14.7286H14.729H14.7294H14.7297H14.7301H14.7305H14.7308H14.7312H14.7316H14.7319H14.7323H14.7327H14.733H14.7334H14.7338H14.7341H14.7345H14.7349H14.7352H14.7356H14.736H14.7363H14.7367H14.7371H14.7374H14.7378H14.7381H14.7385H14.7389H14.7392H14.7396H14.7399H14.7403H14.7407H14.741H14.7414H14.7417H14.7421H14.7425H14.7428H14.7432H14.7435H14.7439H14.7442H14.7446H14.7449H14.7453H14.7456H14.746H14.7464H14.7467H14.7471H14.7474H14.7478H14.7481H14.7484H14.7488H14.7491H14.7495H14.7498H14.7502H14.7505H14.7509H14.7512H14.7515H14.7519H14.7522H14.7526H14.7529H14.7533H14.7536H14.7539H14.7543H14.7546H14.7549H14.7553H14.7556H14.7559H14.7563H14.7566H14.7569H14.7573H14.7576H14.7579H14.7583H14.7586H14.7589H14.7592H14.7596H14.7599H14.7602H14.7605H14.7608H14.7612H14.7615H14.7618H14.7621H14.7624H14.7628H14.7631H14.7634H14.7637H14.764H14.7643H14.7646H14.7649H14.7653H14.7656H14.7659H14.7662H14.7665H14.7668H14.7671H14.7674H14.7677H14.768H14.7683H14.7686H14.7689H14.7692H14.7695H14.7698H14.7701H14.7704H14.7707H14.771H14.7712H14.7715H14.7718H14.7721H14.7724H14.7727H14.773H14.7732H14.7735H14.7738H14.7741H14.7744H14.7746H14.7749H14.7752H14.7755H14.7757H14.776H14.7763H14.7765H14.7768H14.7771H14.7773H14.7776H14.7779H14.7781H14.7784H14.7786H14.7789H14.7792H14.7794H14.7797H14.7799H14.7802H14.7804H14.7807H14.7809H14.7812H14.7814H14.7817H14.7819H14.7821H14.7824H14.7826H14.7829H14.7831H14.7833H14.7836H14.7838H14.784H14.7842H14.7845H14.7847H14.7849H14.7852H14.7854H14.7856H14.7858H14.786H14.7863H14.7865H14.7867H14.7869H14.7871H14.7873H14.7875H14.7877H14.7879H14.7881H14.7883H14.7885H14.7887H14.7889H14.7891H14.7893H14.7895H14.7897H14.7899H14.7901H14.7903H14.7905H14.7906H14.7908H14.791H14.7912H14.7914H14.7915H14.7917H14.7919H14.7921H14.7922H14.7924H14.7926H14.7927H14.7929H14.793H14.7932H14.7934H14.7935H14.7937H14.7938H14.794H14.7941H14.7943H14.7944H14.7946H14.7947H14.7948H14.795H14.7951H14.7953H14.7954H14.7955H14.7957H14.7958H14.7959H14.796H14.7962H14.7963H14.7964H14.7965H14.7966H14.7967H14.7969H14.797H14.7971H14.7972H14.7973H14.7974H14.7975H14.7976H14.7977H14.7978H14.7979H14.798H14.7981H14.7981H14.7982H14.7983H14.7984H14.7985H14.7985H14.7986H14.7987H14.7988H14.7988H14.7989H14.799H14.799H14.7991H14.7992H14.7992H14.7993H14.7993H14.7994H14.7994H14.7995H14.7995H14.7996H14.7996H14.7997H14.7997H14.7997H14.7998H14.7998H14.7998H14.7998H14.7999H14.7999H14.7999H14.7999H14.7999H14.8H14.8H19.6H19.6003H19.6006H19.6008H19.6011H19.6014H19.6017H19.602H19.6023H19.6026H19.6029H19.6032H19.6035H19.6037H19.604H19.6043H19.6046H19.6049H19.6052H19.6055H19.6058H19.6061H19.6064H19.6067H19.6071H19.6074H19.6077H19.608H19.6083H19.6086H19.6089H19.6092H19.6095H19.6098H19.6102H19.6105H19.6108H19.6111H19.6114H19.6117H19.6121H19.6124H19.6127H19.613H19.6133H19.6137H19.614H19.6143H19.6146H19.615H19.6153H19.6156H19.616H19.6163H19.6166H19.617H19.6173H19.6176H19.618H19.6183H19.6186H19.619H19.6193H19.6196H19.62H19.6203H19.6206H19.621H19.6213H19.6217H19.622H19.6224H19.6227H19.623H19.6234H19.6237H19.6241H19.6244H19.6248H19.6251H19.6255H19.6258H19.6262H19.6265H19.6269H19.6272H19.6276H19.6279H19.6283H19.6286H19.629H19.6293H19.6297H19.63H19.6304H19.6308H19.6311H19.6315H19.6318H19.6322H19.6325H19.6329H19.6333H19.6336H19.634H19.6343H19.6347H19.6351H19.6354H19.6358H19.6362H19.6365H19.6369H19.6372H19.6376H19.638H19.6383H19.6387H19.6391H19.6394H19.6398H19.6402H19.6405H19.6409H19.6413H19.6416H19.642H19.6424H19.6427H19.6431H19.6435H19.6439H19.6442H19.6446H19.645H19.6453H19.6457H19.6461H19.6465H19.6468H19.6472H19.6476H19.6479H19.6483H19.6487H19.6491H19.6494H19.6498H19.6502H19.6506H19.6509H19.6513H19.6517H19.652H19.6524H19.6525ZM32.7 36.4C32.7 37.1272 33.2728 37.7 34 37.7H40C42.6952 37.7 44.9 35.4952 44.9 32.8C44.9 30.7139 43.586 28.9095 41.7381 28.2134C42.232 27.4514 42.5 26.5586 42.5 25.6C42.5 22.9048 40.2952 20.7 37.6 20.7H34C33.2728 20.7 32.7 21.2728 32.7 22V36.4ZM40 35.1H35.3V30.5H40C41.2648 30.5 42.3 31.5352 42.3 32.8C42.3 34.0648 41.2648 35.1 40 35.1ZM37.6 27.9H35.3V23.3H37.6C38.8648 23.3 39.9 24.3352 39.9 25.6C39.9 26.8648 38.8648 27.9 37.6 27.9ZM46 8.7H30.3613C29.7692 5.95814 27.324 3.9 24.4 3.9H10C6.63277 3.9 3.9 6.63277 3.9 10V41.2C3.9 44.5672 6.63277 47.3 10 47.3H24.4C24.8254 47.3 25.2311 47.2589 25.6169 47.1763C26.1698 49.9801 28.6345 52.1 31.6 52.1H46C49.3672 52.1 52.1 49.3672 52.1 46V14.8C52.1 11.4328 49.3672 8.7 46 8.7ZM30.5 41.2V11.3H46C47.9368 11.3 49.5 12.8632 49.5 14.8V46C49.5 47.9368 47.9368 49.5 46 49.5H31.6C29.6797 49.5 28.1266 47.9632 28.1003 46.0493C29.5652 44.9261 30.5 43.1828 30.5 41.2ZM15.7637 24.3L17.2 20.7093L18.6363 24.3H15.7637ZM10 6.5H24.4C26.3368 6.5 27.9 8.06323 27.9 10V41.2C27.9 43.1368 26.3368 44.7 24.4 44.7H10C8.06323 44.7 6.5 43.1368 6.5 41.2V10C6.5 8.06323 8.06323 6.5 10 6.5ZM13.5 11.2C13.5 11.9272 14.0728 12.5 14.8 12.5H19.6C20.3272 12.5 20.9 11.9272 20.9 11.2C20.9 10.4728 20.3272 9.9 19.6 9.9H14.8C14.0728 9.9 13.5 10.4728 13.5 11.2ZM33.9 14.8C33.9 15.5272 34.4728 16.1 35.2 16.1H40C40.7272 16.1 41.3 15.5272 41.3 14.8C41.3 14.0728 40.7272 13.5 40 13.5H35.2C34.4728 13.5 33.9 14.0728 33.9 14.8Z" fill="#996058" stroke="#996058" stroke-width="0.2"/>
</svg>
