<svg width="56" height="56" viewBox="0 0 56 56" fill="none" xmlns="http://www.w3.org/2000/svg">
<path d="M41.7502 23.1959C41.7574 19.0079 40.3447 14.941 37.7425 11.6583C35.1403 8.3755 31.502 6.0705 27.4208 5.11905C23.3397 4.16761 19.0563 4.62585 15.2692 6.41906C11.482 8.21227 8.41443 11.2347 6.56654 14.9935C4.71865 18.7524 4.19946 23.0259 5.09361 27.1175C5.98776 31.209 8.24251 34.8772 11.4903 37.5239C14.738 40.1706 18.7872 41.6398 22.9776 41.692C27.168 41.7441 31.2526 40.3761 34.5652 37.811L49.3986 52.6345L52.6666 49.3687L37.8332 34.5452C40.363 31.3013 41.741 27.3085 41.7502 23.1959ZM23.2084 37.093C20.458 37.093 17.7693 36.2779 15.4824 34.7509C13.1956 33.2238 11.4132 31.0534 10.3606 28.5141C9.30808 25.9747 9.03269 23.1805 9.56927 20.4847C10.1058 17.7889 11.4303 15.3127 13.3751 13.3692C15.32 11.4256 17.7978 10.1021 20.4954 9.56583C23.193 9.02961 25.9891 9.30482 28.5301 10.3567C31.0712 11.4085 33.243 13.1897 34.7711 15.4751C36.2991 17.7604 37.1147 20.4473 37.1147 23.1959C37.1147 26.8816 35.6496 30.4164 33.0416 33.0226C30.4337 35.6288 26.8966 37.093 23.2084 37.093Z" fill="#996058"/>
</svg>
