<svg width="56" height="56" viewBox="0 0 56 56" fill="none" xmlns="http://www.w3.org/2000/svg">
<path d="M20.9188 40.6835L20.9185 40.6855C20.7859 41.5019 21.117 42.3204 21.7815 42.8081C22.163 43.0987 22.6098 43.2305 23.0704 43.2305C23.4284 43.2305 23.7591 43.1406 24.0794 42.9914L24.0795 42.9916L24.0897 42.9863L28.0196 40.9293L31.9478 42.9854C32.6828 43.3847 33.5698 43.3153 34.2525 42.8315C34.9396 42.3447 35.2748 41.5229 35.12 40.701L34.3765 36.3424L37.5415 33.2587C37.5417 33.2585 37.542 33.2583 37.5422 33.258C38.1404 32.6824 38.363 31.8175 38.0964 31.0189C37.8324 30.2283 37.1683 29.6487 36.3422 29.5368C36.3418 29.5367 36.3415 29.5367 36.3411 29.5366L31.956 28.9085L29.9915 24.9478L29.9911 24.947C29.6154 24.1968 28.8618 23.7305 28.0393 23.7305C27.2005 23.7305 26.4433 24.194 26.0859 24.95L24.1225 28.9085L19.7364 29.5368C18.9156 29.6479 18.2268 30.2235 17.9812 31.0219C17.7161 31.8196 17.9388 32.683 18.5361 33.2579C18.5364 33.2581 18.5367 33.2584 18.537 33.2587L21.6628 36.3223L20.9188 40.6835ZM23.8524 34.9963L20.57 31.8426L25.0674 31.2087C25.4725 31.1573 25.8142 30.8836 25.9846 30.5434L25.9846 30.5434L25.9857 30.5411L27.9813 26.4506L29.994 30.5397C30.1682 30.9104 30.5159 31.1584 30.9129 31.2087L35.4156 31.8433L32.1685 35.0146C31.8662 35.2934 31.7468 35.7143 31.8195 36.1038C31.8196 36.1042 31.8197 36.1046 31.8197 36.105L32.6142 40.5818L28.5714 38.4668C28.2215 38.2693 27.7779 38.2693 27.4282 38.467L23.4229 40.5809L24.1999 36.0854C24.2 36.0848 24.2001 36.0842 24.2002 36.0835C24.2747 35.683 24.1253 35.2686 23.8558 34.9996L23.8559 34.9996L23.8524 34.9963Z" fill="#996058" stroke="#996058" stroke-width="0.5"/>
<path d="M49.786 46.9216V47.1075C49.7002 47.5077 49.3433 47.8088 48.9165 47.8088H7.08347C6.59268 47.8088 6.19435 47.4106 6.19435 46.9216V19.1127H49.786V46.9216ZM48.9165 9.67157H43.6673V6.98039C43.6673 6.31578 43.1262 5.75 42.4354 5.75C41.7477 5.75 41.2034 6.29292 41.2034 6.98039V9.67157H14.7966V6.98039C14.7966 6.31578 14.2555 5.75 13.5646 5.75C12.8999 5.75 12.3327 6.28968 12.3327 6.98039V9.67157H7.08347C5.23711 9.67157 3.75 11.1557 3.75 13V17.8824V46.9216C3.75 48.7659 5.23711 50.25 7.08347 50.25H48.9165C50.7629 50.25 52.25 48.7659 52.25 46.9216V17.8824V13C52.25 11.1546 50.7422 9.67157 48.9165 9.67157ZM49.8056 16.6716H6.19435V13C6.19435 12.511 6.59268 12.1127 7.08347 12.1127H48.9165C49.4073 12.1127 49.8056 12.511 49.8056 13V16.6716Z" fill="#996058" stroke="#996058" stroke-width="0.5"/>
</svg>
