<svg width="56" height="56" viewBox="0 0 56 56" fill="none" xmlns="http://www.w3.org/2000/svg">
<g clip-path="url(#clip0_643_253)">
<path d="M34.022 41.27V42.5983C34.022 43.0148 33.7157 43.3594 33.3385 43.3594H31.4428C31.0752 43.3451 30.7786 43.0148 30.7786 42.5983V41.27C30.7786 40.8284 31.101 40.4694 31.4976 40.4694H33.2418C33.6255 40.4909 33.9253 40.8392 33.9253 41.27H34.022ZM36.1822 29.4046C35.3342 28.6435 34.2413 28.184 33.0548 28.1804H32.468C31.3396 28.1804 30.2918 28.5861 29.4374 29.2682L29.4535 29.2538C28.7152 29.8857 28.2445 30.8694 28.2413 31.9751C28.2413 32.2552 28.4444 32.4813 28.6959 32.4813H30.6851C30.6883 32.4813 30.6916 32.4813 30.698 32.4813C31.014 32.4813 31.2751 32.2552 31.3654 31.9356V31.9321C31.4299 31.67 31.5556 31.4474 31.7265 31.2786C31.9909 31.0058 32.352 30.8371 32.7421 30.8371C32.7453 30.8371 32.7453 30.8371 32.7485 30.8371H32.9387C33.7351 30.8371 34.3799 31.5551 34.3799 32.4418C34.3831 32.4885 34.3864 32.5388 34.3864 32.589C34.3864 32.6393 34.3831 32.6896 34.3799 32.7398V32.7362V32.8224C34.3767 33.325 34.2445 33.7881 34.0156 34.1831L34.0188 34.1759C33.7577 34.5887 33.4417 34.9406 33.0838 35.2242L33.0709 35.2314C32.4326 35.6801 31.8909 36.2223 31.4524 36.8613L31.4396 36.8792C31.1591 37.3065 30.9817 37.8378 30.9656 38.4158V38.4194C30.9624 38.4409 30.9624 38.4625 30.9624 38.484C30.9624 38.7641 31.1655 38.9902 31.417 38.9902C31.4331 38.9902 31.446 38.9902 31.4589 38.9866H33.619C33.8769 38.9687 34.0865 38.7605 34.1316 38.484C34.1703 38.1466 34.2445 37.8342 34.3477 37.547L34.3412 37.5721C34.5282 37.1736 34.799 36.8541 35.1311 36.6279L35.1376 36.6243C35.834 36.2187 36.4175 35.6622 36.8753 34.9908L36.8818 34.9765C37.3203 34.3374 37.5911 33.5332 37.6008 32.6573C37.5234 31.354 37.0011 30.1908 36.2015 29.3651L36.1983 29.3615L36.1822 29.4046ZM3.57711 32.826C3.07415 33.2101 2.74207 33.8528 2.74207 34.5744C2.73563 34.6462 2.72595 34.7323 2.72595 34.8185C2.72595 34.9047 2.72918 34.9872 2.74207 35.0734V35.0662C2.92907 35.9099 3.54809 36.5525 4.32187 36.671H4.33477C4.74422 36.7392 5.21816 36.7751 5.69533 36.7751H6.05965C6.06609 36.7751 6.07899 36.7751 6.08544 36.7751C7.67813 36.7751 9.187 36.3766 10.5347 35.6694L10.4702 35.6981C11.1988 36.1325 12.05 36.5346 12.943 36.8469L13.0494 36.8792H13.1623V36.0571C13.1655 35.1165 13.2429 34.1938 13.3815 33.2999L13.3686 33.3968V33.5009C12.4852 33.1312 11.7437 32.7362 11.0279 32.2947L11.1118 32.3413L10.3154 31.8567L9.59645 32.3413C8.88393 32.826 8.04568 33.1778 7.15261 33.3286L7.11392 33.3322C7.52015 32.7255 7.86513 32.029 8.11983 31.2822L8.13917 31.2248L8.42289 30.2734L7.83611 29.5554C5.9597 27.4085 4.79903 24.4754 4.78291 21.2442C4.78291 13.8773 11.0763 7.83871 18.7335 7.83871C18.8689 7.83512 19.0333 7.83153 19.1945 7.83153C24.5981 7.83153 29.2859 11.2206 31.6459 16.2001L31.6846 16.2863C32.065 16.2863 32.4809 16.2863 32.9162 16.2863H33.1806C33.7319 16.2863 34.28 16.2863 34.8667 16.2863C32.3197 9.34656 26.3036 4.54297 19.2783 4.54297C19.1204 4.54297 18.9624 4.54656 18.8076 4.55015H18.8302C9.5223 4.55015 1.9425 12.0427 1.9425 21.2478C1.9425 21.255 1.9425 21.2694 1.9425 21.2801C1.9425 24.9744 3.13219 28.3563 5.10854 30.9807L5.0892 30.9555C4.71521 31.7274 4.18646 32.3629 3.55454 32.8224L3.5352 32.8368L3.57711 32.826ZM49.9425 35.7807C49.9135 39.5539 48.6851 43.0004 46.6636 45.6858L46.683 45.6607C47.0537 46.4326 47.5728 47.0608 48.2047 47.5276L48.2209 47.5419C48.7206 47.9225 49.0527 48.5543 49.0559 49.2724C49.0623 49.3442 49.072 49.4267 49.072 49.5129C49.072 49.5991 49.0688 49.6816 49.0559 49.7678V49.7606C48.8689 50.6043 48.2499 51.2469 47.4761 51.3654H47.4632C47.0537 51.4336 46.5798 51.4695 46.0994 51.4695H45.777C45.7641 51.4695 45.7544 51.4695 45.7415 51.4695C44.1005 51.4695 42.5497 51.0459 41.1666 50.2991L41.2278 50.3279C38.784 51.7244 35.8952 52.543 32.8291 52.543C32.8098 52.543 32.7872 52.543 32.7679 52.543C23.2891 52.543 15.7125 44.9427 15.7125 35.6586C15.7125 26.3745 23.4277 18.7742 32.7711 18.7742C42.1145 18.7742 49.8297 26.353 49.8297 35.6586L49.9425 35.7807ZM47.0054 35.7807C47.0054 28.2881 40.6733 22.1884 32.8646 22.1884C25.0559 22.1884 18.7238 28.2881 18.7238 35.7807C18.7238 43.2733 25.0559 49.3513 32.8646 49.3513C32.8872 49.3513 32.9097 49.3513 32.9355 49.3513C35.7792 49.3513 38.4487 48.5148 40.7474 47.0465L40.6701 47.0932L41.389 46.5869L42.108 47.0932C42.856 47.5778 43.7297 47.9297 44.6679 48.0804L44.7066 48.084C44.2972 47.4773 43.9522 46.7808 43.7007 46.0341L43.6814 45.9766L43.3783 45.0468L43.9844 44.3288C45.8318 42.1172 46.9764 39.1518 47.0183 35.8955V35.8884L47.0054 35.7807Z" fill="#996058"/>
</g>
<defs>
<clipPath id="clip0_643_253">
<rect width="56" height="56" fill="white"/>
</clipPath>
</defs>
</svg>
