<svg width="56" height="56" viewBox="0 0 56 56" fill="none" xmlns="http://www.w3.org/2000/svg">
<g clip-path="url(#clip0_295_827)">
<path d="M23.9953 5.68674L23.9953 5.6867C24.1266 3.6845 25.9378 2.09179 28.1477 2.09179C30.3575 2.09179 32.1687 3.6845 32.3 5.6867L32.3 5.68675C32.3394 6.28524 32.87 6.72852 33.4825 6.72852H40.2807V8.08841V9.90839V11.8751H16.0147V9.90839V8.08841V6.72852H22.8128C23.4253 6.72852 23.956 6.28524 23.9953 5.68674ZM47.1628 7.88841H42.6502V5.61853C42.6502 4.99089 42.1046 4.50856 41.4654 4.50856H34.4979C33.805 1.82904 31.1977 -0.128223 28.1477 -0.128223C25.0975 -0.128223 22.4903 1.82905 21.7974 4.50853H14.8299C14.1907 4.50853 13.6451 4.99086 13.6451 5.6185V7.88838H9.13233C8.49315 7.88838 7.94758 8.37075 7.94758 8.99837V51.1618C7.94758 51.7894 8.49315 52.2718 9.13233 52.2718H47.1628C47.802 52.2718 48.3476 51.7894 48.3476 51.1618V8.9984C48.3476 8.37077 47.802 7.88841 47.1628 7.88841ZM45.9781 50.0518H10.3171V10.1084H13.6451V12.9851C13.6451 13.6128 14.1907 14.0951 14.8299 14.0951H41.4654C42.1046 14.0951 42.6502 13.6127 42.6502 12.9851V10.1084H45.9781V50.0518Z" fill="#996058" stroke="#996058" stroke-width="0.4"/>
<path d="M20.6035 19.6697L20.6035 19.6698L16.6877 23.2885L15.0117 21.7397L15.0117 21.7396C14.5504 21.3136 13.8088 21.3136 13.3475 21.7396L13.3475 21.7397C12.8773 22.1743 12.8773 22.8858 13.3475 23.3205L13.3475 23.3205L15.8555 25.6382L15.8556 25.6382C16.0878 25.8527 16.3895 25.9578 16.6877 25.9578C16.9859 25.9578 17.2875 25.8527 17.5198 25.6382L17.5198 25.6382L22.2678 21.2507L22.2678 21.2506C22.738 20.816 22.738 20.1045 22.2678 19.6699L22.2677 19.6698C21.8064 19.2438 21.0649 19.2438 20.6035 19.6697Z" fill="#996058" stroke="#996058" stroke-width="0.4"/>
<path d="M25.7968 21.5437C25.1575 21.5437 24.612 22.026 24.612 22.6536C24.612 23.2813 25.1576 23.7636 25.7968 23.7636H42.1157C42.7549 23.7636 43.3004 23.2813 43.3004 22.6536C43.3004 22.026 42.7549 21.5437 42.1157 21.5437H25.7968Z" fill="#996058" stroke="#996058" stroke-width="0.4"/>
<path d="M20.6035 29.9779L20.6035 29.9779L16.6877 33.5966L15.0117 32.0478L15.0117 32.0477C14.5504 31.6217 13.8088 31.6217 13.3475 32.0477L13.3475 32.0478C12.8773 32.4824 12.8773 33.1939 13.3475 33.6286L13.3475 33.6286L15.8555 35.9463L15.8556 35.9463C16.0878 36.1608 16.3895 36.2658 16.6877 36.2658C16.9859 36.2658 17.2875 36.1608 17.5198 35.9463L17.5198 35.9463L22.2678 31.5588L22.2678 31.5588C22.738 31.1241 22.738 30.4127 22.2678 29.978L22.2677 29.9779C21.8064 29.5519 21.0648 29.5519 20.6035 29.9779Z" fill="#996058" stroke="#996058" stroke-width="0.4"/>
<path d="M42.1157 31.8518H25.7968C25.1575 31.8518 24.612 32.3341 24.612 32.9618C24.612 33.5894 25.1576 34.0718 25.7968 34.0718H42.1157C42.7549 34.0718 43.3004 33.5894 43.3004 32.9618C43.3004 32.3341 42.7549 31.8518 42.1157 31.8518Z" fill="#996058" stroke="#996058" stroke-width="0.4"/>
<path d="M20.6035 40.2855L20.6035 40.2855L16.6877 43.9042L15.0117 42.3554L15.0117 42.3553C14.5504 41.9293 13.8088 41.9293 13.3475 42.3553L13.3475 42.3554C12.8773 42.79 12.8773 43.5015 13.3475 43.9362L13.3475 43.9362L15.8555 46.2539L15.8556 46.2539C16.0878 46.4684 16.3895 46.5734 16.6877 46.5734C16.9859 46.5734 17.2875 46.4684 17.5198 46.2539L17.5198 46.2539L22.2678 41.8664L22.2678 41.8663C22.738 41.4317 22.738 40.7202 22.2678 40.2855L22.2677 40.2855C21.8064 39.8595 21.0649 39.8595 20.6035 40.2855Z" fill="#996058" stroke="#996058" stroke-width="0.4"/>
<path d="M42.1157 42.1599H25.7968C25.1575 42.1599 24.612 42.6422 24.612 43.2699C24.612 43.8975 25.1576 44.3798 25.7968 44.3798H42.1157C42.7549 44.3798 43.3004 43.8975 43.3004 43.2699C43.3004 42.6422 42.7549 42.1599 42.1157 42.1599Z" fill="#996058" stroke="#996058" stroke-width="0.4"/>
</g>
<defs>
<clipPath id="clip0_295_827">
<rect width="56" height="56" fill="white"/>
</clipPath>
</defs>
</svg>
