<svg width="25" height="19" viewBox="0 0 25 19" fill="none" xmlns="http://www.w3.org/2000/svg">
<path d="M21.875 0H3.125C1.39922 0 0 1.41788 0 3.16667V15.8333C0 17.5821 1.39922 19 3.125 19H21.875C23.6008 19 25 17.5821 25 15.8333V3.16667C25 1.41788 23.6008 0 21.875 0ZM22.6563 1.58333L12.5 9.5L2.34375 1.58333H22.6563ZM1.5625 15.8333V3.16667L8.59375 8.70833L1.63672 16.2909C1.59297 16.1452 1.5625 15.9941 1.5625 15.8333ZM2.77733 17.3747L9.8281 9.76203L12.5 11.8077L15.057 9.74857L22.2227 17.3739C22.1102 17.4001 2.88983 17.4001 2.77733 17.3747ZM23.3633 16.2917L16.4063 8.70833L23.4375 3.16667V15.8333C23.4375 15.9941 23.407 16.1452 23.3633 16.2917Z" fill="#996058"/>
</svg>
