<svg width="26" height="19" viewBox="0 0 26 19" fill="none" xmlns="http://www.w3.org/2000/svg">
<path d="M19.5455 7.52494C20.2271 7.52494 20.7864 6.98579 20.7864 6.31244C20.7864 5.6391 20.2271 5.09995 19.5455 5.09995C18.8639 5.09995 18.3046 5.6391 18.3046 6.31244C18.3046 6.98579 18.8639 7.52494 19.5455 7.52494Z" fill="#996058" stroke="#996058" stroke-width="0.3"/>
<path d="M7.30326 2.74369C7.50116 2.74369 7.69545 2.59988 7.69545 2.38121V1.74371C7.69545 1.52651 7.50166 1.38123 7.30326 1.38123H5.6058C5.40793 1.38123 5.21365 1.52505 5.21365 1.74371V2.38121C5.21365 2.5984 5.40743 2.74369 5.6058 2.74369H7.30326Z" fill="#996058" stroke="#996058" stroke-width="0.3"/>
<path d="M13.5455 14.9624C16.3354 14.9624 18.6045 12.758 18.6045 10.0312C18.6045 7.30431 16.3354 5.09992 13.5455 5.09992C10.7555 5.09992 8.48635 7.30431 8.48635 10.0312C8.48635 12.758 10.7555 14.9624 13.5455 14.9624ZM13.5455 6.46244C15.5751 6.46244 17.2136 8.06392 17.2136 10.0312C17.2136 11.9984 15.5751 13.5999 13.5455 13.5999C11.5158 13.5999 9.87725 11.9984 9.87725 10.0312C9.87725 8.06393 11.5158 6.46244 13.5455 6.46244Z" fill="#996058" stroke="#996058" stroke-width="0.3"/>
<path d="M3.1818 18C3.1818 18.15 3.18172 18.15 3.18164 18.15H3.18142L3.18083 18.15L3.17906 18.15L3.17319 18.1499L3.15243 18.1494C3.13473 18.1488 3.10944 18.1477 3.07764 18.1455C3.0141 18.1411 2.92427 18.1323 2.81686 18.1149C2.60276 18.0801 2.31493 18.0103 2.02523 17.8692C1.73502 17.7279 1.43968 17.5134 1.21713 17.1882C0.993797 16.862 0.85 16.4333 0.85 15.875V5.24996C0.85 4.69163 0.993797 4.26299 1.21713 3.93671C1.43968 3.61157 1.73502 3.39704 2.02523 3.25572C2.31493 3.11464 2.60277 3.04485 2.81687 3.0101C2.92428 2.99267 3.01411 2.9839 3.07765 2.97948C3.10945 2.97727 3.13474 2.97614 3.15245 2.97557L3.17323 2.97506L3.17915 2.97499L3.181 2.97498L3.18175 2.97498L3.1818 2.97498H8.33441L9.44882 1.16705L3.1818 18ZM3.1818 18V18.15H22.8182V18M3.1818 18H22.8182M22.8182 18C22.8182 18.15 22.8182 18.15 22.8183 18.15H22.8185L22.8191 18.15L22.8209 18.15L22.8268 18.1499L22.8475 18.1494C22.8652 18.1488 22.8905 18.1477 22.9223 18.1455C22.9859 18.1411 23.0757 18.1323 23.1831 18.1149C23.3972 18.0801 23.685 18.0103 23.9748 17.8692C24.265 17.7279 24.5603 17.5134 24.7829 17.1882C25.0062 16.862 25.15 16.4333 25.15 15.875V5.24996C25.15 4.69164 25.0062 4.263 24.7829 3.93673C24.5603 3.6116 24.265 3.39707 23.9748 3.25574C23.685 3.11466 23.3972 3.04488 23.1831 3.01012C23.0757 2.99269 22.9859 2.98391 22.9223 2.97949C22.8905 2.97728 22.8652 2.97615 22.8475 2.97558L22.8268 2.97506L22.8209 2.97499L22.8191 2.97498L22.8185 2.97498L22.8183 2.97498C22.8182 2.97498 22.8182 2.97498 22.8182 3.12498M22.8182 18V3.12498M22.8182 3.12498V2.97498H18.7565M22.8182 3.12498L18.7565 2.97498M18.7565 2.97498L17.6422 1.16737C17.6421 1.16719 17.642 1.16702 17.6419 1.16685C17.5833 1.07095 17.4901 0.99351 17.3942 0.940463C17.2981 0.88729 17.1837 0.85 17.0735 0.85H10.0175C9.90483 0.85 9.78958 0.888806 9.69385 0.942488C9.59839 0.996025 9.50637 1.07333 9.44901 1.16673L18.7565 2.97498ZM9.24047 4.33747H9.15345H3.19413L3.19404 4.33747H3.19394L3.19301 4.33749L3.18632 4.33766C3.17998 4.33786 3.16999 4.3383 3.1569 4.33922C3.13065 4.34106 3.0922 4.3448 3.04567 4.35241C2.9519 4.36773 2.82922 4.39811 2.70839 4.45735C2.58809 4.51634 2.47278 4.60233 2.38728 4.72811C2.30252 4.8528 2.2409 5.02554 2.2409 5.2691V15.8547C2.2409 16.0986 2.30253 16.2716 2.38732 16.3964C2.47284 16.5224 2.58816 16.6084 2.70845 16.6675C2.82926 16.7268 2.95193 16.7572 3.0457 16.7725C3.09222 16.7801 3.13066 16.7839 3.15691 16.7857C3.17 16.7866 3.17998 16.7871 3.18632 16.7873L3.19302 16.7875L3.1938 16.7875H3.19404L9.24047 4.33747ZM9.24047 4.33747L9.28366 4.26194L10.4557 2.21245H16.5361L17.8739 4.26926L17.9182 4.33747H17.9996H22.8058L22.8059 4.33747H22.806L22.8062 4.33747M9.24047 4.33747H22.8062M22.8062 4.33747L22.8069 4.33749L22.8136 4.33766C22.82 4.33786 22.83 4.3383 22.8431 4.33922C22.8693 4.34106 22.9078 4.3448 22.9543 4.35241C23.0481 4.36773 23.1707 4.39811 23.2916 4.45735C23.4119 4.51634 23.5272 4.60233 23.6127 4.72811C23.6974 4.8528 23.7591 5.02554 23.7591 5.2691V15.8547C23.7591 16.0986 23.6974 16.2716 23.6126 16.3964C23.5271 16.5224 23.4118 16.6084 23.2915 16.6675C23.1707 16.7268 23.048 16.7572 22.9543 16.7725C22.9077 16.7801 22.8693 16.7839 22.8431 16.7857C22.83 16.7866 22.82 16.7871 22.8136 16.7873L22.8069 16.7875L22.8062 16.7875V4.33747Z" fill="#996058" stroke="#996058" stroke-width="0.3"/>
</svg>
