<svg width="25" height="20" viewBox="0 0 25 20" fill="none" xmlns="http://www.w3.org/2000/svg">
<path d="M21.875 0H3.125C1.39922 0 0 1.44276 0 3.22222V16.1111C0 17.8906 1.39922 19.3333 3.125 19.3333H21.875C23.6008 19.3333 25 17.8906 25 16.1111V3.22222C25 1.44276 23.6008 0 21.875 0ZM22.6562 1.61111L12.5 9.66667L2.34375 1.61111H22.6562ZM1.5625 16.1111V3.22222L8.59375 8.86111L1.63672 16.5768C1.59297 16.4285 1.5625 16.2747 1.5625 16.1111ZM2.77733 17.6795L9.8281 9.93329L12.5 12.0148L15.057 9.9196L22.2227 17.6787C22.1102 17.7053 2.88983 17.7053 2.77733 17.6795ZM23.3633 16.5775L16.4062 8.86111L23.4375 3.22222V16.1111C23.4375 16.2747 23.407 16.4285 23.3633 16.5775Z" fill="#996058"/>
</svg>
