<?xml version="1.0" encoding="UTF-8"?>
<svg id="Layer_1" data-name="Layer 1" xmlns="http://www.w3.org/2000/svg" viewBox="0 0 24.6 20.6">
  <defs>
    <style>
      .cls-1 {
        fill-rule: evenodd;
      }

      .cls-1, .cls-2 {
        fill: #996058;
      }
    </style>
  </defs>
  <path class="cls-2" d="m.6,8.63c0-2.25,1.34-4.26,3.46-5.71l-.34-.5C1.49,3.95,0,6.13,0,8.63h.6Zm2.83,5.24c-1.75-1.4-2.83-3.23-2.83-5.24h-.6c0,2.25,1.2,4.24,3.06,5.71l.37-.47Zm6.53,2.63c-2.58-.36-4.87-1.3-6.53-2.63l-.37.47c1.76,1.4,4.15,2.38,6.82,2.75l.08-.59Zm-.19,3.13c.46-.9.61-1.91.45-2.88l-.59.1c.14.84.01,1.72-.39,2.5l.53.27Zm.06.3c-.09-.08-.11-.2-.06-.3l-.53-.27c-.18.35-.09.77.2,1.03l.39-.46Zm.34.02c-.1.07-.24.06-.34-.02l-.39.46c.3.25.73.28,1.05.07l-.33-.5Zm1.91-1.24l-1.91,1.24.33.5,1.91-1.24-.33-.5Zm2.05-2.04c-.53.81-1.23,1.5-2.05,2.04l.33.5c.89-.58,1.65-1.33,2.23-2.21l-.5-.33Zm6.98-2.76c-1.72,1.35-4.09,2.3-6.77,2.63l.07.6c2.77-.34,5.24-1.32,7.06-2.75l-.37-.47Zm2.88-5.29c0,2.04-1.1,3.88-2.88,5.29l.37.47c1.89-1.48,3.11-3.49,3.11-5.76h-.6Zm-3.46-5.71c2.12,1.44,3.46,3.46,3.46,5.71h.6c0-2.51-1.49-4.69-3.72-6.2l-.34.5ZM12.3.6c3.21,0,6.12.88,8.24,2.33l.34-.5C18.65.91,15.61,0,12.3,0v.6ZM4.06,2.93C6.18,1.48,9.09.6,12.3.6v-.6c-3.31,0-6.35.91-8.58,2.43l.34.5Zm8.24-1.82c-3.11,0-5.91.86-7.92,2.23l.34.5c1.91-1.3,4.58-2.13,7.58-2.13v-.6Zm7.92,2.23c-2.02-1.37-4.82-2.23-7.92-2.23v.6c3,0,5.68.83,7.58,2.13l.34-.5Zm3.23,5.29c0-2.05-1.22-3.92-3.23-5.29l-.34.5c1.91,1.3,2.97,3.01,2.97,4.8h.6Zm-2.69,4.89c1.69-1.33,2.69-3.04,2.69-4.89h-.6c0,1.62-.87,3.17-2.46,4.42l.37.47Zm-6.75,2.54c2.7-.28,5.07-1.21,6.75-2.54l-.37-.47c-1.59,1.25-3.84,2.14-6.45,2.42l.06.6Zm-.21.13c.04-.07.12-.12.21-.13l-.06-.6c-.27.03-.52.18-.66.42l.51.31Zm-2.03,2.1c.83-.54,1.53-1.26,2.03-2.1l-.51-.31c-.46.76-1.09,1.41-1.85,1.9l.33.5Zm-.56.36l.56-.36-.33-.5-.56.36.33.5Zm-.55-2.41c.18.69.21,1.41.1,2.11l.59.1c.13-.78.09-1.59-.11-2.36l-.58.15Zm-.23-.19c.12.01.21.09.23.19l.58-.15c-.09-.35-.39-.6-.74-.64l-.07.6Zm-6.65-2.56c1.66,1.32,3.99,2.26,6.65,2.56l.07-.6c-2.56-.29-4.78-1.19-6.34-2.44l-.37.47Zm-2.64-4.85c0,1.84.98,3.53,2.64,4.85l.37-.47c-1.56-1.24-2.41-2.78-2.41-4.39h-.6Zm3.23-5.29c-2.02,1.37-3.23,3.25-3.23,5.29h.6c0-1.79,1.06-3.5,2.97-4.8l-.34-.5Zm-1.13,10.77l-.19.23h0s.19-.23.19-.23Zm6.68,2.69l.3-.05-.04-.22-.22-.03-.04.3Zm-.42,2.69l-.27-.14h0s.27.14.27.14Zm.13.66l.2-.23h0s-.2.23-.2.23Zm.7.05l-.16-.25h0s.16.25.16.25Zm1.91-1.24l.16.25h0s-.16-.25-.16-.25Zm2.14-2.12l-.04-.3-.14.02-.08.12.25.16Zm6.92-2.69l.19.24h0s-.19-.24-.19-.24Zm-.59-11.48l-.17.25h0s.17-.25.17-.25ZM3.89,2.68l-.17-.25.17.25Zm16.16.91l-.17.25h0s.17-.25.17-.25Zm.53,9.7l.19.24h0s-.19-.24-.19-.24Zm-6.6,2.48l-.03-.3h0s.03.3.03.3Zm-.43.27l.26.15h0s-.26-.15-.26-.15Zm-1.94,2l-.16-.25h0s.16.25.16.25Zm-.56.36l-.3-.05-.11.67.57-.37-.16-.25Zm-.1-2.24l-.29.08h0s.29-.08.29-.08Zm-.49-.42l-.03.3h0s.03-.3.03-.3Zm-6.5-2.5l-.19.23h0s.19-.23.19-.23Zm.58-9.66l-.17-.25.17.25Z"/>
  <path class="cls-1" d="m3.89,2.68C6.07,1.2,9.04.3,12.3.3s6.23.9,8.41,2.38c2.17,1.48,3.59,3.58,3.59,5.95,0,2.15-1.16,4.08-3,5.52-1.77,1.39-4.19,2.36-6.92,2.69-.55.84-1.28,1.57-2.14,2.12l-1.91,1.24c-.22.14-.5.12-.7-.05-.19-.17-.25-.44-.13-.66.43-.84.57-1.78.42-2.69-2.63-.37-4.96-1.33-6.68-2.69-1.8-1.44-2.95-3.35-2.95-5.48C.3,6.25,1.72,4.16,3.89,2.68Zm.66.91c-1.96,1.34-3.1,3.13-3.1,5.04,0,1.72.92,3.34,2.53,4.62,1.61,1.28,3.88,2.2,6.5,2.5.24.03.43.19.49.42.19.73.22,1.49.1,2.24l.56-.36c.8-.52,1.46-1.2,1.94-2,.09-.15.25-.25.43-.27,2.65-.28,4.96-1.19,6.6-2.48,1.64-1.29,2.57-2.92,2.57-4.66,0-1.92-1.14-3.71-3.1-5.04-1.96-1.33-4.7-2.18-7.75-2.18s-5.79.84-7.75,2.18Z"/>
  <path class="cls-2" d="m10.21,5.31h-.01v1h.01v-1Zm1.7.72c-.45-.46-1.06-.72-1.7-.72v1c.36,0,.72.15.98.42l.71-.7Zm.52.53l-.52-.53-.72.7.52.53.72-.7Zm-.06-.04s.05.03.06.04l-.72.7c.07.08.16.14.26.18l.39-.92Zm-.08-.02s.05,0,.08.02l-.39.92c.1.04.21.06.31.06v-1Zm-.08.02s.05-.02.08-.02v1c.11,0,.21-.02.31-.06l-.39-.92Zm-.06.04s.04-.03.06-.04l.39.92c.1-.04.19-.1.26-.18l-.72-.7Zm.45-.48l-.45.48.73.69.45-.48-.73-.69Zm1.55-.76c-.59.05-1.15.32-1.56.76l.73.68c.24-.26.57-.42.91-.45l-.09-1Zm1.66.48c-.48-.36-1.07-.53-1.66-.48l.09,1c.34-.03.69.07.97.28l.6-.8Zm.66.8c-.16-.31-.38-.58-.66-.79l-.61.79c.16.12.29.28.39.46l.89-.46Zm.27,1c-.02-.35-.11-.69-.27-1l-.89.46c.1.18.15.38.16.59l1-.06Zm-.14,1.01c.12-.32.16-.67.14-1.01l-1,.07c.01.21-.02.41-.08.61l.94.34Zm-.54.87c.24-.25.42-.54.54-.87l-.94-.34c-.07.19-.18.37-.32.52l.72.69Zm-3.21,3.29l3.2-3.29-.72-.7-3.2,3.29.72.7Zm-.26.18c.1-.04.19-.1.26-.18l-.72-.7s.04-.03.06-.04l.39.92Zm-.31.06c.11,0,.21-.02.31-.06l-.39-.92s.05-.02.08-.02v1Zm-.31-.06c.1.04.21.06.31.06v-1s.05,0,.08.02l-.39.92Zm-.26-.18c.07.08.16.14.26.18l.39-.92s.05.03.06.04l-.72.7Zm-3.14-3.22l3.14,3.22.72-.7-3.14-3.22-.72.7Zm-.55-.85c.13.32.31.61.55.85l.72-.7c-.15-.15-.26-.33-.34-.53l-.93.37Zm-.19-1c0,.34.06.68.19,1l.93-.37c-.08-.2-.12-.41-.12-.62h-1Zm.18-.93c-.12.29-.18.61-.18.93h1c0-.19.04-.37.11-.54l-.92-.38Zm.53-.78c-.23.22-.4.49-.53.78l.92.38c.07-.17.17-.33.3-.45l-.7-.71Zm1.65-.68c-.62,0-1.21.25-1.65.68l.7.71c.26-.25.6-.39.95-.39v-1Zm2.25,7.3s-.1.03-.16.03v1c.19,0,.37-.04.55-.11l-.39-.92Zm.13-.09s-.09.07-.13.09l.39.92c.17-.07.33-.18.46-.32l-.72-.7Zm3.2-3.29l-3.2,3.29.72.7,3.2-3.29-.72-.7Zm.46-.74c-.1.28-.26.53-.46.74l.72.7c.3-.31.53-.68.68-1.09l-.94-.34Zm.13-.87c.02.3-.02.59-.13.87l.94.34c.15-.41.21-.84.18-1.28l-1,.06Zm-.24-.85c.14.26.22.55.24.85l1-.06c-.03-.43-.15-.86-.35-1.24l-.89.46Zm-.55-.67c.23.18.42.41.55.67l.89-.46c-.2-.39-.48-.72-.82-.99l-.62.78Zm-1.38-.4c.49-.04.98.1,1.38.41l.6-.8c-.59-.45-1.33-.67-2.07-.61l.08,1Zm-1.3.63c.35-.37.81-.59,1.3-.63l-.08-1c-.74.06-1.43.4-1.95.94l.73.69Zm-.25.26l.25-.26-.72-.7-.25.26.72.7Zm-1.02-.31l.3.31.72-.7-.3-.31-.72.7Zm-.65-.45c.24.1.46.25.65.44l.72-.69c-.28-.29-.61-.52-.98-.67l-.39.92Zm-.76-.15c.26,0,.52.05.76.15l.39-.92c-.37-.15-.76-.23-1.16-.23v1Zm-.75.14c.24-.1.49-.15.75-.14v-1c-.38,0-.77.07-1.13.22l.38.92Zm-.64.43c.18-.19.4-.33.64-.43l-.38-.92c-.36.15-.69.37-.97.65l.71.7Zm-.43.65c.1-.25.25-.47.43-.65l-.71-.7c-.28.28-.5.61-.65.98l.92.38Zm-.16.78c0-.27.06-.53.16-.78l-.92-.38c-.15.36-.23.76-.23,1.15h1Zm.16.88c-.11-.28-.16-.57-.16-.87h-1c0,.41.07.84.23,1.23l.93-.37Zm.47.73c-.2-.21-.36-.46-.47-.73l-.93.37c.16.4.39.76.68,1.06l.72-.69Zm3.14,3.22l-3.14-3.22-.72.7,3.14,3.22.72-.7Zm.13.09s-.1-.05-.13-.09l-.72.7c.13.13.29.24.46.32l.39-.92Zm.16.03c-.05,0-.11-.01-.16-.03l-.39.92c.17.07.36.11.55.11v-1Zm-2.08-6.83v-.5s0,0,0,0v.5Zm1.34.57l.36-.35h0s-.36.35-.36.35Zm.52.53l.36-.35h0s-.36.35-.36.35Zm.22.09v-.5.5Zm.22-.09l.36.35h0s-.36-.35-.36-.35Zm.45-.48l.36.34h0s-.36-.34-.36-.34Zm2.55-.22l.31-.39h0s-.3.39-.3.39Zm.74,1.42l-.5.03h0s.5-.03.5-.03Zm-.54,1.5l.36.35h0s-.36-.35-.36-.35Zm-3.2,3.29l-.36-.35h0s.36.35.36.35Zm-.43,0l.36-.35h0s-.36.35-.36.35Zm-3.14-3.22l-.36.35h0s.36-.35.36-.35Zm-.59-1.5h.5s0,0,0,0h-.5Zm.56-1.35l.35.36h0s-.35-.36-.35-.36Zm1.3-.54v.5s0,0,0,0v-.5Zm2.74,7.06l-.36-.35h0s.36.35.36.35Zm3.2-3.29l.36.35h0s-.36-.35-.36-.35Zm-.25-3.87l.31-.39h0s-.3.39-.3.39Zm-3.35.28l.36.35h0s-.36-.35-.36-.35Zm-.25.26l-.36.35.36.37.36-.37-.36-.35Zm-.3-.31l-.36.35h0s.36-.35.36-.35Zm-1.77-.75v.5s0,0,0,0v-.5Zm-2.49,2.5h.5s0,0,0,0h-.5Zm.77,1.95l-.36.35h0s.36-.35.36-.35Zm3.14,3.22l.36-.35h0s-.36.35-.36.35Zm.65.28v-.5s0,0,0,0v.5Z"/>
  <path class="cls-2" d="m10.2,5.81c-.48,0-.95.19-1.3.54-.18.18-.32.39-.42.62-.1.23-.15.48-.15.74,0,.28.05.55.15.81.1.26.25.49.44.69l3.14,3.22s.06.05.1.07.08.02.12.02.08,0,.12-.02c.04-.02.07-.04.1-.07l3.2-3.29c.19-.2.33-.43.43-.69s.13-.53.11-.81c-.02-.28-.09-.55-.22-.79-.13-.25-.31-.46-.52-.63-.38-.29-.85-.42-1.32-.38-.47.04-.91.26-1.24.6l-.45.48s-.06.05-.1.07-.08.02-.12.02-.08,0-.12-.02-.07-.04-.1-.07l-.52-.53c-.36-.36-.84-.57-1.34-.57h-.01Zm2.09,7.33c-.12,0-.24-.02-.35-.07-.11-.05-.21-.12-.3-.2l-3.14-3.22c-.25-.26-.44-.56-.58-.9-.13-.34-.2-.69-.19-1.06,0-.33.07-.66.19-.96.13-.31.31-.58.54-.81s.5-.42.8-.54.62-.19.94-.18c.33,0,.66.06.96.19.3.13.58.32.81.56l.3.31.25-.26c.43-.45,1.01-.73,1.63-.78.62-.05,1.23.13,1.73.51.28.22.52.51.68.83s.27.68.29,1.05c.02.37-.03.73-.16,1.08-.13.34-.32.65-.57.91l-3.2,3.29c-.09.09-.19.16-.3.2-.11.05-.23.07-.35.07Z"/>
</svg>