<svg width="26" height="23" viewBox="0 0 26 23" fill="none" xmlns="http://www.w3.org/2000/svg">
<path d="M15.2573 13.9025L15.2696 14.002L15.3691 13.9894L24.512 12.8315C24.8489 12.789 25.1 12.4993 25.1 12.1579V4.05263C25.1 3.67889 24.8006 3.37368 24.4286 3.37368H1.57143C1.19938 3.37368 0.9 3.67889 0.9 4.05263V12.1579C0.9 12.4992 1.15104 12.7889 1.48798 12.8315C1.48799 12.8315 1.488 12.8315 1.48801 12.8315L10.6308 13.9894L10.7304 14.002L10.7427 13.9025L10.8844 12.7536L10.8966 12.6547L10.7977 12.6421L2.24286 11.5587V4.73157H23.7571V11.5587L15.2023 12.6421L15.1034 12.6547L15.1156 12.7536L15.2573 13.9025Z" fill="#996058" stroke="#996058" stroke-width="0.2"/>
<path fill-rule="evenodd" clip-rule="evenodd" d="M10.1429 10.4211C10.1429 10.1014 10.3987 9.84211 10.7143 9.84211H15.2857C15.6013 9.84211 15.8572 10.1014 15.8572 10.4211V16.2105C15.8572 16.5302 15.6013 16.7895 15.2857 16.7895H10.7143C10.3987 16.7895 10.1429 16.5302 10.1429 16.2105V10.4211ZM11.2857 11V15.6316H14.7143V11H11.2857Z" fill="#996058"/>
<path fill-rule="evenodd" clip-rule="evenodd" d="M9 2.31579C9 1.03681 10.0233 0 11.2857 0H14.7143C15.9767 0 17 1.03681 17 2.31579V4.05263H15.8571V2.31579C15.8571 1.67631 15.3455 1.15789 14.7143 1.15789H11.2857C10.6545 1.15789 10.1429 1.67631 10.1429 2.31579V4.05263H9V2.31579Z" fill="#996058"/>
<path d="M2.14288 12.6368H2.04288V12.7368V21.4211C2.04288 21.7947 2.34226 22.1 2.71431 22.1H23.2857C23.6577 22.1 23.9572 21.7947 23.9572 21.4211V12.7368V12.6368H23.8572H22.7143H22.6143V12.7368V20.7421H3.38574V12.7368V12.6368H3.28574H2.14288Z" fill="#996058" stroke="#996058" stroke-width="0.2"/>
</svg>
