<svg width="25" height="22" viewBox="0 0 25 22" fill="none" xmlns="http://www.w3.org/2000/svg">
<path d="M3.86328 14.8127L3.76821 14.9287C1.98945 13.4713 0.85 11.5222 0.85 9.33333C0.85 6.89206 2.26457 4.75413 4.40531 3.2556C6.54839 1.75545 9.47141 0.85 12.6667 0.85C15.8619 0.85 18.785 1.75545 20.928 3.2556C23.0688 4.75413 24.4833 6.89206 24.4833 9.33333C24.4833 11.5436 23.3217 13.5091 21.5131 14.9711C19.7805 16.3716 17.4239 17.3411 14.7835 17.6818C14.2394 18.5168 13.5301 19.2353 12.6961 19.7914L12.6129 19.6666L12.6961 19.7914L10.8359 21.0315C10.5696 21.209 10.2174 21.1852 9.97752 20.9734L3.86328 14.8127ZM3.86328 14.8127L3.76822 14.9287C5.43448 16.2938 7.68942 17.2561 10.223 17.6362C10.3399 18.4791 10.2034 19.3489 9.81338 20.1289C9.67032 20.4151 9.73764 20.7616 9.97748 20.9733L3.86328 14.8127ZM14.2872 16.3195L14.2872 16.3195L11.356 16.8677C11.2996 16.6442 11.111 16.4789 10.8821 16.4521L10.8996 16.3031C10.8996 16.3031 10.8996 16.3031 10.8995 16.3031C8.38496 16.0083 6.20175 15.0982 4.66253 13.8372C3.12456 12.5771 2.26111 10.9991 2.26111 9.33333C2.26111 7.47889 3.33404 5.72797 5.21453 4.41163C7.09291 3.09677 9.72543 2.26111 12.6667 2.26111C15.6079 2.26111 18.2404 3.09677 20.1188 4.41163L20.2048 4.28874L20.1188 4.41163C21.9993 5.72797 23.0722 7.47889 23.0722 9.33333C23.0722 11.0151 22.1919 12.6078 20.6259 13.8737C19.0588 15.1403 16.8384 16.046 14.2872 16.3195ZM11.6456 18.7957C11.7122 18.1395 11.6642 17.4743 11.5014 16.8309L13.8829 16.7408L13.7534 16.6651C13.7534 16.6651 13.7534 16.6651 13.7534 16.6651C13.2972 17.4457 12.6685 18.1139 11.9134 18.6172L11.9966 18.742L11.9134 18.6172L11.6456 18.7957Z" fill="#996058" stroke="#996058" stroke-width="0.3"/>
<path d="M12.654 14.0921C12.5021 14.0924 12.352 14.061 12.2124 14.0002C12.0726 13.9393 11.9466 13.8502 11.8412 13.7389C11.8411 13.7388 11.8411 13.7388 11.8411 13.7388C11.8411 13.7388 11.8411 13.7388 11.8411 13.7387L8.788 10.5176L8.78707 10.5166C8.52327 10.2353 8.31584 9.90206 8.17623 9.53675C8.03671 9.17167 7.96755 8.78139 7.97247 8.38849C7.9751 8.0261 8.04541 7.66751 8.17968 7.33313C8.31405 6.99851 8.51 6.6943 8.75694 6.43825C9.0039 6.18218 9.29705 5.97927 9.61998 5.84185C9.94213 5.70476 10.2872 5.63571 10.6353 5.639C10.9897 5.63561 11.3409 5.70717 11.6679 5.84909C11.9954 5.99124 12.2916 6.20091 12.5394 6.46492C12.5396 6.4651 12.5397 6.46527 12.5399 6.46544L12.654 6.5858L12.7145 6.52194C13.1751 6.02371 13.7936 5.71587 14.4566 5.65927C15.1203 5.60261 15.7794 5.80194 16.3116 6.21736L16.3154 6.22036L16.3154 6.22039C16.6185 6.46669 16.8675 6.77751 17.0465 7.13158C17.2255 7.48562 17.3306 7.8752 17.3554 8.27443C17.3802 8.67365 17.3241 9.07409 17.1906 9.44924C17.0572 9.82442 16.8491 10.1663 16.5796 10.4516L16.5794 10.4518L13.4669 13.7387C13.4669 13.7388 13.4669 13.7388 13.4669 13.7388C13.3614 13.8502 13.2354 13.9393 13.0956 14.0002C12.956 14.061 12.8059 14.0924 12.654 14.0921ZM12.654 14.0921C12.6538 14.0921 12.6536 14.0921 12.6533 14.0921L12.654 13.8421L12.6546 14.0921C12.6544 14.0921 12.6542 14.0921 12.654 14.0921ZM10.6232 6.76137H10.6235H10.6349C11.0533 6.76299 11.4571 6.93787 11.7585 7.25294C11.7587 7.25307 11.7588 7.25321 11.7589 7.25334L12.2614 7.78347C12.2615 7.78363 12.2617 7.7838 12.2618 7.78396C12.3119 7.83705 12.3721 7.87997 12.4394 7.90956L12.54 7.68069L12.4394 7.90956C12.507 7.93925 12.5799 7.95474 12.654 7.95474C12.7281 7.95474 12.801 7.93925 12.8686 7.90956C12.9361 7.87988 12.9965 7.83679 13.0466 7.78347L13.0466 7.78348L13.0482 7.7818L13.4898 7.3033L13.4898 7.3033L13.4908 7.30221C13.7677 6.99873 14.1371 6.81421 14.5293 6.77911C14.9208 6.74407 15.3127 6.85986 15.6322 7.10789C15.8133 7.25336 15.9634 7.43907 16.0717 7.65301C16.1803 7.86753 16.244 8.10493 16.2579 8.34889L16.2579 8.34889L16.258 8.35087C16.2737 8.59272 16.2407 8.83513 16.1614 9.06201C16.0823 9.28847 15.959 9.49378 15.8004 9.66487L12.6859 12.954L12.6853 12.9547C12.6803 12.96 12.6751 12.9634 12.6704 12.9655L12.771 13.1944L12.6704 12.9655C12.6657 12.9676 12.6612 12.9684 12.657 12.9684C12.6528 12.9684 12.6482 12.9676 12.6436 12.9655C12.6388 12.9634 12.6336 12.96 12.6286 12.9547L12.6279 12.9539L9.57543 9.73336C9.57533 9.73325 9.57523 9.73314 9.57513 9.73303C9.41217 9.55971 9.28275 9.35328 9.19499 9.12537C9.10717 8.89729 9.06299 8.65267 9.06531 8.40581L9.06531 8.40323C9.06509 8.18221 9.10723 7.96373 9.18887 7.76103C9.2705 7.55835 9.38976 7.37606 9.53883 7.22474L9.53925 7.22431C9.83233 6.92537 10.2213 6.76094 10.6232 6.76137ZM13.3061 7.13374L12.8645 7.61223L13.3061 7.13374ZM9.39334 9.90465L12.4465 13.1259L10.6235 6.51137C10.1523 6.51087 9.69947 6.70378 9.36073 7.04929C9.18803 7.2246 9.0507 7.43492 8.95697 7.66763C8.86324 7.90034 8.81506 8.15063 8.81531 8.40348C8.81271 8.6816 8.86247 8.95751 8.96169 9.2152C9.06091 9.47289 9.20763 9.70723 9.39334 9.90465Z" fill="#996058" stroke="#996058" stroke-width="0.5"/>
</svg>
