<svg width="22" height="22" viewBox="0 0 22 22" fill="none" xmlns="http://www.w3.org/2000/svg">
<path d="M11 0.944C5.477 0.944 1 5.29564 1 10.664C1 16.0324 5.477 20.384 11 20.384C16.523 20.384 21 16.0324 21 10.664C21 5.29564 16.523 0.944 11 0.944Z" stroke="#996058" stroke-width="1.5" stroke-linecap="round" stroke-linejoin="round"/>
<path d="M3.271 16.8323C3.271 16.8323 5.5 14.066 11 14.066C16.5 14.066 18.73 16.8323 18.73 16.8323" stroke="#996058" stroke-width="1.5" stroke-linecap="round" stroke-linejoin="round"/>
<path d="M11 10.664C11.7956 10.664 12.5587 10.3568 13.1213 9.80992C13.6839 9.26307 14 8.52137 14 7.748C14 6.97463 13.6839 6.23293 13.1213 5.68608C12.5587 5.13922 11.7956 4.832 11 4.832C10.2044 4.832 9.44129 5.13922 8.87868 5.68608C8.31607 6.23293 8 6.97463 8 7.748C8 8.52137 8.31607 9.26307 8.87868 9.80992C9.44129 10.3568 10.2044 10.664 11 10.664V10.664Z" stroke="#996058" stroke-width="1.5" stroke-linecap="round" stroke-linejoin="round"/>
</svg>
