<svg width="19" height="14" viewBox="0 0 19 14" fill="none" xmlns="http://www.w3.org/2000/svg">
<path d="M11.1977 14C11.1056 14.0005 11.0143 13.9829 10.929 13.948C10.8437 13.9132 10.7662 13.8619 10.7008 13.797C10.6352 13.732 10.5831 13.6546 10.5476 13.5693C10.5121 13.484 10.4938 13.3925 10.4938 13.3001C10.4938 13.2077 10.5121 13.1163 10.5476 13.031C10.5831 12.9457 10.6352 12.8683 10.7008 12.8032L16.5096 7.00143L10.7008 1.19962C10.569 1.06783 10.495 0.889093 10.495 0.70272C10.495 0.516347 10.569 0.337607 10.7008 0.205822C10.8326 0.0740364 11.0113 0 11.1977 0C11.3841 0 11.5628 0.0740364 11.6946 0.205822L17.9933 6.50453C18.0589 6.56959 18.111 6.64699 18.1465 6.73228C18.182 6.81756 18.2003 6.90904 18.2003 7.00143C18.2003 7.09381 18.182 7.18529 18.1465 7.27057C18.111 7.35586 18.0589 7.43326 17.9933 7.49832L11.6946 13.797C11.6292 13.8619 11.5516 13.9132 11.4664 13.948C11.3811 13.9829 11.2898 14.0005 11.1977 14Z" fill="#C2857D"/>
<path d="M17.4965 7.70147H0.699917C0.514304 7.70147 0.336293 7.62774 0.205044 7.49649C0.0737956 7.36524 6.10352e-05 7.18723 6.10352e-05 7.00161C6.10352e-05 6.816 0.0737956 6.63799 0.205044 6.50674C0.336293 6.37549 0.514304 6.30176 0.699917 6.30176H17.4965C17.6821 6.30176 17.8601 6.37549 17.9913 6.50674C18.1226 6.63799 18.1963 6.816 18.1963 7.00161C18.1963 7.18723 18.1226 7.36524 17.9913 7.49649C17.8601 7.62774 17.6821 7.70147 17.4965 7.70147Z" fill="#C2857D"/>
</svg>
