<svg width="74" height="68" viewBox="0 0 74 68" fill="none" xmlns="http://www.w3.org/2000/svg">
<g clip-path="url(#clip0_182_784)">
<path d="M7.62939e-06 68L73.6667 68L73.6667 0L1.39116e-05 -6.09421e-06L7.62939e-06 68Z" fill="white" fill-opacity="0.01"/>
<path fill-rule="evenodd" clip-rule="evenodd" d="M44.7321 55.0856C56.2895 48.2341 62.7101 40.2598 63.994 31.1624C65.9928 16.9999 52.2721 10.0677 45.3199 16.2962C38.3678 22.5246 42.5352 30.4304 47.5692 32.5914C52.6033 34.7525 55.6818 33.9999 55.1448 36.8876C54.6078 39.7755 47.4458 47.7822 41.1538 51.511C40.7363 51.8387 40.5775 52.4745 40.9794 52.9567C41.2439 53.274 41.7624 53.8962 42.5352 54.8233C43.2109 55.634 43.8583 55.6036 44.7321 55.0856Z" fill="#C2857D"/>
<path fill-rule="evenodd" clip-rule="evenodd" d="M14.3053 55.0856C25.8626 48.2341 32.2832 40.2598 33.5672 31.1624C35.5658 16.9999 21.8451 10.0677 14.893 16.2962C7.94084 22.5246 12.1082 30.4304 17.1423 32.5914C22.1763 34.7525 25.255 33.9999 24.7178 36.8876C24.1808 39.7755 17.0189 47.7822 10.7268 51.511C10.3094 51.8387 10.1505 52.4745 10.5526 52.9567C10.8169 53.274 11.3355 53.8962 12.1082 54.8233C12.784 55.634 13.4313 55.6036 14.3053 55.0856Z" fill="#C2857D"/>
</g>
<defs>
<clipPath id="clip0_182_784">
<rect width="73.6667" height="68" fill="white" transform="translate(73.6667 68) rotate(-180)"/>
</clipPath>
</defs>
</svg>
