<svg width="54" height="54" viewBox="0 0 54 54" fill="none" xmlns="http://www.w3.org/2000/svg">
<path fill-rule="evenodd" clip-rule="evenodd" d="M1.34607 52.6589L4.97088 39.4818C2.73463 35.6258 1.55866 31.2499 1.56 26.7682C1.56673 12.747 13.0251 1.33984 27.1072 1.33984C33.9411 1.34252 40.3538 3.99134 45.1775 8.79727C49.9998 13.6045 52.6558 19.9928 52.6531 26.7883C52.6478 40.8095 41.1867 52.2181 27.1072 52.2181H27.0965C22.8218 52.2167 18.6198 51.1489 14.8886 49.1217L1.34607 52.6589Z" fill="white"/>
<path fill-rule="evenodd" clip-rule="evenodd" d="M1.34608 53.3293C1.16847 53.3293 0.996243 53.2596 0.868419 53.131C0.70023 52.9608 0.6343 52.7129 0.69754 52.4838L4.24835 39.5733C2.04709 35.6798 0.885911 31.2584 0.888602 26.7701C0.893984 12.3777 12.6551 0.67041 27.1073 0.67041C34.1174 0.67309 40.7037 3.39158 45.6538 8.32479C50.6039 13.2593 53.3286 19.8164 53.3259 26.7888C53.3205 41.1798 41.5581 52.8885 27.1073 52.8885C22.8164 52.8871 18.5713 51.8327 14.8039 49.8377L1.51696 53.3065C1.46044 53.3226 1.40393 53.3293 1.34608 53.3293Z" fill="white"/>
<path fill-rule="evenodd" clip-rule="evenodd" d="M27.1072 1.33982C33.9411 1.3425 40.3538 3.99132 45.1775 8.79724C49.9998 13.6045 52.6558 19.9928 52.6531 26.7883C52.6478 40.8095 41.1867 52.218 27.1072 52.218H27.0965C22.8218 52.2167 18.6198 51.1489 14.8886 49.1217L1.34607 52.6588L4.97088 39.4817C2.73463 35.6257 1.55866 31.2499 1.56 26.7682C1.56673 12.747 13.0251 1.33982 27.1072 1.33982ZM27.1072 0C12.2851 0 0.221217 12.0074 0.21449 26.7682C0.213144 31.2794 1.35683 35.7249 3.5258 39.6599L0.0476466 52.3065C-0.0788316 52.7687 0.0503375 53.2618 0.389407 53.6021C0.645054 53.8593 0.990851 54 1.34607 54C1.46043 54 1.5748 53.9853 1.68783 53.9558L14.7218 50.5527C18.5269 52.5195 22.7922 53.5579 27.0965 53.5592C41.9294 53.5592 53.9933 41.5504 54 26.7896C54.0027 19.6364 51.2081 12.9105 46.1314 7.85133C41.0521 2.79084 34.2963 0.00267963 27.1072 0Z" fill="#CFD8DC"/>
<path fill-rule="evenodd" clip-rule="evenodd" d="M42.1258 11.8337C38.1162 7.8384 32.7866 5.63708 27.114 5.63574C15.4026 5.63574 5.87775 15.1163 5.87237 26.77C5.87102 30.764 6.99318 34.6522 9.11909 38.0191L9.625 38.819L7.47891 46.6181L15.5157 44.5199L16.292 44.9781C19.5508 46.9048 23.2887 47.9231 27.0992 47.9244H27.1072C38.8105 47.9244 48.3354 38.4425 48.3394 26.7874C48.3408 21.1401 46.1355 15.8291 42.1258 11.8337Z" fill="#40C351"/>
<path fill-rule="evenodd" clip-rule="evenodd" d="M20.7214 16.1383C20.2438 15.0799 19.7406 15.0584 19.2844 15.0397C18.9117 15.0236 18.4865 15.0249 18.0614 15.0249C17.6362 15.0249 16.9446 15.1844 16.3593 15.8208C15.774 16.4572 14.1244 17.994 14.1244 21.1211C14.1244 24.2482 16.4118 27.2709 16.7306 27.6942C17.0495 28.1176 21.1466 34.7403 27.6347 37.2887C33.0261 39.4056 34.1241 38.9849 35.2947 38.879C36.4653 38.7732 39.0715 37.3423 39.603 35.8578C40.1345 34.3732 40.1345 33.1017 39.9757 32.8365C39.8156 32.5712 39.3904 32.4131 38.7526 32.0942C38.1149 31.7753 34.9758 30.2386 34.3905 30.0269C33.8052 29.8152 33.38 29.7093 32.9535 30.3457C32.5283 30.9808 31.3052 32.4131 30.9325 32.8365C30.5598 33.2612 30.1871 33.3148 29.5493 32.9959C28.9116 32.677 26.8556 32.0071 24.4162 29.842C22.519 28.1578 21.2381 26.0771 20.8654 25.4407C20.4927 24.8056 20.825 24.4613 21.1453 24.1437C21.4319 23.8583 21.783 23.4015 22.1033 23.0303C22.4222 22.6592 22.5285 22.3939 22.741 21.9705C22.9536 21.5458 22.8473 21.1747 22.6872 20.8572C22.5298 20.5383 21.2892 17.3951 20.7214 16.1383Z" fill="white"/>
</svg>
