<svg width="52" height="41" viewBox="0 0 52 41" fill="none" xmlns="http://www.w3.org/2000/svg">
<path d="M9.88978 28.3991C9.91996 28.4014 9.94684 28.4129 9.97041 28.4338C9.99399 28.455 10.0308 28.5244 10.0803 28.6428C10.1298 28.7612 10.1543 28.8592 10.1543 28.9369C10.1543 29.0151 10.1449 29.0974 10.1251 29.1839C10.1057 29.2704 10.0746 29.3138 10.0317 29.3138C9.95862 29.3138 9.89827 29.2306 9.85112 29.0636C9.8035 28.8971 9.76955 28.7926 9.74786 28.7505C9.62763 28.5017 9.49844 28.32 9.36076 28.2062C9.23581 28.0925 9.10898 28.0356 8.98026 28.0356C8.92415 28.0356 8.86851 28.0462 8.81241 28.067C8.53705 28.1808 8.39937 28.4467 8.39937 28.8643C8.39937 28.9994 8.4253 29.1584 8.4767 29.342C8.52856 29.5256 8.60777 29.687 8.71528 29.8262C8.73697 29.8517 8.8506 29.8725 9.05711 29.8896C9.16462 29.9021 9.22685 29.9391 9.2443 30.0001C9.26127 30.0612 9.23581 30.1088 9.16697 30.1426C9.12831 30.1893 8.97979 30.1763 8.72188 30.1047C8.65304 30.088 8.60777 30.0774 8.58656 30.0727C8.35411 30.0769 8.09195 30.1278 7.79962 30.2249C7.50729 30.322 7.23854 30.4709 6.99336 30.6712C6.74818 30.8714 6.62559 31.092 6.62559 31.3325C6.62559 31.5138 6.70103 31.6604 6.85144 31.7723C7.00184 31.8842 7.24372 31.9402 7.57707 31.9402C7.91042 31.9402 8.28244 31.8893 8.69312 31.788C9.10379 31.6868 9.4263 31.5771 9.66111 31.4588C9.89544 31.3408 10.1265 31.1739 10.3547 30.9588C10.5824 30.7438 10.6965 30.5583 10.6965 30.402C10.6965 30.3766 10.6956 30.3558 10.6932 30.3387C10.6909 30.322 10.6942 30.3114 10.7031 30.3072C10.7291 30.2947 10.7503 30.2966 10.7677 30.3137C10.8234 30.4191 10.8516 30.5014 10.8516 30.5606C10.8516 30.7336 10.7937 30.8899 10.6777 31.0291C10.4754 31.2696 10.2477 31.4597 9.99399 31.5989C9.74032 31.7381 9.39282 31.856 8.95197 31.9531C8.51112 32.0503 8.14429 32.0988 7.85196 32.0988C7.55916 32.0988 7.31115 32.0734 7.10699 32.023C6.90283 31.9726 6.72507 31.8713 6.57466 31.7191C6.42426 31.5674 6.34882 31.3806 6.34882 31.1591C6.34882 30.9376 6.40351 30.7498 6.51337 30.5958C6.62323 30.4418 6.75431 30.3229 6.90707 30.2383C7.05984 30.1541 7.24372 30.0843 7.45873 30.0293C7.77699 29.9451 8.13203 29.8924 8.52338 29.8711C8.24378 29.5589 8.07828 29.1982 8.02641 28.7889C8.02217 28.7427 8.01981 28.6983 8.01981 28.6562C8.01981 28.5041 8.05753 28.3639 8.1325 28.2354C8.20794 28.1068 8.33336 28.0148 8.51017 27.9602C8.68652 27.9056 8.81759 27.8779 8.90388 27.8779C8.98969 27.8779 9.05334 27.8834 9.09436 27.8936C9.13538 27.9042 9.17075 27.9149 9.20092 27.925C9.2311 27.9357 9.26127 27.9505 9.29145 27.9694C9.32163 27.9884 9.34709 28.0041 9.36878 28.0171C9.39046 28.0296 9.41593 28.0499 9.4461 28.0772C9.47628 28.1045 9.4975 28.1234 9.5107 28.1341C9.52343 28.1447 9.547 28.166 9.58189 28.1974C9.61631 28.2289 9.63753 28.2469 9.64649 28.2511C9.71109 28.3269 9.77332 28.3713 9.83368 28.3838C9.84028 28.3917 9.85961 28.3968 9.88978 28.3991Z" fill="#5F6368"/>
<path d="M11.4123 30.211C11.4123 30.0084 11.3519 29.9072 11.2317 29.9072C11.2058 29.9072 11.1789 29.9104 11.1511 29.9169C11.1233 29.9233 11.1091 29.9178 11.1091 29.9011C11.1091 29.8845 11.1218 29.8632 11.1478 29.8378C11.1737 29.8165 11.2619 29.7999 11.4123 29.7874C11.5929 29.7874 11.706 29.8128 11.7508 29.8632C11.7961 29.9136 11.8187 29.9645 11.8187 30.0149C11.8187 30.0653 11.7791 30.1911 11.6994 30.3914C11.6197 30.5916 11.5778 30.6961 11.5735 30.7045C11.4443 31.0841 11.3863 31.3223 11.3996 31.4194C11.7867 30.9089 12.0403 30.5907 12.161 30.464C12.4147 30.1897 12.5953 30.002 12.7028 29.9007C12.9522 29.6727 13.1715 29.5187 13.361 29.4387C13.4166 29.4174 13.4661 29.4072 13.5095 29.4072C13.6514 29.4072 13.7481 29.4493 13.8 29.5339C13.8169 29.5552 13.8259 29.5751 13.8259 29.5941C13.8259 29.613 13.8193 29.6352 13.8066 29.6607C13.7938 29.6861 13.7698 29.6847 13.7354 29.6574C13.7009 29.6301 13.6236 29.6163 13.5029 29.6163C13.3049 29.6163 12.9739 29.8443 12.5095 30.2998C12.2299 30.5824 11.9729 30.8779 11.7386 31.1859C11.5042 31.4939 11.3783 31.7131 11.3614 31.844C11.3614 31.8777 11.3293 31.8944 11.2647 31.8944C11.2001 31.8944 11.152 31.868 11.1195 31.8153C11.0874 31.7626 11.0709 31.7182 11.0709 31.6826C11.0709 31.6465 11.0733 31.6151 11.0775 31.5878C11.0818 31.5605 11.1247 31.4051 11.2067 31.1225C11.2883 30.84 11.3401 30.6522 11.3614 30.5592C11.3095 30.6439 11.2388 30.747 11.1482 30.8696C11.1181 30.9033 11.0935 30.913 11.0742 30.8982C11.0549 30.8834 11.045 30.8696 11.045 30.8571C11.045 30.8446 11.0492 30.8298 11.0577 30.8127C11.2383 30.5717 11.3566 30.3715 11.4123 30.211Z" fill="#5F6368"/>
<path d="M14.5996 29.7809C14.832 29.7809 14.948 29.8905 14.948 30.1102C14.948 30.224 14.916 30.3169 14.8514 30.3886C14.7439 30.5449 14.5694 30.6809 14.329 30.797C14.088 30.913 13.8839 30.9773 13.716 30.9898C13.6556 30.994 13.6236 30.9773 13.6193 30.9394C13.6151 30.9227 13.6203 30.9121 13.6354 30.9075C13.6505 30.9033 13.6622 30.901 13.6707 30.901C13.7698 30.8927 13.8966 30.8464 14.0512 30.7618C14.3393 30.6101 14.5501 30.4538 14.6835 30.2933C14.7392 30.2175 14.7674 30.1449 14.7674 30.075C14.7674 30.0052 14.733 29.9705 14.6642 29.9705C14.6081 29.9705 14.5331 29.9936 14.4383 30.0404C14.2361 30.1333 14.0234 30.2947 13.7995 30.5246C13.576 30.7544 13.4293 30.9792 13.361 31.1984C13.3393 31.2659 13.3289 31.3325 13.3289 31.3977C13.3289 31.4634 13.3567 31.5253 13.4128 31.5845C13.4685 31.6437 13.5547 31.6733 13.6707 31.6733C13.7999 31.6733 13.948 31.6396 14.1158 31.5721C14.6019 31.3783 14.9759 31.0846 15.2385 30.6924C15.2644 30.6587 15.288 30.6522 15.3097 30.6735C15.3266 30.6818 15.3356 30.6924 15.3356 30.7054C15.3356 30.7179 15.329 30.7327 15.3163 30.7498C15.1871 30.9607 15.0239 31.1484 14.8259 31.3131C14.4431 31.6336 14.071 31.794 13.7099 31.794C13.4001 31.794 13.1827 31.7034 13.0583 31.5221C13.0111 31.4504 12.9871 31.3639 12.9871 31.2627C12.9871 31.1614 13.0149 31.0411 13.071 30.9019C13.1785 30.6615 13.4086 30.4145 13.7613 30.1615C14.1135 29.9072 14.3931 29.7809 14.5996 29.7809Z" fill="#5F6368"/>
<path d="M16.967 29.8253C17.066 29.8253 17.1155 29.8771 17.1155 29.9802C17.1155 30.0834 17.066 30.2258 16.967 30.4076C16.868 30.5888 16.7949 30.7368 16.7478 30.8506C16.6662 31.0448 16.6252 31.1998 16.6252 31.3158C16.6252 31.4319 16.6421 31.5087 16.677 31.5466C16.7416 31.6141 16.8298 31.6174 16.9415 31.5559C17.0533 31.4948 17.2094 31.3764 17.4093 31.2016C17.6092 31.0268 17.7695 30.8548 17.8897 30.686C17.9067 30.6647 17.9274 30.6596 17.951 30.6702C17.9746 30.6809 17.9864 30.6915 17.9864 30.7017C17.9864 30.7123 17.9821 30.7239 17.9737 30.7364C17.9091 30.8501 17.7931 30.9958 17.6252 31.1729C17.4574 31.3501 17.2961 31.4925 17.1415 31.6003C16.9868 31.708 16.834 31.7617 16.6832 31.7617C16.537 31.7575 16.4337 31.7247 16.3734 31.6636C16.313 31.6026 16.2829 31.5253 16.2829 31.4328C16.2829 31.3399 16.2913 31.2506 16.3088 31.1637C16.3258 31.0772 16.3583 30.9769 16.4054 30.8631C16.4828 30.6818 16.5507 30.5403 16.6087 30.439C16.6667 30.3377 16.6959 30.2711 16.6959 30.2397C16.6959 30.2078 16.6789 30.192 16.6445 30.192C16.5757 30.192 16.4446 30.2744 16.2508 30.439C16.1174 30.5616 15.9207 30.7923 15.6605 31.1318C15.4002 31.4712 15.2531 31.6516 15.2187 31.6729C15.064 31.7487 14.9669 31.7866 14.9282 31.7866C14.8896 31.7866 14.8702 31.7802 14.8702 31.7677C14.8702 31.7552 14.8745 31.7372 14.883 31.714C14.8915 31.6909 14.9334 31.5758 15.0089 31.369C15.0843 31.1623 15.1659 30.9357 15.254 30.6887C15.3422 30.4418 15.396 30.2933 15.4153 30.2425C15.4346 30.192 15.4474 30.1486 15.454 30.1125C15.4606 30.0769 15.4676 30.0459 15.4766 30.0209C15.4851 29.9955 15.5011 29.9673 15.5252 29.9354C15.5487 29.9035 15.5798 29.8868 15.6185 29.8845C15.6572 29.8827 15.7067 29.8868 15.767 29.897C15.8274 29.9076 15.8576 29.934 15.8576 29.9761C15.8576 30.0057 15.834 30.07 15.7864 30.1689C15.7387 30.2679 15.6034 30.6087 15.3799 31.191C15.5346 31.0055 15.7303 30.7914 15.9669 30.5486C16.2036 30.3058 16.4036 30.1213 16.5672 29.995C16.7308 29.8822 16.8642 29.8253 16.967 29.8253Z" fill="#5F6368"/>
<path d="M18.8384 29.8503C19.1694 29.8207 19.3707 29.8059 19.4415 29.8059C19.5122 29.8059 19.548 29.8165 19.548 29.8373C19.548 29.8628 19.4976 29.8891 19.3967 29.9164C19.2958 29.9437 19.0492 29.9789 18.6578 30.0209C18.6361 30.0589 18.6107 30.1033 18.5805 30.1537C18.5159 30.2549 18.4815 30.316 18.4772 30.3373C18.2321 30.8182 18.1029 31.1239 18.0901 31.2548C18.0859 31.2927 18.0835 31.3413 18.0835 31.4005C18.0835 31.4597 18.1005 31.5082 18.1349 31.5462C18.1953 31.6137 18.2811 31.6178 18.3928 31.5586C18.5046 31.4994 18.6607 31.3815 18.8606 31.2044C19.0605 31.0273 19.2227 30.8543 19.3476 30.6855C19.3646 30.6642 19.3863 30.6601 19.4122 30.673C19.4768 30.7026 19.3646 30.8691 19.0765 31.1729C18.8012 31.4638 18.5711 31.6433 18.3862 31.7108C18.2787 31.7487 18.1882 31.7677 18.1151 31.7677C17.943 31.7677 17.8289 31.6877 17.7733 31.5272C17.7648 31.4976 17.7606 31.462 17.7606 31.4194C17.7606 31.2719 17.8294 31.0481 17.9671 30.7489C17.9454 30.7951 17.8615 30.9005 17.7153 31.0652C17.6766 31.1073 17.6465 31.1073 17.6248 31.0652C17.6205 31.0569 17.6182 31.0453 17.6182 31.0305C17.6182 31.0157 17.6267 30.9977 17.6441 30.9769C17.8549 30.7197 18.0204 30.5024 18.1411 30.3252C18.1411 30.3211 18.1882 30.2327 18.283 30.0593C18.2401 30.0676 18.1958 30.0718 18.151 30.0718C18.1062 30.0718 18.0722 30.0584 18.051 30.0306C18.0293 30.0034 18.0274 29.9705 18.0444 29.9326C18.0746 29.8651 18.1887 29.8272 18.3862 29.8188C18.3905 29.8105 18.399 29.8064 18.4122 29.8064L18.7347 29.2176C18.7517 29.1839 18.771 29.1492 18.7927 29.1131C18.8144 29.0775 18.8304 29.0498 18.8412 29.0308C18.8521 29.0118 18.8639 28.9919 18.8766 28.9707C18.8893 28.9494 18.9002 28.9351 18.9087 28.9263C18.9171 28.9179 18.9256 28.9096 18.9346 28.9008C18.9516 28.8754 19.0025 28.8629 19.0864 28.8629C19.1703 28.8629 19.2274 28.886 19.2576 28.9327C19.2703 28.9494 19.2769 28.9781 19.2769 29.0183C19.2769 29.0585 19.2618 29.1029 19.2316 29.151C19.2015 29.1996 19.1694 29.2343 19.135 29.2555C19.1006 29.2768 19.077 29.2999 19.0638 29.3254L18.754 29.8568L18.8384 29.8503Z" fill="#5F6368"/>
<path d="M21.5415 31.5147C21.5415 31.5697 21.5693 31.597 21.6254 31.597C21.6811 31.597 21.7565 31.5392 21.8513 31.4231C21.946 31.3071 22.0102 31.2511 22.0446 31.2553C22.0705 31.2807 22.0422 31.3353 21.9607 31.4199C21.9522 31.4282 21.9371 31.4504 21.9154 31.4865C21.8937 31.5226 21.8758 31.5508 21.8607 31.572C21.8456 31.5933 21.8253 31.6206 21.7994 31.6544C21.7735 31.6881 21.7499 31.7154 21.7282 31.7367C21.7065 31.758 21.6829 31.7788 21.657 31.8C21.6056 31.8421 21.5604 31.8634 21.5217 31.8634C21.483 31.8634 21.4302 31.856 21.3637 31.8412C21.2968 31.8264 21.2628 31.8107 21.2605 31.7936C21.2581 31.7769 21.2572 31.7621 21.2572 31.7492C21.2572 31.53 21.4401 31.0804 21.8055 30.4015C21.7494 30.4015 21.7056 30.3992 21.6735 30.3951C21.6414 30.3909 21.6216 30.3738 21.6155 30.3447C21.6089 30.3151 21.6179 30.2984 21.6414 30.2942C21.665 30.2901 21.69 30.2901 21.7155 30.2942C21.7414 30.2984 21.7867 30.3007 21.8508 30.3007C22.07 29.9127 22.2011 29.6755 22.2445 29.589C22.2874 29.5025 22.3091 29.4401 22.3091 29.4022C22.3091 29.3642 22.3067 29.3346 22.3025 29.3134C22.3195 29.1954 22.4241 29.0405 22.6156 28.8481C22.807 28.6562 22.98 28.56 23.1352 28.56C23.1866 28.56 23.2568 28.579 23.345 28.6169C23.4332 28.6548 23.4836 28.6983 23.4968 28.7468C23.5095 28.7954 23.5128 28.8227 23.5067 28.8292C23.5001 28.8356 23.4864 28.8347 23.4647 28.8259C23.4431 28.8176 23.4303 28.8134 23.4261 28.8134C23.1163 28.8134 22.6754 29.3092 22.1035 30.3007C22.5722 30.2795 23.0531 30.1879 23.5454 30.0256C24.0376 29.8632 24.4153 29.6491 24.6774 29.3832C24.8278 29.2398 24.9033 29.0881 24.9033 28.9277C24.9033 28.455 24.4106 28.2192 23.4261 28.2192C22.8626 28.2192 22.3251 28.3038 21.8131 28.4721C21.5462 28.5651 21.3194 28.6895 21.1322 28.8453C20.945 29.0017 20.8342 29.1788 20.7998 29.3767C20.7956 29.398 20.7932 29.4253 20.7932 29.459C20.7932 29.4928 20.8074 29.534 20.8352 29.5825C20.863 29.6311 20.8965 29.6681 20.9351 29.6935C20.9738 29.7189 21.0285 29.7485 21.0997 29.7823C21.1709 29.8161 21.218 29.8415 21.2416 29.8581C21.2652 29.8753 21.2708 29.8928 21.2576 29.9118C21.2449 29.9307 21.2166 29.9363 21.1737 29.9275C21.0403 29.9062 20.9158 29.841 20.7993 29.7314C20.6834 29.6218 20.6254 29.5034 20.6254 29.3772C20.6254 29.3393 20.6296 29.3013 20.6381 29.2634C20.6296 29.2088 20.6254 29.1746 20.6254 29.1621C20.6857 28.8458 21.0016 28.5443 21.5736 28.2571C22.0253 28.0504 22.5585 27.9468 23.1738 27.9468C23.5524 27.9468 23.9263 27.9972 24.2965 28.0989C24.5459 28.1835 24.735 28.3038 24.8642 28.4596C24.9933 28.616 25.0575 28.7741 25.0575 28.9341C25.0575 29.1788 24.9585 29.3952 24.7609 29.5825C24.5629 29.7703 24.3417 29.915 24.0966 30.0158C23.5157 30.2605 22.832 30.3914 22.0451 30.408C21.8772 30.7119 21.7513 30.9584 21.6674 31.1484C21.5835 31.3376 21.5415 31.4601 21.5415 31.5147Z" fill="#5F6368"/>
<path d="M24.4705 30.8122C24.4191 30.9556 24.3908 31.0518 24.3865 31.1003C24.3823 31.1489 24.3799 31.2141 24.3799 31.2964C24.3799 31.3787 24.4012 31.4537 24.4445 31.5212C24.5176 31.6349 24.6402 31.6433 24.8123 31.5466C24.9415 31.4791 25.1046 31.3556 25.3027 31.1762C25.5002 30.9967 25.653 30.8335 25.761 30.686C25.7695 30.6735 25.7827 30.667 25.7996 30.667C25.8383 30.667 25.8491 30.6947 25.8317 30.7493C25.7671 30.8631 25.6478 31.0088 25.4738 31.1859C25.2998 31.363 25.1414 31.5036 24.9995 31.6067C24.8576 31.7099 24.7157 31.7617 24.5737 31.7617C24.247 31.7617 24.0834 31.6058 24.0834 31.2932C24.0834 31.2807 24.0834 31.2677 24.0834 31.2553C24.1003 30.9602 24.2531 30.5139 24.5412 29.9169C24.8293 29.3198 25.0896 28.8694 25.322 28.566L25.5219 28.319C25.5691 28.2645 25.6379 28.197 25.7284 28.1165C25.9005 27.956 26.0778 27.876 26.2608 27.876C26.4437 27.876 26.5672 27.931 26.6318 28.0406C26.6531 28.0786 26.6639 28.1336 26.6639 28.2053C26.6639 28.277 26.6318 28.3782 26.5672 28.5091C26.124 29.2639 25.4253 30.032 24.4705 30.8122ZM26.3933 28.3949C26.4446 28.3019 26.4706 28.2303 26.4706 28.1798C26.4706 28.0911 26.4338 28.0471 26.3612 28.0471C26.3008 28.0471 26.2259 28.0809 26.1353 28.1484C25.7912 28.4102 25.4578 28.8236 25.1353 29.3887C24.8774 29.8443 24.6878 30.2346 24.5676 30.5592C24.8642 30.3608 25.1966 30.0385 25.5644 29.5913C25.9317 29.1441 26.208 28.745 26.3933 28.3949Z" fill="#5F6368"/>
<path d="M25.993 31.6918C25.9241 31.6918 25.8501 31.6719 25.7704 31.6317C25.6907 31.5915 25.6228 31.5346 25.5672 31.4611C25.5111 31.3871 25.4833 31.3084 25.4833 31.2238C25.4833 31.1396 25.5026 31.0592 25.5413 30.9833C25.6271 30.8062 25.7657 30.6342 25.9576 30.4677C26.149 30.3012 26.348 30.1587 26.5545 30.0404C26.761 29.9224 26.9242 29.8484 27.0449 29.8188C27.1651 29.7892 27.2825 29.7744 27.3966 29.7744C27.5107 29.7744 27.6083 29.8031 27.6904 29.86C27.7719 29.9169 27.813 29.977 27.813 30.0404C27.813 30.0616 27.8106 30.0741 27.8064 30.0783C27.8021 30.0824 27.7913 30.0806 27.7738 30.0718C27.7224 29.9918 27.6159 29.9516 27.4546 29.9516C27.2934 29.9516 27.1104 30.0034 26.9063 30.1065C26.7021 30.2101 26.5093 30.3396 26.3287 30.4959C26.1783 30.6351 26.0458 30.7923 25.9317 30.9671C25.8176 31.1424 25.7605 31.2701 25.7605 31.3501C25.7605 31.5064 25.8058 31.5841 25.8958 31.5841C25.9864 31.5841 26.1236 31.5124 26.3089 31.369C26.6144 31.1161 26.8228 30.9301 26.9346 30.8122C27.3301 30.3946 27.5433 30.1856 27.5734 30.1856C27.6248 30.1856 27.6875 30.2004 27.7606 30.23C27.8337 30.2596 27.8573 30.2952 27.8318 30.3377C27.6126 30.6416 27.4834 30.9473 27.4447 31.2553C27.4405 31.2932 27.4381 31.3417 27.4381 31.4009C27.4381 31.4601 27.4551 31.5087 27.4895 31.5466C27.5541 31.6141 27.6423 31.6183 27.754 31.5591C27.8658 31.4999 28.0218 31.382 28.2218 31.2048C28.4217 31.0277 28.582 30.8548 28.7022 30.686C28.7192 30.6647 28.739 30.6596 28.7602 30.6702C28.7814 30.6809 28.7923 30.6901 28.7923 30.6989C28.7923 30.7623 28.69 30.9005 28.4858 31.1133C28.2816 31.3265 28.1256 31.4708 28.0181 31.5466C27.8158 31.6941 27.6286 31.7681 27.4565 31.7681C27.2929 31.7681 27.1835 31.6881 27.1274 31.5277C27.1147 31.4772 27.1081 31.4199 27.1081 31.357C27.1081 31.1669 27.1491 30.9667 27.2307 30.7558C27.2132 30.7641 27.134 30.8487 26.9921 31.0088C26.8502 31.1692 26.6856 31.3232 26.4984 31.4708C26.3122 31.6183 26.1434 31.6918 25.993 31.6918Z" fill="#5F6368"/>
<path d="M30.4189 29.8253C30.5179 29.8253 30.5674 29.8771 30.5674 29.9802C30.5674 30.0834 30.5179 30.2258 30.4189 30.4076C30.3199 30.5888 30.2468 30.7368 30.1997 30.8506C30.1181 31.0448 30.0771 31.1998 30.0771 31.3158C30.0771 31.4319 30.094 31.5087 30.1285 31.5466C30.1931 31.6141 30.2812 31.6174 30.393 31.5559C30.5047 31.4948 30.6608 31.3764 30.8607 31.2016C31.0606 31.0268 31.2209 30.8548 31.3412 30.686C31.3581 30.6647 31.3789 30.6596 31.4025 30.6702C31.426 30.6809 31.4378 30.6915 31.4378 30.7017C31.4378 30.7123 31.4336 30.7239 31.4251 30.7364C31.3605 30.8501 31.2445 30.9958 31.0767 31.1729C30.9088 31.3501 30.7475 31.4925 30.5929 31.6003C30.4382 31.708 30.2855 31.7617 30.1351 31.7617C29.9889 31.7575 29.8856 31.7247 29.8253 31.6636C29.7649 31.6026 29.7348 31.5253 29.7348 31.4328C29.7348 31.3399 29.7432 31.2506 29.7607 31.1637C29.7777 31.0772 29.8102 30.9769 29.8573 30.8631C29.9347 30.6818 30.0026 30.5403 30.0606 30.439C30.1186 30.3377 30.1478 30.2711 30.1478 30.2397C30.1478 30.2078 30.1308 30.192 30.0964 30.192C30.0276 30.192 29.8965 30.2744 29.7027 30.439C29.5693 30.5616 29.3726 30.7923 29.1124 31.1318C28.8521 31.4712 28.705 31.6516 28.6706 31.6729C28.5159 31.7487 28.4188 31.7866 28.3801 31.7866C28.3415 31.7866 28.3221 31.7802 28.3221 31.7677C28.3221 31.7552 28.3264 31.7372 28.3349 31.714C28.3434 31.6909 28.3853 31.5758 28.4608 31.369C28.5362 31.1623 28.6178 30.9357 28.7059 30.6887C28.7941 30.4418 28.8479 30.2933 28.8672 30.2425C28.8865 30.192 28.8997 30.1486 28.9059 30.1125C28.9125 30.0769 28.9195 30.0459 28.9285 30.0209C28.937 29.9955 28.953 29.9673 28.9771 29.9354C29.0006 29.9035 29.0318 29.8868 29.0704 29.8845C29.1091 29.8827 29.1586 29.8868 29.2189 29.897C29.2793 29.9076 29.3095 29.934 29.3095 29.9761C29.3095 30.0057 29.2859 30.07 29.2383 30.1689C29.1911 30.2679 29.0553 30.6087 28.8318 31.191C28.9865 31.0055 29.1822 30.7914 29.4189 30.5486C29.6551 30.3058 29.8555 30.1213 30.0191 29.995C30.1822 29.8822 30.3156 29.8253 30.4189 29.8253Z" fill="#5F6368"/>
<path d="M33.0575 29.8253C33.1565 29.8253 33.206 29.8771 33.206 29.9802C33.206 30.0834 33.1565 30.2258 33.0575 30.4076C32.9584 30.5888 32.8854 30.7368 32.8382 30.8506C32.7566 31.0448 32.7156 31.1998 32.7156 31.3158C32.7156 31.4319 32.7326 31.5087 32.767 31.5466C32.8316 31.6141 32.9198 31.6174 33.0315 31.5559C33.1433 31.4948 33.2993 31.3764 33.4993 31.2016C33.6992 31.0268 33.8595 30.8548 33.9797 30.686C33.9967 30.6647 34.0174 30.6596 34.041 30.6702C34.0646 30.6809 34.0764 30.6915 34.0764 30.7017C34.0764 30.7123 34.0721 30.7239 34.0636 30.7364C33.999 30.8501 33.8831 30.9958 33.7152 31.1729C33.5473 31.3501 33.3861 31.4925 33.2314 31.6003C33.0763 31.708 32.924 31.7617 32.7736 31.7617C32.6274 31.7575 32.5242 31.7247 32.4638 31.6636C32.4035 31.6026 32.3733 31.5253 32.3733 31.4328C32.3733 31.3399 32.3818 31.2506 32.3992 31.1637C32.4162 31.0772 32.4487 30.9769 32.4959 30.8631C32.5732 30.6818 32.6411 30.5403 32.6991 30.439C32.7571 30.3377 32.7863 30.2711 32.7863 30.2397C32.7863 30.2078 32.7694 30.192 32.7349 30.192C32.6661 30.192 32.535 30.2744 32.3412 30.439C32.2078 30.5616 32.0112 30.7923 31.7509 31.1318C31.4907 31.4712 31.3436 31.6516 31.3091 31.6729C31.1545 31.7487 31.0574 31.7866 31.0187 31.7866C30.98 31.7866 30.9607 31.7802 30.9607 31.7677C30.9607 31.7552 30.9649 31.7372 30.9734 31.714C30.9819 31.6909 31.0239 31.5758 31.0993 31.369C31.1748 31.1623 31.2563 30.9357 31.3445 30.6887C31.4327 30.4418 31.4864 30.2933 31.5057 30.2425C31.5251 30.192 31.5383 30.1486 31.5444 30.1125C31.551 30.0769 31.5581 30.0459 31.567 30.0209C31.5755 29.9955 31.5916 29.9673 31.6156 29.9354C31.6392 29.9035 31.6703 29.8868 31.709 29.8845C31.7476 29.8827 31.7971 29.8868 31.8575 29.897C31.9178 29.9076 31.948 29.934 31.948 29.9761C31.948 30.0057 31.9244 30.07 31.8768 30.1689C31.8297 30.2679 31.6939 30.6087 31.4704 31.191C31.625 31.0055 31.8207 30.7914 32.0574 30.5486C32.2936 30.3058 32.494 30.1213 32.6576 29.995C32.8208 29.8822 32.9542 29.8253 33.0575 29.8253Z" fill="#5F6368"/>
<path d="M35.3867 29.7809C35.6187 29.7809 35.7351 29.8905 35.7351 30.1102C35.7351 30.224 35.7031 30.3169 35.6385 30.3886C35.531 30.5449 35.357 30.6809 35.1161 30.797C34.8751 30.913 34.671 30.9773 34.5031 30.9898C34.4428 30.994 34.4107 30.9773 34.4065 30.9394C34.4022 30.9227 34.4074 30.9121 34.4225 30.9075C34.4376 30.9033 34.4494 30.901 34.4578 30.901C34.5569 30.8927 34.6837 30.8464 34.8388 30.7618C35.1269 30.6101 35.3377 30.4538 35.4711 30.2933C35.5267 30.2175 35.555 30.1449 35.555 30.075C35.555 30.0052 35.5206 29.9705 35.4518 29.9705C35.3957 29.9705 35.3207 29.9936 35.2259 30.0404C35.0236 30.1333 34.811 30.2947 34.587 30.5246C34.3635 30.7544 34.2169 30.9792 34.1481 31.1984C34.1264 31.2659 34.116 31.3325 34.116 31.3977C34.116 31.4634 34.1438 31.5253 34.1999 31.5845C34.2556 31.6437 34.3419 31.6733 34.4578 31.6733C34.587 31.6733 34.7351 31.6396 34.9029 31.5721C35.3891 31.3783 35.763 31.0846 36.0256 30.6924C36.0515 30.6587 36.0751 30.6522 36.0968 30.6735C36.1138 30.6818 36.1227 30.6924 36.1227 30.7054C36.1227 30.7179 36.1161 30.7327 36.1034 30.7498C35.9742 30.9607 35.8106 31.1484 35.613 31.3131C35.2302 31.6336 34.8582 31.794 34.497 31.794C34.1872 31.794 33.9698 31.7034 33.8454 31.5221C33.7977 31.4504 33.7742 31.3639 33.7742 31.2627C33.7742 31.1614 33.802 31.0411 33.8581 30.9019C33.9656 30.6615 34.1957 30.4145 34.5484 30.1615C34.9006 29.9072 35.1802 29.7809 35.3867 29.7809Z" fill="#5F6368"/>
<path d="M36.8058 31.7806C36.5866 31.7806 36.4767 31.6507 36.4767 31.3912C36.4767 31.1318 36.6658 30.8122 37.0444 30.4325C37.0746 30.4029 37.0958 30.3798 37.109 30.3627L37.1542 30.2993C37.2146 30.2193 37.2424 30.1685 37.2382 30.1477L37.2188 30.0908C37.2019 30.0404 37.1307 30.0034 37.0057 29.9802C36.8808 29.9571 36.7799 29.9456 36.7026 29.9456C36.3154 30.4816 36.092 30.7872 36.0316 30.8631C35.9713 30.9389 35.9307 30.9708 35.909 30.9579C35.8873 30.9454 35.877 30.9306 35.877 30.9135C35.877 30.8969 35.8897 30.8714 35.9156 30.8377C36.1481 30.5592 36.348 30.2619 36.5158 29.9456C36.4644 29.9372 36.4258 29.9192 36.3998 29.8919C36.3739 29.8646 36.3716 29.8179 36.3932 29.7527C36.4149 29.6875 36.4805 29.5996 36.5899 29.49C36.6992 29.3804 36.7954 29.3064 36.877 29.2685C36.9586 29.2306 37.0104 29.2075 37.0317 29.1987C37.0533 29.1903 37.0769 29.1862 37.1029 29.1862C37.1542 29.1862 37.1373 29.262 37.0515 29.4142L36.7997 29.8064C36.9935 29.8188 37.159 29.8253 37.2966 29.8253L37.5225 29.8188C37.5956 29.8188 37.6493 29.8281 37.6837 29.8475C37.7182 29.8665 37.7266 29.8993 37.7097 29.9456C37.6795 30.0256 37.6041 30.1333 37.4838 30.2684C37.2259 30.5639 37.0321 30.8779 36.9034 31.2113C36.8732 31.2913 36.8581 31.3612 36.8581 31.4204C36.8581 31.5429 36.9034 31.604 36.9935 31.604C37.0236 31.604 37.0807 31.5808 37.1646 31.5341C37.2485 31.4879 37.3895 31.3769 37.5871 31.2021C37.7846 31.0273 37.944 30.8552 38.0647 30.6864C38.0817 30.6652 38.1024 30.6601 38.126 30.6707C38.1496 30.6813 38.1614 30.692 38.1614 30.7022C38.1614 30.7128 38.1571 30.7243 38.1486 30.7368C38.084 30.8506 37.9681 30.9963 37.8002 31.1734C37.6323 31.3505 37.4687 31.4939 37.3098 31.6035C37.1542 31.7214 36.9864 31.7806 36.8058 31.7806Z" fill="#5F6368"/>
<path d="M6.82269 25.1719V24.6572H10.0251V16.0863L3.45759 1.62401H0.563049V1.10928H10.0251V1.62401H7.38378L13.3181 14.5602L18.0944 3.94837C18.2391 3.62881 18.3386 3.37168 18.3928 3.17652C18.4471 2.98135 18.4744 2.80099 18.4744 2.63543C18.4744 2.26869 18.3146 2.00878 17.9949 1.85478C17.6752 1.70124 17.1292 1.62401 16.3574 1.62401H16.0136V1.10928H22.3275V1.62401H21.7664C21.0304 1.62401 20.4788 1.7424 20.111 1.97872C19.7427 2.21551 19.366 2.74781 18.9803 3.57562L13.6434 15.394V24.6568H16.7916V25.1715H6.82269V25.1719Z" fill="#EFB8A9"/>
<path d="M37.093 16.5654H37.5636V24.6928H37.093C36.9964 24.137 36.8488 23.7143 36.6498 23.4243C36.4509 23.1343 36.2005 22.9896 35.8992 22.9896C35.5974 22.9896 35.0609 23.2499 34.289 23.7702C34.0599 23.9242 33.885 24.0366 33.7643 24.1074L33.7279 24.143C32.172 25.1724 30.6585 25.6867 29.1869 25.6867C27.812 25.6867 26.4579 25.3523 25.1254 24.6841C23.7925 24.0158 22.5774 23.0663 21.4798 21.8357C20.4307 20.6412 19.6555 19.3782 19.1548 18.0472C18.6541 16.7162 18.4042 15.2525 18.4042 13.6551C18.4042 11.8335 18.6875 10.1121 19.2543 8.4912C19.821 6.87071 20.6292 5.46296 21.6787 4.26794C22.716 3.09651 23.8948 2.1947 25.2155 1.56204C26.5361 0.929385 27.9139 0.612595 29.3496 0.612595C30.7971 0.612595 32.371 1.10374 34.0717 2.08555C34.1801 2.14475 34.2706 2.19793 34.3433 2.24511C34.4635 2.31586 34.6328 2.41668 34.8496 2.54664C35.4164 2.90135 35.8266 3.07894 36.0798 3.07894C36.3933 3.07894 36.6343 2.95453 36.8035 2.70619C36.9723 2.45784 37.0685 2.09712 37.093 1.62355H37.5636V8.8103H37.093C36.8516 6.57427 36.0194 4.7318 34.5965 3.28288C33.173 1.83397 31.5086 1.10929 29.6033 1.10929C27.2269 1.10929 25.4541 2.13596 24.2843 4.18793C23.114 6.24037 22.5293 9.34908 22.5293 13.5131C22.5293 15.3353 22.6467 16.9497 22.882 18.3575C23.1173 19.7652 23.4577 20.8715 23.9042 21.6757C24.4832 22.7403 25.2579 23.5834 26.2292 24.2045C27.2 24.8256 28.1982 25.1359 29.2232 25.1359C30.4534 25.1359 31.6566 24.79 32.8326 24.0976C34.0085 23.4053 35.0062 22.4443 35.8266 21.2142C36.1882 20.6819 36.4688 20.0547 36.6678 19.3333C36.8672 18.6123 37.0086 17.6892 37.093 16.5654Z" fill="#EFB8A9"/>
<path d="M51.2569 23.1574C45.804 32.6505 35.324 38.4619 24.4417 39.6578C23.3842 39.7804 22.2672 39.8461 21.2054 39.8928C20.8371 39.8988 20.1558 39.9076 19.7857 39.9117C19.2401 39.8979 18.507 39.89 17.9619 39.8553C17.5757 39.828 17.1335 39.8095 16.7487 39.7785C16.2966 39.7295 15.587 39.6773 15.1371 39.6111C14.9349 39.582 14.1451 39.4765 13.9339 39.4456C13.4859 39.3642 12.7862 39.256 12.3407 39.1625C10.0977 38.7061 7.88829 38.0743 5.77173 37.2285C10.2279 38.7052 14.9014 39.4659 19.5829 39.4248C32.0932 39.3336 44.4206 33.643 51.2569 23.1574Z" fill="#EFB8A9"/>
<path d="M44.7813 28.4703C35.9732 38.3902 21.4043 42.6421 8.34705 40.37C21.4623 41.7778 35.3895 37.7474 44.7813 28.4703Z" fill="#EFB8A9"/>
</svg>
