<svg width="50" height="45" viewBox="0 0 50 45" fill="none" xmlns="http://www.w3.org/2000/svg">
<path d="M9.26994 30.7304C9.29957 30.7327 9.32596 30.744 9.34911 30.7645C9.37226 30.7854 9.40837 30.8535 9.45698 30.9697C9.50559 31.086 9.52966 31.1822 9.52966 31.2585C9.52966 31.3353 9.52041 31.4161 9.50096 31.501C9.48198 31.5859 9.45142 31.6286 9.40929 31.6286C9.33753 31.6286 9.27828 31.5469 9.23198 31.3829C9.18522 31.2195 9.15189 31.1168 9.13059 31.0755C9.01253 30.8312 8.88568 30.6528 8.7505 30.5411C8.62781 30.4293 8.50328 30.3735 8.37689 30.3735C8.32179 30.3735 8.26716 30.3839 8.21207 30.4044C7.9417 30.5161 7.80652 30.7772 7.80652 31.1872C7.80652 31.3198 7.83198 31.476 7.88244 31.6563C7.93337 31.8366 8.01115 31.9951 8.1167 32.1317C8.138 32.1567 8.24957 32.1772 8.45235 32.194C8.55791 32.2062 8.61902 32.2425 8.63615 32.3025C8.65281 32.3624 8.62781 32.4092 8.56022 32.4423C8.52226 32.4882 8.37642 32.4755 8.12318 32.4051C8.05559 32.3888 8.01115 32.3783 7.99031 32.3738C7.76207 32.3779 7.50466 32.4278 7.21763 32.5232C6.93059 32.6185 6.6667 32.7647 6.42596 32.9614C6.18522 33.158 6.06485 33.3746 6.06485 33.6107C6.06485 33.7887 6.13892 33.9327 6.28661 34.0426C6.43429 34.1525 6.67179 34.2074 6.99911 34.2074C7.32642 34.2074 7.6917 34.1575 8.09494 34.058C8.49818 33.9586 8.81485 33.8509 9.04541 33.7347C9.2755 33.6189 9.50235 33.455 9.72642 33.2438C9.95003 33.0327 10.0621 32.8506 10.0621 32.6971C10.0621 32.6721 10.0611 32.6517 10.0588 32.6349C10.0565 32.6185 10.0598 32.6081 10.0686 32.604C10.094 32.5917 10.1148 32.5936 10.132 32.6104C10.1866 32.7139 10.2144 32.7947 10.2144 32.8528C10.2144 33.0227 10.1574 33.1762 10.0436 33.3128C9.84494 33.549 9.62133 33.7356 9.37226 33.8723C9.12318 34.009 8.78198 34.1248 8.34911 34.2201C7.91624 34.3155 7.55605 34.3632 7.26902 34.3632C6.98152 34.3632 6.738 34.3382 6.53754 34.2887C6.33707 34.2392 6.16254 34.1397 6.01485 33.9903C5.86716 33.8414 5.79309 33.658 5.79309 33.4404C5.79309 33.2229 5.84679 33.0386 5.95466 32.8874C6.06254 32.7361 6.19124 32.6194 6.34124 32.5363C6.49124 32.4537 6.67179 32.3851 6.88291 32.3311C7.19541 32.2484 7.54402 32.1967 7.92828 32.1758C7.65374 31.8693 7.49124 31.5151 7.44031 31.1132C7.43615 31.0678 7.43383 31.0242 7.43383 30.9829C7.43383 30.8335 7.47087 30.6959 7.54448 30.5697C7.61855 30.4434 7.7417 30.3531 7.91531 30.2995C8.08846 30.2459 8.21716 30.2186 8.30189 30.2186C8.38615 30.2186 8.44865 30.2241 8.48892 30.2341C8.5292 30.2445 8.56392 30.255 8.59355 30.265C8.62318 30.2754 8.65281 30.2899 8.68244 30.3086C8.71207 30.3272 8.73707 30.3426 8.75837 30.3553C8.77966 30.3676 8.80466 30.3876 8.83429 30.4144C8.86392 30.4411 8.88476 30.4598 8.89772 30.4702C8.91022 30.4807 8.93337 30.5015 8.96763 30.5324C9.00142 30.5633 9.02226 30.581 9.03105 30.5851C9.09448 30.6596 9.15559 30.7032 9.21485 30.7154C9.22133 30.7231 9.24031 30.7281 9.26994 30.7304Z" fill="#635D54"/>
<path d="M10.7648 32.5094C10.7648 32.3106 10.7056 32.2111 10.5875 32.2111C10.562 32.2111 10.5357 32.2143 10.5083 32.2206C10.481 32.227 10.4671 32.2215 10.4671 32.2052C10.4671 32.1889 10.4796 32.168 10.5051 32.143C10.5306 32.1221 10.6171 32.1058 10.7648 32.0935C10.9421 32.0935 11.0532 32.1185 11.0972 32.168C11.1417 32.2175 11.1639 32.2674 11.1639 32.3169C11.1639 32.3664 11.125 32.4899 11.0468 32.6865C10.9685 32.8832 10.9273 32.9858 10.9232 32.994C10.7963 33.3668 10.7394 33.6006 10.7523 33.696C11.1324 33.1947 11.3815 32.8823 11.5 32.7578C11.7491 32.4886 11.9264 32.3042 12.032 32.2047C12.2769 31.9809 12.4921 31.8297 12.6782 31.7511C12.7329 31.7302 12.7815 31.7202 12.8241 31.7202C12.9634 31.7202 13.0583 31.7616 13.1093 31.8447C13.1259 31.8655 13.1347 31.8851 13.1347 31.9037C13.1347 31.9223 13.1282 31.9441 13.1157 31.9691C13.1032 31.994 13.0796 31.9927 13.0458 31.9659C13.012 31.9391 12.9361 31.9255 12.8176 31.9255C12.6232 31.9255 12.2982 32.1493 11.8421 32.5966C11.5676 32.8741 11.3153 33.1642 11.0852 33.4667C10.8551 33.7691 10.7315 33.9843 10.7148 34.1129C10.7148 34.146 10.6833 34.1623 10.6199 34.1623C10.5565 34.1623 10.5093 34.1365 10.4773 34.0847C10.4458 34.0329 10.4296 33.9893 10.4296 33.9544C10.4296 33.919 10.432 33.8881 10.4361 33.8613C10.4403 33.8345 10.4824 33.6819 10.563 33.4045C10.6431 33.127 10.694 32.9426 10.7148 32.8514C10.6639 32.9345 10.5945 33.0357 10.5056 33.1561C10.4759 33.1892 10.4519 33.1988 10.4329 33.1842C10.4139 33.1697 10.4042 33.1561 10.4042 33.1438C10.4042 33.1316 10.4083 33.117 10.4167 33.1002C10.594 32.8636 10.7102 32.667 10.7648 32.5094Z" fill="#635D54"/>
<path d="M13.8945 32.0871C14.1227 32.0871 14.2366 32.1947 14.2366 32.4104C14.2366 32.5221 14.2051 32.6134 14.1417 32.6838C14.0362 32.8373 13.8649 32.9708 13.6287 33.0848C13.3922 33.1987 13.1917 33.2619 13.0269 33.2741C12.9676 33.2782 12.9362 33.2619 12.932 33.2246C12.9278 33.2083 12.9329 33.1978 12.9477 33.1933C12.9625 33.1892 12.9741 33.1869 12.9825 33.1869C13.0797 33.1788 13.2042 33.1334 13.3561 33.0503C13.6389 32.9013 13.8459 32.7478 13.9769 32.5903C14.0315 32.5158 14.0593 32.4445 14.0593 32.3759C14.0593 32.3074 14.0255 32.2733 13.9579 32.2733C13.9028 32.2733 13.8292 32.296 13.7362 32.3419C13.5375 32.4331 13.3287 32.5916 13.1088 32.8173C12.8894 33.043 12.7454 33.2637 12.6783 33.4789C12.657 33.5452 12.6468 33.6106 12.6468 33.6746C12.6468 33.7391 12.6741 33.8 12.7292 33.8581C12.7838 33.9162 12.8686 33.9453 12.9825 33.9453C13.1093 33.9453 13.2547 33.9121 13.4195 33.8458C13.8968 33.6556 14.2639 33.3672 14.5218 32.9821C14.5473 32.949 14.5704 32.9426 14.5917 32.9635C14.6084 32.9717 14.6172 32.9821 14.6172 32.9949C14.6172 33.0071 14.6107 33.0217 14.5982 33.0385C14.4713 33.2455 14.3112 33.4299 14.1167 33.5915C13.7408 33.9062 13.3755 34.0638 13.0209 34.0638C12.7167 34.0638 12.5033 33.9748 12.3811 33.7968C12.3348 33.7264 12.3112 33.6415 12.3112 33.542C12.3112 33.4426 12.3385 33.3245 12.3936 33.1879C12.4991 32.9517 12.725 32.7092 13.0713 32.4608C13.4172 32.2111 13.6917 32.0871 13.8945 32.0871Z" fill="#635D54"/>
<path d="M16.219 32.1307C16.3162 32.1307 16.3648 32.1816 16.3648 32.2828C16.3648 32.3841 16.3162 32.524 16.219 32.7024C16.1218 32.8804 16.05 33.0257 16.0037 33.1375C15.9236 33.3282 15.8834 33.4803 15.8834 33.5943C15.8834 33.7082 15.9 33.7836 15.9343 33.8209C15.9977 33.8872 16.0843 33.8903 16.194 33.8299C16.3037 33.77 16.457 33.6538 16.6533 33.4821C16.8496 33.3105 17.007 33.1415 17.125 32.9758C17.1417 32.9549 17.1621 32.9499 17.1852 32.9604C17.2084 32.9708 17.2199 32.9812 17.2199 32.9912C17.2199 33.0017 17.2158 33.013 17.2074 33.0253C17.144 33.137 17.0301 33.28 16.8653 33.454C16.7005 33.6279 16.5422 33.7677 16.3903 33.8735C16.2385 33.9793 16.0885 34.032 15.9403 34.032C15.7968 34.0279 15.6954 33.9957 15.6361 33.9357C15.5769 33.8758 15.5473 33.8 15.5473 33.7092C15.5473 33.6179 15.5556 33.5302 15.5727 33.4449C15.5894 33.36 15.6213 33.2614 15.6676 33.1497C15.7436 32.9717 15.8102 32.8328 15.8672 32.7333C15.9241 32.6339 15.9528 32.5685 15.9528 32.5376C15.9528 32.5063 15.9361 32.4908 15.9023 32.4908C15.8348 32.4908 15.7061 32.5716 15.5158 32.7333C15.3848 32.8536 15.1917 33.0802 14.9361 33.4135C14.6806 33.7468 14.5361 33.9239 14.5023 33.9448C14.3505 34.0193 14.2551 34.0565 14.2172 34.0565C14.1792 34.0565 14.1602 34.0502 14.1602 34.0379C14.1602 34.0257 14.1644 34.0079 14.1727 33.9852C14.1811 33.9625 14.2223 33.8495 14.2963 33.6465C14.3704 33.4435 14.4505 33.221 14.5371 32.9785C14.6236 32.736 14.6764 32.5903 14.6954 32.5403C14.7144 32.4908 14.7269 32.4481 14.7334 32.4127C14.7398 32.3778 14.7468 32.3473 14.7556 32.3228C14.7639 32.2978 14.7797 32.2701 14.8033 32.2388C14.8264 32.2075 14.857 32.1911 14.8949 32.1888C14.9329 32.187 14.9815 32.1911 15.0408 32.2011C15.1 32.2116 15.1297 32.2374 15.1297 32.2788C15.1297 32.3078 15.1065 32.3709 15.0598 32.4681C15.013 32.5653 14.8801 32.9 14.6607 33.4717C14.8125 33.2896 15.0047 33.0793 15.2371 32.8409C15.4695 32.6025 15.6658 32.4213 15.8264 32.2974C15.9871 32.1866 16.1181 32.1307 16.219 32.1307Z" fill="#635D54"/>
<path d="M18.0565 32.1553C18.3815 32.1262 18.5792 32.1117 18.6487 32.1117C18.7181 32.1117 18.7533 32.1221 18.7533 32.1425C18.7533 32.1675 18.7038 32.1934 18.6047 32.2202C18.5056 32.247 18.2635 32.2815 17.8792 32.3228C17.8579 32.36 17.8329 32.4036 17.8033 32.4531C17.7399 32.5526 17.7061 32.6125 17.7019 32.6334C17.4612 33.1057 17.3343 33.4058 17.3218 33.5343C17.3177 33.5716 17.3153 33.6192 17.3153 33.6774C17.3153 33.7355 17.332 33.7832 17.3658 33.8204C17.4251 33.8867 17.5093 33.8908 17.619 33.8327C17.7288 33.7746 17.882 33.6588 18.0783 33.4848C18.2746 33.3109 18.4339 33.1411 18.5565 32.9753C18.5732 32.9545 18.5945 32.9504 18.62 32.9631C18.6834 32.9921 18.5732 33.1556 18.2903 33.454C18.02 33.7396 17.794 33.9158 17.6126 33.9821C17.507 34.0193 17.4181 34.0379 17.3464 34.0379C17.1774 34.0379 17.0653 33.9594 17.0107 33.8018C17.0024 33.7727 16.9982 33.7378 16.9982 33.696C16.9982 33.5511 17.0658 33.3314 17.201 33.0376C17.1797 33.083 17.0973 33.1865 16.9538 33.3482C16.9158 33.3895 16.8862 33.3895 16.8649 33.3482C16.8607 33.34 16.8584 33.3286 16.8584 33.3141C16.8584 33.2996 16.8667 33.2819 16.8839 33.2614C17.0908 33.0089 17.2533 32.7955 17.3718 32.6216C17.3718 32.6175 17.4181 32.5308 17.5112 32.3605C17.469 32.3687 17.4255 32.3728 17.3815 32.3728C17.3376 32.3728 17.3042 32.3596 17.2834 32.3323C17.2621 32.3056 17.2602 32.2733 17.2769 32.2361C17.3065 32.1698 17.4186 32.1325 17.6126 32.1244C17.6167 32.1162 17.6251 32.1121 17.638 32.1121L17.9547 31.534C17.9714 31.5009 17.9903 31.4668 18.0116 31.4314C18.0329 31.3965 18.0487 31.3692 18.0593 31.3506C18.07 31.332 18.0815 31.3125 18.094 31.2916C18.1065 31.2707 18.1172 31.2566 18.1255 31.248C18.1339 31.2398 18.1422 31.2316 18.151 31.223C18.1677 31.198 18.2177 31.1858 18.3001 31.1858C18.3825 31.1858 18.4385 31.2085 18.4681 31.2543C18.4806 31.2707 18.4871 31.2988 18.4871 31.3383C18.4871 31.3778 18.4723 31.4214 18.4427 31.4687C18.413 31.5163 18.3815 31.5504 18.3477 31.5713C18.314 31.5922 18.2908 31.6149 18.2778 31.6399L17.9737 32.1616L18.0565 32.1553Z" fill="#635D54"/>
<path d="M20.7107 33.7895C20.7107 33.8436 20.738 33.8704 20.7931 33.8704C20.8477 33.8704 20.9218 33.8136 21.0149 33.6996C21.1079 33.5856 21.1709 33.5307 21.2047 33.5348C21.2301 33.5598 21.2024 33.6133 21.1223 33.6964C21.1139 33.7046 21.0991 33.7264 21.0778 33.7618C21.0565 33.7972 21.0389 33.8249 21.0241 33.8458C21.0093 33.8667 20.9894 33.8935 20.9639 33.9267C20.9385 33.9598 20.9153 33.9866 20.894 34.0075C20.8727 34.0284 20.8496 34.0488 20.8241 34.0697C20.7737 34.111 20.7292 34.1319 20.6912 34.1319C20.6533 34.1319 20.6014 34.1247 20.5362 34.1101C20.4704 34.0956 20.4371 34.0801 20.4348 34.0633C20.4325 34.047 20.4315 34.0325 20.4315 34.0198C20.4315 33.8045 20.6112 33.3631 20.97 32.6965C20.9149 32.6965 20.8718 32.6943 20.8403 32.6902C20.8088 32.6861 20.7894 32.6693 20.7834 32.6407C20.7769 32.6116 20.7857 32.5953 20.8088 32.5912C20.832 32.5871 20.8565 32.5871 20.8815 32.5912C20.907 32.5953 20.9514 32.5975 21.0144 32.5975C21.2297 32.2165 21.3584 31.9836 21.401 31.8987C21.4431 31.8138 21.4644 31.7525 21.4644 31.7152C21.4644 31.678 21.4621 31.6489 21.4579 31.628C21.4746 31.5122 21.5774 31.3601 21.7653 31.1712C21.9533 30.9828 22.1232 30.8883 22.2755 30.8883C22.326 30.8883 22.395 30.9069 22.4815 30.9442C22.5681 30.9814 22.6176 31.0241 22.6306 31.0718C22.6431 31.1195 22.6463 31.1462 22.6403 31.1526C22.6338 31.159 22.6204 31.1581 22.5991 31.1494C22.5778 31.1413 22.5653 31.1372 22.5612 31.1372C22.257 31.1372 21.8241 31.624 21.2625 32.5975C21.7227 32.5766 22.195 32.4867 22.6783 32.3273C23.1616 32.168 23.5325 31.9577 23.7899 31.6966C23.9375 31.5558 24.0116 31.4069 24.0116 31.2493C24.0116 30.7852 23.5278 30.5537 22.5612 30.5537C22.0079 30.5537 21.4801 30.6368 20.9774 30.802C20.7153 30.8933 20.4926 31.0155 20.3088 31.1685C20.125 31.322 20.0162 31.4959 19.9825 31.6903C19.9783 31.7111 19.976 31.7379 19.976 31.7711C19.976 31.8042 19.9899 31.8446 20.0172 31.8923C20.0445 31.94 20.0774 31.9763 20.1153 32.0013C20.1533 32.0263 20.207 32.0553 20.2769 32.0885C20.3468 32.1216 20.3931 32.1466 20.4162 32.163C20.4394 32.1798 20.445 32.197 20.432 32.2156C20.4195 32.2343 20.3917 32.2397 20.3496 32.2311C20.2186 32.2102 20.0963 32.1462 19.982 32.0385C19.8681 31.9309 19.8112 31.8147 19.8112 31.6907C19.8112 31.6535 19.8153 31.6162 19.8237 31.579C19.8153 31.5254 19.8112 31.4918 19.8112 31.4796C19.8704 31.169 20.1806 30.8729 20.7422 30.5909C21.1857 30.3879 21.7093 30.2862 22.3135 30.2862C22.6852 30.2862 23.0524 30.3357 23.4158 30.4356C23.6607 30.5187 23.8463 30.6368 23.9732 30.7898C24.1 30.9433 24.163 31.0986 24.163 31.2557C24.163 31.4959 24.0658 31.7084 23.8718 31.8923C23.6774 32.0767 23.4602 32.2188 23.2195 32.3178C22.6491 32.558 21.9778 32.6865 21.2051 32.7029C21.0403 33.0012 20.9167 33.2433 20.8343 33.4299C20.7519 33.6156 20.7107 33.7359 20.7107 33.7895Z" fill="#635D54"/>
<path d="M23.5866 33.0998C23.5362 33.2405 23.5084 33.335 23.5042 33.3827C23.5001 33.4303 23.4977 33.4944 23.4977 33.5752C23.4977 33.656 23.5186 33.7296 23.5612 33.7959C23.6329 33.9076 23.7533 33.9158 23.9223 33.8209C24.0491 33.7546 24.2093 33.6333 24.4038 33.4571C24.5977 33.2809 24.7477 33.1206 24.8538 32.9758C24.8621 32.9635 24.8751 32.9572 24.8917 32.9572C24.9297 32.9572 24.9403 32.9844 24.9232 33.038C24.8598 33.1497 24.7427 33.2928 24.5718 33.4667C24.401 33.6406 24.2454 33.7786 24.1061 33.8799C23.9667 33.9812 23.8274 34.032 23.688 34.032C23.3672 34.032 23.2065 33.879 23.2065 33.572C23.2065 33.5598 23.2065 33.547 23.2065 33.5348C23.2232 33.2451 23.3732 32.8069 23.6561 32.2206C23.9389 31.6344 24.1945 31.1921 24.4227 30.8942L24.619 30.6517C24.6653 30.5982 24.7329 30.5319 24.8218 30.4528C24.9908 30.2953 25.1649 30.2167 25.3445 30.2167C25.5241 30.2167 25.6454 30.2708 25.7089 30.3784C25.7297 30.4156 25.7403 30.4697 25.7403 30.54C25.7403 30.6104 25.7089 30.7099 25.6454 30.8384C25.2102 31.5795 24.5241 32.3337 23.5866 33.0998ZM25.4746 30.7262C25.5251 30.6349 25.5505 30.5646 25.5505 30.5151C25.5505 30.4279 25.5144 30.3847 25.4431 30.3847C25.3839 30.3847 25.3102 30.4179 25.2214 30.4842C24.8834 30.7412 24.5561 31.1472 24.2394 31.7021C23.9862 32.1493 23.8001 32.5326 23.682 32.8514C23.9732 32.6566 24.2996 32.3401 24.6607 31.901C25.0214 31.4618 25.2927 31.07 25.4746 30.7262Z" fill="#635D54"/>
<path d="M25.0815 33.9635C25.0139 33.9635 24.9412 33.9439 24.863 33.9044C24.7848 33.8649 24.7181 33.8091 24.6635 33.7369C24.6084 33.6642 24.5811 33.587 24.5811 33.5039C24.5811 33.4213 24.6 33.3423 24.638 33.2678C24.7223 33.0939 24.8584 32.9249 25.0468 32.7615C25.2348 32.598 25.4301 32.4581 25.6329 32.3419C25.8357 32.2261 25.9959 32.1534 26.1144 32.1244C26.2324 32.0953 26.3477 32.0808 26.4598 32.0808C26.5718 32.0808 26.6676 32.1089 26.7482 32.1648C26.8283 32.2206 26.8686 32.2797 26.8686 32.3419C26.8686 32.3628 26.8662 32.375 26.8621 32.3791C26.8579 32.3832 26.8473 32.3814 26.8301 32.3728C26.7797 32.2942 26.675 32.2547 26.5167 32.2547C26.3584 32.2547 26.1787 32.3056 25.9783 32.4068C25.7778 32.5085 25.5885 32.6357 25.4111 32.7892C25.2635 32.9258 25.1334 33.0802 25.0213 33.2519C24.9093 33.424 24.8533 33.5493 24.8533 33.6279C24.8533 33.7814 24.8977 33.8576 24.9861 33.8576C25.075 33.8576 25.2098 33.7873 25.3917 33.6465C25.6917 33.3981 25.8963 33.2156 26.0061 33.0998C26.3945 32.6897 26.6037 32.4845 26.6334 32.4845C26.6838 32.4845 26.7454 32.499 26.8172 32.5281C26.8889 32.5571 26.9121 32.5921 26.8871 32.6339C26.6718 32.9322 26.5449 33.2324 26.507 33.5348C26.5028 33.572 26.5005 33.6197 26.5005 33.6778C26.5005 33.736 26.5172 33.7836 26.551 33.8209C26.6144 33.8872 26.701 33.8913 26.8107 33.8331C26.9204 33.775 27.0736 33.6592 27.2699 33.4853C27.4662 33.3114 27.6236 33.1415 27.7417 32.9758C27.7584 32.9549 27.7778 32.9499 27.7986 32.9604C27.8195 32.9708 27.8301 32.9799 27.8301 32.9885C27.8301 33.0507 27.7297 33.1865 27.5292 33.3954C27.3287 33.6047 27.1755 33.7464 27.0699 33.8209C26.8713 33.9657 26.6875 34.0384 26.5186 34.0384C26.3579 34.0384 26.2505 33.9598 26.1954 33.8022C26.1829 33.7528 26.1764 33.6964 26.1764 33.6347C26.1764 33.4481 26.2167 33.2514 26.2968 33.0444C26.2797 33.0525 26.2019 33.1356 26.0625 33.2928C25.9232 33.4503 25.7616 33.6015 25.5778 33.7464C25.3949 33.8913 25.2292 33.9635 25.0815 33.9635Z" fill="#635D54"/>
<path d="M29.4273 32.1307C29.5245 32.1307 29.5732 32.1816 29.5732 32.2828C29.5732 32.3841 29.5245 32.524 29.4273 32.7024C29.3301 32.8804 29.2583 33.0257 29.212 33.1375C29.132 33.3282 29.0917 33.4803 29.0917 33.5943C29.0917 33.7082 29.1083 33.7836 29.1421 33.8209C29.2056 33.8872 29.2921 33.8903 29.4019 33.8299C29.5116 33.77 29.6648 33.6538 29.8611 33.4821C30.0574 33.3105 30.2148 33.1415 30.3329 32.9758C30.3495 32.9549 30.3699 32.9499 30.3931 32.9604C30.4162 32.9708 30.4278 32.9812 30.4278 32.9912C30.4278 33.0017 30.4236 33.013 30.4153 33.0253C30.3519 33.137 30.238 33.28 30.0732 33.454C29.9083 33.6279 29.75 33.7677 29.5982 33.8735C29.4463 33.9793 29.2963 34.032 29.1486 34.032C29.0051 34.0279 28.9037 33.9957 28.8445 33.9357C28.7852 33.8758 28.7556 33.8 28.7556 33.7092C28.7556 33.6179 28.7639 33.5302 28.781 33.4449C28.7977 33.36 28.8296 33.2614 28.8759 33.1497C28.9519 32.9717 29.0185 32.8328 29.0755 32.7333C29.1324 32.6339 29.1611 32.5685 29.1611 32.5376C29.1611 32.5063 29.1445 32.4908 29.1107 32.4908C29.0431 32.4908 28.9144 32.5716 28.7241 32.7333C28.5931 32.8536 28.4 33.0802 28.1445 33.4135C27.8889 33.7468 27.7445 33.9239 27.7107 33.9448C27.5588 34.0193 27.4634 34.0565 27.4255 34.0565C27.3875 34.0565 27.3685 34.0502 27.3685 34.0379C27.3685 34.0257 27.3727 34.0079 27.381 33.9852C27.3894 33.9625 27.4306 33.8495 27.5046 33.6465C27.5787 33.4435 27.6588 33.221 27.7454 32.9785C27.832 32.736 27.8847 32.5903 27.9037 32.5403C27.9227 32.4908 27.9357 32.4481 27.9417 32.4127C27.9482 32.3778 27.9551 32.3473 27.9639 32.3228C27.9722 32.2978 27.988 32.2701 28.0116 32.2388C28.0347 32.2075 28.0653 32.1911 28.1033 32.1888C28.1412 32.187 28.1898 32.1911 28.2491 32.2011C28.3083 32.2116 28.338 32.2374 28.338 32.2788C28.338 32.3078 28.3148 32.3709 28.2681 32.4681C28.2218 32.5653 28.0884 32.9 27.869 33.4717C28.0208 33.2896 28.213 33.0793 28.4454 32.8409C28.6773 32.6025 28.8741 32.4213 29.0347 32.2974C29.1949 32.1866 29.3259 32.1307 29.4273 32.1307Z" fill="#635D54"/>
<path d="M32.0181 32.1307C32.1153 32.1307 32.1639 32.1816 32.1639 32.2828C32.1639 32.3841 32.1153 32.524 32.0181 32.7024C31.9209 32.8804 31.8491 33.0257 31.8028 33.1375C31.7227 33.3282 31.6824 33.4803 31.6824 33.5943C31.6824 33.7082 31.6991 33.7836 31.7329 33.8209C31.7963 33.8872 31.8829 33.8903 31.9926 33.8299C32.1023 33.77 32.2556 33.6538 32.4519 33.4821C32.6482 33.3105 32.8056 33.1415 32.9236 32.9758C32.9403 32.9549 32.9607 32.9499 32.9838 32.9604C33.007 32.9708 33.0185 32.9812 33.0185 32.9912C33.0185 33.0017 33.0144 33.013 33.006 33.0253C32.9426 33.137 32.8287 33.28 32.6639 33.454C32.4991 33.6279 32.3408 33.7677 32.1889 33.8735C32.0366 33.9793 31.8871 34.032 31.7394 34.032C31.5959 34.0279 31.4945 33.9957 31.4352 33.9357C31.376 33.8758 31.3463 33.8 31.3463 33.7092C31.3463 33.6179 31.3547 33.5302 31.3718 33.4449C31.3885 33.36 31.4204 33.2614 31.4667 33.1497C31.5426 32.9717 31.6093 32.8328 31.6662 32.7333C31.7232 32.6339 31.7519 32.5685 31.7519 32.5376C31.7519 32.5063 31.7352 32.4908 31.7014 32.4908C31.6338 32.4908 31.5051 32.5716 31.3148 32.7333C31.1838 32.8536 30.9908 33.0802 30.7352 33.4135C30.4797 33.7468 30.3352 33.9239 30.3014 33.9448C30.1496 34.0193 30.0542 34.0565 30.0162 34.0565C29.9783 34.0565 29.9593 34.0502 29.9593 34.0379C29.9593 34.0257 29.9635 34.0079 29.9718 33.9852C29.9801 33.9625 30.0213 33.8495 30.0954 33.6465C30.1695 33.4435 30.2496 33.221 30.3361 32.9785C30.4227 32.736 30.4755 32.5903 30.4945 32.5403C30.5135 32.4908 30.5264 32.4481 30.5324 32.4127C30.5389 32.3778 30.5459 32.3473 30.5547 32.3228C30.563 32.2978 30.5787 32.2701 30.6023 32.2388C30.6255 32.2075 30.656 32.1911 30.694 32.1888C30.732 32.187 30.7806 32.1911 30.8398 32.2011C30.8991 32.2116 30.9287 32.2374 30.9287 32.2788C30.9287 32.3078 30.9056 32.3709 30.8588 32.4681C30.8125 32.5653 30.6792 32.9 30.4598 33.4717C30.6116 33.2896 30.8037 33.0793 31.0361 32.8409C31.2681 32.6025 31.4648 32.4213 31.6255 32.2974C31.7857 32.1866 31.9167 32.1307 32.0181 32.1307Z" fill="#635D54"/>
<path d="M34.3051 32.0871C34.5329 32.0871 34.6473 32.1947 34.6473 32.4104C34.6473 32.5221 34.6158 32.6134 34.5524 32.6838C34.4468 32.8373 34.276 32.9708 34.0394 33.0848C33.8028 33.1987 33.6024 33.2619 33.4375 33.2741C33.3783 33.2782 33.3468 33.2619 33.3426 33.2246C33.3385 33.2083 33.3436 33.1978 33.3584 33.1933C33.3732 33.1892 33.3848 33.1869 33.3931 33.1869C33.4903 33.1788 33.6149 33.1334 33.7672 33.0503C34.05 32.9013 34.257 32.7478 34.388 32.5903C34.4426 32.5158 34.4704 32.4445 34.4704 32.3759C34.4704 32.3074 34.4366 32.2733 34.369 32.2733C34.3139 32.2733 34.2403 32.296 34.1473 32.3419C33.9487 32.4331 33.7399 32.5916 33.52 32.8173C33.3005 33.043 33.1565 33.2637 33.0889 33.4789C33.0676 33.5452 33.0574 33.6106 33.0574 33.6746C33.0574 33.7391 33.0848 33.8 33.1399 33.8581C33.1945 33.9162 33.2792 33.9453 33.3931 33.9453C33.5199 33.9453 33.6653 33.9121 33.8301 33.8458C34.3075 33.6556 34.6746 33.3672 34.9325 32.9821C34.9579 32.949 34.9811 32.9426 35.0024 32.9635C35.019 32.9717 35.0278 32.9821 35.0278 32.9949C35.0278 33.0071 35.0213 33.0217 35.0088 33.0385C34.882 33.2455 34.7213 33.4299 34.5274 33.5915C34.1514 33.9062 33.7862 34.0638 33.4315 34.0638C33.1274 34.0638 32.9139 33.9748 32.7917 33.7968C32.745 33.7264 32.7218 33.6415 32.7218 33.542C32.7218 33.4426 32.7491 33.3245 32.8042 33.1879C32.9098 32.9517 33.1357 32.7092 33.482 32.4608C33.8278 32.2111 34.1024 32.0871 34.3051 32.0871Z" fill="#635D54"/>
<path d="M35.6987 34.0506C35.4834 34.0506 35.3755 33.923 35.3755 33.6683C35.3755 33.4135 35.5612 33.0998 35.9329 32.727C35.9625 32.6979 35.9834 32.6752 35.9963 32.6584L36.0408 32.5962C36.1 32.5176 36.1274 32.4677 36.1232 32.4472L36.1042 32.3914C36.0875 32.3419 36.0176 32.3056 35.895 32.2829C35.7723 32.2602 35.6732 32.2488 35.5973 32.2488C35.2172 32.7751 34.9977 33.0752 34.9385 33.1497C34.8792 33.2242 34.8394 33.2555 34.8181 33.2428C34.7968 33.2305 34.7866 33.216 34.7866 33.1992C34.7866 33.1829 34.7991 33.1579 34.8246 33.1247C35.0528 32.8514 35.2491 32.5594 35.4139 32.2488C35.3635 32.2406 35.3255 32.2229 35.3 32.1961C35.2746 32.1693 35.2723 32.1235 35.2936 32.0594C35.3149 31.9954 35.3792 31.9091 35.4866 31.8015C35.594 31.6939 35.6885 31.6212 35.7686 31.584C35.8487 31.5468 35.8996 31.5241 35.9204 31.5154C35.9417 31.5073 35.9649 31.5032 35.9903 31.5032C36.0408 31.5032 36.0241 31.5776 35.9399 31.727L35.6926 32.1121C35.8829 32.1244 36.0454 32.1307 36.1806 32.1307L36.4024 32.1244C36.4741 32.1244 36.5269 32.1335 36.5607 32.1525C36.5945 32.1711 36.6028 32.2034 36.5862 32.2488C36.5565 32.3274 36.4825 32.4332 36.3644 32.5658C36.1112 32.8559 35.9209 33.1643 35.7945 33.4917C35.7649 33.5702 35.75 33.6388 35.75 33.6969C35.75 33.8172 35.7945 33.8772 35.8829 33.8772C35.9125 33.8772 35.9686 33.8545 36.051 33.8086C36.1334 33.7632 36.2718 33.6542 36.4658 33.4826C36.6598 33.3109 36.8162 33.142 36.9348 32.9763C36.9514 32.9554 36.9718 32.9504 36.995 32.9608C37.0181 32.9713 37.0297 32.9817 37.0297 32.9917C37.0297 33.0021 37.0255 33.0135 37.0172 33.0258C36.9538 33.1375 36.8399 33.2805 36.675 33.4544C36.5102 33.6283 36.3496 33.7691 36.1936 33.8767C36.0408 33.9925 35.876 34.0506 35.6987 34.0506Z" fill="#635D54"/>
<path d="M6.25836 27.5616V27.0562H9.4028V18.6405L2.95419 4.44008H0.112061V3.93468H9.4028V4.44008H6.80928L12.6361 17.142L17.3259 6.72236C17.4681 6.40858 17.5658 6.1561 17.619 5.96448C17.6722 5.77285 17.6991 5.59575 17.6991 5.43319C17.6991 5.07309 17.5422 4.81789 17.2283 4.66668C16.9144 4.51592 16.3783 4.44008 15.6204 4.44008H15.2829V3.93468H21.4824V4.44008H20.9315C20.2088 4.44008 19.6672 4.55633 19.306 4.78837C18.9445 5.02087 18.5746 5.54353 18.1959 6.35636L12.9556 17.9607V27.0558H16.0468V27.5612H6.25836V27.5616Z" fill="#EFB8A9"/>
<path d="M35.9806 19.1109H36.4426V27.0912H35.9806C35.8857 26.5454 35.7408 26.1303 35.5454 25.8456C35.35 25.5609 35.1042 25.4188 34.8084 25.4188C34.5121 25.4188 33.9852 25.6744 33.2274 26.1853C33.0024 26.3365 32.8306 26.4468 32.7121 26.5163L32.6764 26.5513C31.1487 27.5621 29.6625 28.067 28.2176 28.067C26.8676 28.067 25.538 27.7387 24.2297 27.0826C22.9209 26.4264 21.7278 25.4941 20.65 24.2858C19.6199 23.1129 18.8588 21.8727 18.3672 20.5659C17.8755 19.259 17.6301 17.8218 17.6301 16.2533C17.6301 14.4647 17.9084 12.7745 18.4648 11.1829C19.0213 9.59177 19.8149 8.20951 20.8454 7.03613C21.8639 5.88591 23.0213 5.00043 24.3181 4.37923C25.6149 3.75803 26.9676 3.44698 28.3774 3.44698C29.7987 3.44698 31.344 3.92922 33.0139 4.89326C33.1204 4.95139 33.2093 5.00361 33.2806 5.04993C33.3987 5.1194 33.5649 5.2184 33.7778 5.346C34.3343 5.69429 34.7371 5.86866 34.9857 5.86866C35.2936 5.86866 35.5301 5.74651 35.6963 5.50266C35.8621 5.25881 35.9565 4.90462 35.9806 4.43962H36.4426V11.4962H35.9806C35.7436 9.3007 34.9264 7.49159 33.5292 6.06891C32.1315 4.64624 30.4973 3.93467 28.6264 3.93467C26.2931 3.93467 24.5524 4.94276 23.4037 6.95758C22.2547 8.97284 21.6806 12.0253 21.6806 16.1139C21.6806 17.9031 21.7959 19.4883 22.0269 20.8706C22.2579 22.2528 22.5922 23.339 23.0306 24.1287C23.5991 25.174 24.3598 26.0018 25.3135 26.6117C26.2667 27.2215 27.2468 27.5262 28.2533 27.5262C29.4612 27.5262 30.6426 27.1866 31.7973 26.5068C32.9519 25.827 33.9315 24.8834 34.7371 23.6755C35.0922 23.1528 35.3676 22.5371 35.563 21.8287C35.7588 21.1208 35.8977 20.2144 35.9806 19.1109Z" fill="#EFB8A9"/>
<path d="M49.888 25.5836C44.5338 34.9048 34.2436 40.6109 23.5584 41.7852C22.52 41.9056 21.4232 41.97 20.3806 42.0159C20.019 42.0218 19.35 42.0304 18.9866 42.0345C18.451 42.0209 17.7311 42.0132 17.1959 41.9791C16.8167 41.9523 16.3825 41.9342 16.0047 41.9037C15.5607 41.8556 14.8639 41.8043 14.4223 41.7394C14.2237 41.7108 13.4482 41.6072 13.2408 41.5768C12.801 41.4969 12.1139 41.3906 11.6764 41.2989C9.47413 40.8507 7.30468 40.2304 5.22644 39.3999C9.6019 40.8498 14.1908 41.5968 18.7875 41.5564C31.0713 41.4669 43.1755 35.8793 49.888 25.5836Z" fill="#EFB8A9"/>
<path d="M43.5297 30.8002C34.881 40.5405 20.576 44.7155 7.75513 42.4845C20.6329 43.8668 34.3079 39.9094 43.5297 30.8002Z" fill="#EFB8A9"/>
</svg>
