<svg width="32" height="32" viewBox="0 0 32 32" fill="none" xmlns="http://www.w3.org/2000/svg">
<path d="M15.1999 8.10503V22.2107L10.9655 17.4204C10.6531 17.067 10.1467 17.067 9.83431 17.4204C9.52191 17.7738 9.52191 18.3469 9.83431 18.7003L15.4344 25.0355C15.7468 25.3889 16.2534 25.3889 16.5656 25.0355L22.1656 18.7003C22.3218 18.5236 22.4 18.2919 22.4 18.0603C22.4 17.8288 22.3218 17.5971 22.1656 17.4204C21.8532 17.067 21.3466 17.067 21.0344 17.4204L16.8 22.2107V8.10503C16.8 7.60546 16.4418 7.20001 16 7.20001C15.5582 7.20001 15.1999 7.60524 15.1999 8.10503Z" fill="white"/>
<circle cx="16" cy="16" r="15.35" stroke="white" stroke-width="1.3"/>
</svg>
