<svg width="200" height="163" viewBox="0 0 200 163" fill="none" xmlns="http://www.w3.org/2000/svg">
<path d="M37.0798 111.787C37.1983 111.797 37.3038 111.843 37.3964 111.926C37.489 112.012 37.6335 112.289 37.8279 112.763C38.0224 113.237 38.1187 113.63 38.1187 113.941C38.1187 114.254 38.0816 114.584 38.0038 114.93C37.9279 115.276 37.8057 115.45 37.6372 115.45C37.3501 115.45 37.1131 115.117 36.9279 114.449C36.7409 113.782 36.6075 113.363 36.5224 113.195C36.0501 112.199 35.5427 111.471 35.002 111.015C34.5113 110.56 34.0131 110.332 33.5075 110.332C33.2872 110.332 33.0687 110.375 32.8483 110.458C31.7668 110.913 31.2261 111.978 31.2261 113.65C31.2261 114.191 31.3279 114.828 31.5298 115.563C31.7335 116.299 32.0446 116.945 32.4668 117.502C32.552 117.604 32.9983 117.687 33.8094 117.756C34.2316 117.806 34.4761 117.954 34.5446 118.199C34.6113 118.443 34.5113 118.634 34.2409 118.769C34.089 118.956 33.5057 118.904 32.4927 118.617C32.2224 118.55 32.0446 118.508 31.9613 118.489C31.0483 118.506 30.0187 118.71 28.8705 119.099C27.7224 119.487 26.6668 120.084 25.7038 120.886C24.7409 121.687 24.2594 122.571 24.2594 123.534C24.2594 124.26 24.5557 124.847 25.1464 125.295C25.7372 125.743 26.6872 125.967 27.9964 125.967C29.3057 125.967 30.7668 125.763 32.3798 125.358C33.9927 124.952 35.2594 124.513 36.1816 124.039C37.102 123.567 38.0094 122.899 38.9057 122.037C39.8001 121.176 40.2483 120.434 40.2483 119.808C40.2483 119.706 40.2446 119.623 40.2353 119.554C40.2261 119.487 40.239 119.445 40.2742 119.428C40.3761 119.378 40.4594 119.386 40.5279 119.454C40.7464 119.876 40.8575 120.206 40.8575 120.443C40.8575 121.136 40.6298 121.762 40.1742 122.319C39.3798 123.282 38.4853 124.043 37.489 124.6C36.4927 125.158 35.1279 125.63 33.3964 126.019C31.665 126.408 30.2242 126.602 29.0761 126.602C27.9261 126.602 26.952 126.5 26.1501 126.299C25.3483 126.097 24.6501 125.691 24.0594 125.082C23.4687 124.475 23.1724 123.726 23.1724 122.839C23.1724 121.952 23.3872 121.2 23.8187 120.584C24.2501 119.967 24.765 119.491 25.365 119.152C25.965 118.815 26.6872 118.536 27.5316 118.315C28.7816 117.978 30.1761 117.767 31.7131 117.682C30.615 116.432 29.965 114.987 29.7613 113.349C29.7446 113.163 29.7353 112.986 29.7353 112.817C29.7353 112.208 29.8835 111.647 30.1779 111.132C30.4742 110.617 30.9668 110.249 31.6613 110.03C32.3538 109.812 32.8687 109.7 33.2076 109.7C33.5446 109.7 33.7946 109.723 33.9557 109.763C34.1168 109.806 34.2557 109.849 34.3742 109.889C34.4927 109.932 34.6113 109.991 34.7298 110.067C34.8483 110.143 34.9483 110.206 35.0335 110.258C35.1187 110.308 35.2187 110.389 35.3372 110.499C35.4557 110.608 35.539 110.684 35.5909 110.726C35.6409 110.769 35.7335 110.854 35.8705 110.98C36.0057 111.106 36.089 111.178 36.1242 111.195C36.3779 111.499 36.6224 111.676 36.8594 111.726C36.8853 111.758 36.9613 111.778 37.0798 111.787Z" fill="#898A8D"/>
<path d="M43.0593 119.046C43.0593 118.235 42.8223 117.83 42.35 117.83C42.2482 117.83 42.1426 117.843 42.0334 117.869C41.9241 117.894 41.8686 117.872 41.8686 117.806C41.8686 117.739 41.9186 117.654 42.0204 117.552C42.1223 117.467 42.4686 117.4 43.0593 117.35C43.7686 117.35 44.213 117.452 44.3889 117.654C44.5667 117.856 44.6556 118.059 44.6556 118.261C44.6556 118.463 44.5 118.967 44.1871 119.769C43.8741 120.57 43.7093 120.989 43.6926 121.022C43.1852 122.543 42.9574 123.496 43.0093 123.885C44.5297 121.841 45.526 120.567 46 120.059C46.9963 118.961 47.7056 118.209 48.1278 117.804C49.1074 116.891 49.9686 116.274 50.713 115.954C50.9315 115.869 51.126 115.828 51.2963 115.828C51.8537 115.828 52.2334 115.996 52.4371 116.335C52.5037 116.42 52.5389 116.5 52.5389 116.576C52.5389 116.652 52.513 116.741 52.463 116.843C52.413 116.944 52.3186 116.939 52.1834 116.83C52.0482 116.72 51.7445 116.665 51.2704 116.665C50.4926 116.665 49.1926 117.578 47.3686 119.402C46.2704 120.533 45.2611 121.717 44.3408 122.95C43.4204 124.183 42.926 125.061 42.8593 125.585C42.8593 125.72 42.7334 125.787 42.4797 125.787C42.226 125.787 42.0371 125.682 41.9093 125.47C41.7834 125.259 41.7186 125.082 41.7186 124.939C41.7186 124.794 41.7278 124.669 41.7445 124.559C41.7611 124.45 41.9297 123.828 42.2519 122.696C42.5723 121.565 42.776 120.813 42.8593 120.441C42.6556 120.78 42.3778 121.193 42.0223 121.683C41.9037 121.819 41.8074 121.857 41.7315 121.798C41.6556 121.739 41.6167 121.683 41.6167 121.633C41.6167 121.583 41.6334 121.524 41.6667 121.456C42.376 120.491 42.8408 119.689 43.0593 119.046Z" fill="#898A8D"/>
<path d="M55.578 117.324C56.4909 117.324 56.9465 117.763 56.9465 118.643C56.9465 119.098 56.8206 119.47 56.5668 119.757C56.1446 120.383 55.4594 120.928 54.515 121.393C53.5687 121.857 52.7668 122.115 52.1076 122.165C51.8706 122.181 51.7446 122.115 51.728 121.963C51.7113 121.896 51.7317 121.854 51.7909 121.835C51.8502 121.819 51.8965 121.809 51.9298 121.809C52.3187 121.776 52.8168 121.591 53.4243 121.252C54.5557 120.644 55.3835 120.019 55.9076 119.376C56.1261 119.072 56.2372 118.782 56.2372 118.502C56.2372 118.222 56.102 118.083 55.8317 118.083C55.6113 118.083 55.3169 118.176 54.9446 118.363C54.1502 118.735 53.315 119.381 52.4354 120.302C51.5576 121.222 50.9817 122.122 50.7131 123C50.628 123.27 50.5872 123.537 50.5872 123.798C50.5872 124.061 50.6965 124.309 50.9169 124.546C51.1354 124.783 51.4743 124.902 51.9298 124.902C52.4372 124.902 53.0187 124.767 53.678 124.496C55.5872 123.72 57.0557 122.544 58.0872 120.974C58.1891 120.839 58.2817 120.813 58.3668 120.898C58.4335 120.932 58.4687 120.974 58.4687 121.026C58.4687 121.076 58.4428 121.135 58.3928 121.204C57.8854 122.048 57.2446 122.8 56.4669 123.459C54.9631 124.743 53.502 125.385 52.0835 125.385C50.8668 125.385 50.0131 125.022 49.5243 124.296C49.3391 124.009 49.2446 123.663 49.2446 123.257C49.2446 122.852 49.3539 122.37 49.5743 121.813C49.9965 120.85 50.9002 119.861 52.2854 118.848C53.6687 117.83 54.7668 117.324 55.578 117.324Z" fill="#898A8D"/>
<path d="M64.8761 117.502C65.2649 117.502 65.4594 117.709 65.4594 118.122C65.4594 118.535 65.2649 119.106 64.8761 119.833C64.4872 120.559 64.2001 121.152 64.0149 121.607C63.6946 122.385 63.5335 123.006 63.5335 123.47C63.5335 123.935 63.6001 124.243 63.7372 124.394C63.9909 124.665 64.3372 124.678 64.7761 124.432C65.2149 124.187 65.8279 123.713 66.6131 123.013C67.3983 122.313 68.0279 121.624 68.5001 120.948C68.5668 120.863 68.6483 120.843 68.7409 120.885C68.8335 120.928 68.8798 120.97 68.8798 121.011C68.8798 121.054 68.8631 121.1 68.8298 121.15C68.5761 121.606 68.1205 122.189 67.4612 122.898C66.802 123.607 66.1686 124.178 65.5612 124.609C64.9538 125.041 64.3538 125.256 63.7612 125.256C63.1872 125.239 62.7816 125.107 62.5446 124.863C62.3075 124.619 62.189 124.309 62.189 123.939C62.189 123.567 62.2224 123.209 62.2909 122.861C62.3575 122.515 62.4853 122.113 62.6705 121.657C62.9742 120.932 63.2409 120.365 63.4687 119.959C63.6964 119.554 63.8112 119.287 63.8112 119.161C63.8112 119.033 63.7446 118.97 63.6094 118.97C63.339 118.97 62.8242 119.3 62.0631 119.959C61.539 120.45 60.7668 121.374 59.7446 122.733C58.7224 124.093 58.1446 124.815 58.0094 124.9C57.402 125.204 57.0205 125.356 56.8686 125.356C56.7168 125.356 56.6409 125.33 56.6409 125.28C56.6409 125.23 56.6575 125.157 56.6909 125.065C56.7242 124.972 56.889 124.511 57.1853 123.683C57.4816 122.856 57.802 121.948 58.1483 120.959C58.4946 119.97 58.7057 119.376 58.7816 119.172C58.8575 118.97 58.9075 118.796 58.9335 118.652C58.9594 118.509 58.9872 118.385 59.0224 118.285C59.0557 118.183 59.1186 118.07 59.2131 117.943C59.3057 117.815 59.4279 117.748 59.5798 117.739C59.7316 117.732 59.9261 117.748 60.1631 117.789C60.4001 117.832 60.5186 117.937 60.5186 118.106C60.5186 118.224 60.4261 118.482 60.239 118.878C60.052 119.274 59.5205 120.639 58.6427 122.97C59.2501 122.228 60.0186 121.37 60.9483 120.398C61.8779 119.426 62.6631 118.687 63.3057 118.182C63.9483 117.73 64.4724 117.502 64.8761 117.502Z" fill="#898A8D"/>
<path d="M72.2262 117.602C73.5262 117.483 74.3169 117.424 74.5947 117.424C74.8725 117.424 75.0132 117.467 75.0132 117.55C75.0132 117.652 74.8151 117.757 74.4188 117.867C74.0225 117.976 73.054 118.117 71.5169 118.285C71.4317 118.437 71.3317 118.615 71.2132 118.817C70.9595 119.222 70.8243 119.467 70.8077 119.552C69.8447 121.478 69.3373 122.702 69.2873 123.226C69.2706 123.378 69.2614 123.572 69.2614 123.809C69.2614 124.046 69.328 124.241 69.4632 124.393C69.7003 124.663 70.0373 124.68 70.4762 124.443C70.9151 124.206 71.528 123.733 72.3132 123.024C73.0984 122.315 73.7354 121.622 74.2262 120.946C74.2929 120.861 74.378 120.844 74.4799 120.896C74.7336 121.015 74.2929 121.681 73.1614 122.898C72.0799 124.063 71.1762 124.781 70.4503 125.052C70.028 125.204 69.6725 125.28 69.3854 125.28C68.7095 125.28 68.2614 124.959 68.0428 124.317C68.0095 124.198 67.9929 124.056 67.9929 123.885C67.9929 123.294 68.2632 122.398 68.804 121.2C68.7188 121.385 68.3891 121.807 67.8151 122.467C67.6632 122.635 67.5447 122.635 67.4595 122.467C67.4429 122.433 67.4336 122.387 67.4336 122.328C67.4336 122.269 67.4669 122.196 67.5354 122.113C68.3632 121.083 69.0132 120.213 69.4873 119.504C69.4873 119.487 69.6725 119.133 70.0447 118.439C69.8762 118.472 69.7021 118.489 69.5262 118.489C69.3503 118.489 69.2169 118.435 69.1336 118.324C69.0484 118.215 69.041 118.083 69.1077 117.931C69.2262 117.661 69.6743 117.509 70.4503 117.476C70.4669 117.443 70.5003 117.426 70.5521 117.426L71.8188 115.069C71.8854 114.933 71.9614 114.794 72.0466 114.65C72.1317 114.507 72.1947 114.396 72.2373 114.32C72.2799 114.244 72.3262 114.165 72.3762 114.08C72.4262 113.994 72.4688 113.937 72.5021 113.902C72.5354 113.869 72.5688 113.835 72.604 113.8C72.6706 113.698 72.8706 113.648 73.2003 113.648C73.5299 113.648 73.754 113.741 73.8725 113.928C73.9225 113.994 73.9484 114.109 73.9484 114.27C73.9484 114.431 73.8891 114.609 73.7706 114.802C73.6521 114.996 73.5262 115.135 73.391 115.22C73.2558 115.306 73.1632 115.398 73.1114 115.5L71.8947 117.628L72.2262 117.602Z" fill="#898A8D"/>
<path d="M82.8428 124.267C82.8428 124.487 82.952 124.596 83.1724 124.596C83.3909 124.596 83.6872 124.365 84.0594 123.9C84.4317 123.435 84.6835 123.211 84.8187 123.228C84.9205 123.33 84.8094 123.548 84.4891 123.887C84.4557 123.92 84.3965 124.009 84.3113 124.154C84.2261 124.298 84.1557 124.411 84.0965 124.496C84.0372 124.582 83.9576 124.691 83.8557 124.826C83.7539 124.961 83.6613 125.07 83.5761 125.156C83.4909 125.241 83.3983 125.324 83.2965 125.409C83.0946 125.578 82.9168 125.663 82.765 125.663C82.6131 125.663 82.4057 125.633 82.1446 125.574C81.8817 125.515 81.7483 125.452 81.7391 125.383C81.7298 125.317 81.7261 125.257 81.7261 125.206C81.7261 124.328 82.4446 122.528 83.8798 119.809C83.6594 119.809 83.4872 119.8 83.3613 119.783C83.2354 119.767 83.1576 119.698 83.1335 119.582C83.1076 119.463 83.1428 119.396 83.2354 119.38C83.328 119.363 83.4261 119.363 83.5261 119.38C83.628 119.396 83.8057 119.406 84.0576 119.406C84.9187 117.852 85.4335 116.902 85.6039 116.556C85.7724 116.209 85.8576 115.959 85.8576 115.807C85.8576 115.656 85.8483 115.537 85.8317 115.452C85.8983 114.98 86.3094 114.359 87.0613 113.589C87.8131 112.82 88.4928 112.435 89.102 112.435C89.3039 112.435 89.5798 112.511 89.9261 112.663C90.2724 112.815 90.4706 112.989 90.5224 113.183C90.5724 113.378 90.5854 113.487 90.5613 113.513C90.5354 113.539 90.4817 113.535 90.3965 113.5C90.3113 113.467 90.2613 113.45 90.2446 113.45C89.028 113.45 87.2965 115.435 85.0502 119.406C86.8909 119.32 88.7798 118.954 90.7131 118.304C92.6465 117.654 94.1298 116.796 95.1594 115.731C95.7502 115.157 96.0465 114.55 96.0465 113.907C96.0465 112.015 94.1113 111.07 90.2446 111.07C88.0317 111.07 85.9205 111.409 83.9094 112.083C82.8613 112.456 81.9706 112.954 81.2354 113.578C80.5002 114.204 80.065 114.913 79.9298 115.706C79.9131 115.791 79.9039 115.9 79.9039 116.035C79.9039 116.17 79.9594 116.335 80.0687 116.53C80.178 116.724 80.3094 116.872 80.4613 116.974C80.6131 117.076 80.828 117.194 81.1076 117.33C81.3872 117.465 81.5724 117.567 81.665 117.633C81.7576 117.702 81.7798 117.772 81.728 117.848C81.678 117.924 81.5668 117.946 81.3983 117.911C80.8743 117.826 80.3854 117.565 79.928 117.126C79.4724 116.687 79.2446 116.213 79.2446 115.707C79.2446 115.556 79.2613 115.404 79.2946 115.252C79.2613 115.033 79.2446 114.896 79.2446 114.846C79.4817 113.58 80.7224 112.372 82.9687 111.222C84.7428 110.394 86.8372 109.98 89.2539 109.98C90.7409 109.98 92.2094 110.182 93.6631 110.589C94.6428 110.928 95.3854 111.409 95.8928 112.033C96.4002 112.659 96.652 113.293 96.652 113.933C96.652 114.913 96.2631 115.78 95.4872 116.53C94.7094 117.281 93.8409 117.861 92.878 118.265C90.5965 119.244 87.9113 119.769 84.8206 119.835C84.1613 121.052 83.6668 122.039 83.3372 122.8C83.0076 123.557 82.8428 124.048 82.8428 124.267Z" fill="#898A8D"/>
<path d="M94.3465 121.454C94.1447 122.028 94.0336 122.413 94.0169 122.607C94.0002 122.802 93.991 123.063 93.991 123.393C93.991 123.722 94.0743 124.022 94.2447 124.293C94.5317 124.748 95.0132 124.782 95.6891 124.394C96.1965 124.124 96.8373 123.63 97.6151 122.911C98.391 122.193 98.991 121.539 99.4151 120.948C99.4484 120.898 99.5002 120.872 99.5669 120.872C99.7188 120.872 99.7614 120.983 99.6928 121.202C99.4391 121.657 98.9706 122.241 98.2873 122.95C97.6039 123.659 96.9817 124.222 96.4243 124.635C95.8669 125.048 95.3095 125.256 94.7521 125.256C93.4688 125.256 92.8262 124.631 92.8262 123.38C92.8262 123.33 92.8262 123.278 92.8262 123.228C92.8928 122.046 93.4928 120.259 94.6243 117.869C95.7558 115.478 96.778 113.674 97.691 112.459L98.4762 111.47C98.6614 111.252 98.9317 110.981 99.2873 110.659C99.9632 110.017 100.66 109.696 101.378 109.696C102.097 109.696 102.582 109.917 102.835 110.356C102.919 110.507 102.961 110.728 102.961 111.015C102.961 111.302 102.835 111.707 102.582 112.232C100.841 115.254 98.0965 118.33 94.3465 121.454ZM101.898 111.774C102.1 111.402 102.202 111.115 102.202 110.913C102.202 110.557 102.058 110.381 101.772 110.381C101.535 110.381 101.241 110.517 100.885 110.787C99.5336 111.835 98.2243 113.491 96.9577 115.754C95.9447 117.578 95.2002 119.141 94.728 120.441C95.8928 119.646 97.1984 118.356 98.6428 116.565C100.085 114.774 101.171 113.176 101.898 111.774Z" fill="#898A8D"/>
<path d="M100.326 124.976C100.056 124.976 99.765 124.896 99.452 124.735C99.139 124.574 98.8724 124.346 98.6538 124.052C98.4335 123.756 98.3242 123.441 98.3242 123.102C98.3242 122.765 98.4001 122.443 98.552 122.139C98.889 121.43 99.4335 120.741 100.187 120.074C100.939 119.407 101.721 118.837 102.532 118.363C103.343 117.891 103.983 117.594 104.458 117.476C104.93 117.357 105.391 117.298 105.839 117.298C106.287 117.298 106.671 117.413 106.993 117.641C107.313 117.869 107.474 118.109 107.474 118.363C107.474 118.448 107.465 118.498 107.448 118.515C107.432 118.532 107.389 118.524 107.321 118.489C107.119 118.169 106.7 118.007 106.067 118.007C105.433 118.007 104.715 118.215 103.913 118.628C103.111 119.043 102.354 119.561 101.645 120.187C101.054 120.744 100.533 121.374 100.085 122.074C99.6372 122.776 99.4131 123.287 99.4131 123.607C99.4131 124.233 99.5909 124.544 99.9446 124.544C100.3 124.544 100.839 124.257 101.567 123.683C102.767 122.67 103.585 121.926 104.024 121.454C105.578 119.782 106.415 118.944 106.533 118.944C106.735 118.944 106.982 119.004 107.269 119.122C107.556 119.241 107.648 119.383 107.548 119.554C106.687 120.77 106.18 121.994 106.028 123.228C106.011 123.38 106.002 123.574 106.002 123.811C106.002 124.048 106.069 124.243 106.204 124.394C106.458 124.665 106.804 124.681 107.243 124.444C107.682 124.207 108.295 123.735 109.08 123.026C109.865 122.317 110.495 121.624 110.967 120.948C111.033 120.863 111.111 120.843 111.195 120.885C111.278 120.928 111.321 120.965 111.321 121C111.321 121.254 110.919 121.807 110.117 122.659C109.315 123.513 108.702 124.091 108.28 124.394C107.485 124.985 106.75 125.282 106.074 125.282C105.432 125.282 105.002 124.961 104.782 124.319C104.732 124.117 104.706 123.887 104.706 123.635C104.706 122.874 104.867 122.072 105.187 121.228C105.119 121.261 104.808 121.6 104.25 122.241C103.693 122.883 103.046 123.5 102.311 124.091C101.58 124.682 100.917 124.976 100.326 124.976Z" fill="#898A8D"/>
<path d="M117.709 117.502C118.098 117.502 118.293 117.709 118.293 118.122C118.293 118.535 118.098 119.106 117.709 119.833C117.32 120.559 117.033 121.152 116.848 121.607C116.528 122.385 116.367 123.006 116.367 123.47C116.367 123.935 116.433 124.243 116.569 124.394C116.822 124.665 117.169 124.678 117.607 124.432C118.046 124.187 118.659 123.713 119.444 123.013C120.23 122.313 120.859 121.624 121.332 120.948C121.398 120.863 121.48 120.843 121.572 120.885C121.665 120.928 121.711 120.97 121.711 121.011C121.711 121.054 121.694 121.1 121.661 121.15C121.407 121.606 120.952 122.189 120.293 122.898C119.633 123.607 119 124.178 118.393 124.609C117.785 125.041 117.185 125.256 116.594 125.256C116.02 125.239 115.615 125.107 115.378 124.863C115.141 124.619 115.022 124.309 115.022 123.939C115.022 123.567 115.056 123.209 115.124 122.861C115.191 122.515 115.319 122.113 115.504 121.657C115.807 120.932 116.074 120.365 116.302 119.959C116.53 119.554 116.644 119.287 116.644 119.161C116.644 119.033 116.578 118.97 116.443 118.97C116.172 118.97 115.657 119.3 114.896 119.959C114.372 120.45 113.6 121.374 112.578 122.733C111.556 124.093 110.978 124.815 110.843 124.9C110.235 125.204 109.854 125.356 109.702 125.356C109.55 125.356 109.474 125.33 109.474 125.28C109.474 125.23 109.491 125.157 109.524 125.065C109.557 124.972 109.722 124.511 110.019 123.683C110.315 122.856 110.635 121.948 110.982 120.959C111.328 119.97 111.539 119.376 111.615 119.172C111.691 118.97 111.743 118.796 111.767 118.652C111.793 118.509 111.82 118.385 111.856 118.285C111.889 118.183 111.952 118.07 112.046 117.943C112.139 117.815 112.261 117.748 112.413 117.739C112.565 117.732 112.759 117.748 112.996 117.789C113.233 117.832 113.352 117.937 113.352 118.106C113.352 118.224 113.259 118.482 113.072 118.878C112.887 119.274 112.354 120.639 111.476 122.97C112.083 122.228 112.852 121.37 113.782 120.398C114.709 119.426 115.496 118.687 116.139 118.182C116.78 117.73 117.304 117.502 117.709 117.502Z" fill="#898A8D"/>
<path d="M128.072 117.502C128.461 117.502 128.656 117.709 128.656 118.122C128.656 118.535 128.461 119.106 128.072 119.833C127.683 120.559 127.396 121.152 127.211 121.607C126.891 122.385 126.73 123.006 126.73 123.47C126.73 123.935 126.796 124.243 126.932 124.394C127.185 124.665 127.532 124.678 127.97 124.432C128.409 124.187 129.022 123.713 129.808 123.013C130.593 122.313 131.222 121.624 131.695 120.948C131.761 120.863 131.843 120.843 131.935 120.885C132.028 120.928 132.074 120.97 132.074 121.011C132.074 121.054 132.058 121.1 132.024 121.15C131.77 121.606 131.315 122.189 130.656 122.898C129.996 123.607 129.363 124.178 128.756 124.609C128.146 125.041 127.548 125.256 126.958 125.256C126.383 125.239 125.978 125.107 125.741 124.863C125.504 124.619 125.385 124.309 125.385 123.939C125.385 123.567 125.419 123.209 125.487 122.861C125.554 122.515 125.682 122.113 125.867 121.657C126.17 120.932 126.437 120.365 126.665 119.959C126.893 119.554 127.008 119.287 127.008 119.161C127.008 119.033 126.941 118.97 126.806 118.97C126.535 118.97 126.02 119.3 125.259 119.959C124.735 120.45 123.963 121.374 122.941 122.733C121.919 124.093 121.341 124.815 121.206 124.9C120.598 125.204 120.217 125.356 120.065 125.356C119.913 125.356 119.837 125.33 119.837 125.28C119.837 125.23 119.854 125.157 119.887 125.065C119.92 124.972 120.085 124.511 120.382 123.683C120.678 122.856 120.998 121.948 121.345 120.959C121.691 119.97 121.902 119.376 121.978 119.172C122.054 118.97 122.106 118.796 122.13 118.652C122.156 118.509 122.183 118.385 122.219 118.285C122.252 118.183 122.315 118.07 122.409 117.943C122.502 117.815 122.624 117.748 122.776 117.739C122.928 117.732 123.122 117.748 123.359 117.789C123.596 117.832 123.715 117.937 123.715 118.106C123.715 118.224 123.622 118.482 123.435 118.878C123.25 119.274 122.717 120.639 121.839 122.97C122.446 122.228 123.215 121.37 124.145 120.398C125.072 119.426 125.859 118.687 126.502 118.182C127.143 117.73 127.667 117.502 128.072 117.502Z" fill="#898A8D"/>
<path d="M137.221 117.324C138.132 117.324 138.589 117.763 138.589 118.643C138.589 119.098 138.463 119.47 138.209 119.757C137.787 120.383 137.104 120.928 136.158 121.393C135.211 121.857 134.409 122.115 133.75 122.165C133.513 122.181 133.387 122.115 133.371 121.963C133.354 121.896 133.374 121.854 133.434 121.835C133.493 121.819 133.539 121.809 133.572 121.809C133.961 121.776 134.459 121.591 135.069 121.252C136.2 120.644 137.028 120.019 137.552 119.376C137.771 119.072 137.882 118.782 137.882 118.502C137.882 118.222 137.746 118.083 137.476 118.083C137.256 118.083 136.961 118.176 136.589 118.363C135.795 118.735 134.959 119.381 134.08 120.302C133.202 121.222 132.626 122.122 132.356 123C132.271 123.27 132.23 123.537 132.23 123.798C132.23 124.061 132.339 124.309 132.559 124.546C132.778 124.783 133.117 124.902 133.572 124.902C134.08 124.902 134.661 124.767 135.321 124.496C137.23 123.72 138.698 122.544 139.73 120.974C139.832 120.839 139.924 120.813 140.009 120.898C140.076 120.932 140.111 120.974 140.111 121.026C140.111 121.076 140.085 121.135 140.035 121.204C139.528 122.048 138.885 122.8 138.109 123.459C136.606 124.743 135.145 125.385 133.726 125.385C132.509 125.385 131.656 125.022 131.167 124.296C130.98 124.009 130.887 123.663 130.887 123.257C130.887 122.852 130.996 122.37 131.217 121.813C131.639 120.85 132.543 119.861 133.928 118.848C135.311 117.83 136.409 117.324 137.221 117.324Z" fill="#898A8D"/>
<path d="M142.795 125.332C141.934 125.332 141.502 124.811 141.502 123.772C141.502 122.733 142.245 121.454 143.732 119.933C143.85 119.815 143.934 119.722 143.985 119.654L144.163 119.4C144.4 119.08 144.509 118.876 144.493 118.793L144.417 118.565C144.35 118.363 144.071 118.215 143.58 118.122C143.089 118.03 142.693 117.983 142.389 117.983C140.869 120.13 139.991 121.354 139.754 121.657C139.517 121.961 139.358 122.089 139.272 122.037C139.187 121.987 139.146 121.928 139.146 121.859C139.146 121.793 139.196 121.691 139.298 121.556C140.211 120.441 140.996 119.25 141.656 117.983C141.454 117.95 141.302 117.878 141.2 117.769C141.098 117.659 141.089 117.472 141.174 117.211C141.259 116.95 141.517 116.598 141.946 116.159C142.376 115.72 142.754 115.424 143.074 115.272C143.395 115.12 143.598 115.028 143.682 114.993C143.767 114.959 143.859 114.943 143.961 114.943C144.163 114.943 144.096 115.246 143.759 115.856L142.771 117.426C143.532 117.476 144.182 117.502 144.722 117.502L145.609 117.476C145.896 117.476 146.108 117.513 146.243 117.591C146.378 117.667 146.411 117.798 146.345 117.983C146.226 118.304 145.93 118.735 145.458 119.276C144.445 120.459 143.684 121.717 143.178 123.052C143.059 123.372 143 123.652 143 123.889C143 124.38 143.178 124.624 143.532 124.624C143.65 124.624 143.874 124.532 144.204 124.344C144.534 124.159 145.087 123.715 145.863 123.015C146.639 122.315 147.265 121.626 147.739 120.95C147.806 120.865 147.887 120.844 147.98 120.887C148.072 120.93 148.119 120.972 148.119 121.013C148.119 121.056 148.102 121.102 148.069 121.152C147.815 121.607 147.359 122.191 146.7 122.9C146.041 123.609 145.398 124.183 144.774 124.622C144.163 125.094 143.504 125.332 142.795 125.332Z" fill="#898A8D"/>
<path d="M25.0334 98.8685V96.8074H37.6112V62.4871L11.8168 4.57594H0.448242V2.51483H37.6112V4.57594H27.2371L50.5445 56.3759L69.3038 13.8834C69.8723 12.6037 70.2631 11.5741 70.476 10.7926C70.689 10.0111 70.7964 9.2889 70.7964 8.62594C70.7964 7.15742 70.1686 6.11668 68.9131 5.50002C67.6575 4.8852 65.5131 4.57594 62.4816 4.57594H61.1316V2.51483H85.9297V4.57594H83.726C80.8353 4.57594 78.6686 5.05002 77.2242 5.99631C75.7779 6.94446 74.2982 9.07594 72.7834 12.3908L51.8223 59.7148V96.8056H64.1871V98.8667H25.0334V98.8685Z" fill="#EFB8A9"/>
<path d="M143.922 64.4056H145.771V96.95H143.922C143.543 94.7241 142.963 93.0315 142.182 91.8704C141.4 90.7093 140.417 90.1296 139.233 90.1296C138.048 90.1296 135.941 91.1722 132.909 93.2556C132.009 93.8722 131.322 94.3222 130.848 94.6056L130.706 94.7482C124.595 98.8704 118.65 100.93 112.871 100.93C107.471 100.93 102.152 99.5908 96.9187 96.9148C91.6835 94.2389 86.9113 90.437 82.6001 85.5093C78.4798 80.7259 75.4353 75.6685 73.4687 70.3389C71.502 65.0093 70.5205 59.1482 70.5205 52.7519C70.5205 45.4574 71.6335 38.5648 73.8594 32.0741C76.0853 25.5852 79.2594 19.9482 83.3816 15.163C87.4557 10.4722 92.0853 6.86112 97.2724 4.32779C102.459 1.79446 107.871 0.52594 113.509 0.52594C119.195 0.52594 125.376 2.4926 132.056 6.42409C132.482 6.66112 132.837 6.87409 133.122 7.06298C133.595 7.34631 134.259 7.75001 135.111 8.27038C137.337 9.69075 138.948 10.4019 139.943 10.4019C141.174 10.4019 142.121 9.90372 142.785 8.90927C143.448 7.91483 143.826 6.47038 143.922 4.57409H145.771V33.3519H143.922C142.974 24.3982 139.706 17.0204 134.117 11.2185C128.526 5.41668 121.989 2.51483 114.506 2.51483C105.172 2.51483 98.2094 6.62594 93.615 14.8426C89.0187 23.0611 86.7224 35.5093 86.7224 52.1833C86.7224 59.4796 87.1835 65.9445 88.1075 71.5815C89.0316 77.2185 90.3687 81.6482 92.1224 84.8685C94.3964 89.1315 97.439 92.5074 101.254 94.9945C105.067 97.4815 108.987 98.7241 113.013 98.7241C117.845 98.7241 122.571 97.3389 127.189 94.5667C131.808 91.7945 135.726 87.9463 138.948 83.0204C140.369 80.8889 141.471 78.3778 142.252 75.4889C143.035 72.6019 143.591 68.9056 143.922 64.4056Z" fill="#EFB8A9"/>
<path d="M199.552 90.8019C178.135 128.815 136.974 152.085 94.2335 156.874C90.0798 157.365 85.6928 157.628 81.5224 157.815C80.0761 157.839 77.4002 157.874 75.9465 157.891C73.8039 157.835 70.9243 157.804 68.7835 157.665C67.2669 157.556 65.5298 157.482 64.0187 157.357C62.2428 157.161 59.4558 156.952 57.6891 156.687C56.8946 156.57 53.7928 156.148 52.9632 156.024C51.2039 155.698 48.4558 155.265 46.7058 154.891C37.8965 153.063 29.2187 150.533 20.9058 147.146C38.4076 153.059 56.7632 156.106 75.1502 155.941C124.285 155.576 172.702 132.789 199.552 90.8019Z" fill="#EFB8A9"/>
<path d="M174.119 112.076C139.524 151.798 82.3038 168.824 31.0205 159.726C82.5316 165.363 137.232 149.224 174.119 112.076Z" fill="#EFB8A9"/>
</svg>
