<svg width="14" height="8" viewBox="0 0 14 8" fill="none" xmlns="http://www.w3.org/2000/svg">
<path d="M7.00002 7.75002C6.90131 7.75059 6.80347 7.73167 6.71209 7.69434C6.62071 7.65702 6.5376 7.60203 6.46752 7.53252L0.467517 1.53252C0.397588 1.46259 0.342118 1.37957 0.304272 1.2882C0.266427 1.19684 0.246948 1.09891 0.246948 1.00002C0.246948 0.80029 0.326289 0.608744 0.467517 0.467517C0.608745 0.326289 0.800291 0.246948 1.00002 0.246948C1.19974 0.246948 1.39129 0.326289 1.53252 0.467517L7.00002 5.94252L12.4675 0.467517C12.6087 0.326289 12.8003 0.246948 13 0.246948C13.1997 0.246948 13.3913 0.326289 13.5325 0.467517C13.6737 0.608744 13.7531 0.80029 13.7531 1.00002C13.7531 1.19974 13.6737 1.39129 13.5325 1.53252L7.53252 7.53252C7.46244 7.60203 7.37933 7.65702 7.28795 7.69434C7.19657 7.73167 7.09872 7.75059 7.00002 7.75002Z" fill="#996058"/>
</svg>
